%TF.GenerationSoftware,KiCad,Pcbnew,(5.1.6)-1*%
%TF.CreationDate,2021-01-16T18:50:24+01:00*%
%TF.ProjectId,Snowman_Earring,536e6f77-6d61-46e5-9f45-617272696e67,rev?*%
%TF.SameCoordinates,Original*%
%TF.FileFunction,Legend,Top*%
%TF.FilePolarity,Positive*%
%FSLAX46Y46*%
G04 Gerber Fmt 4.6, Leading zero omitted, Abs format (unit mm)*
G04 Created by KiCad (PCBNEW (5.1.6)-1) date 2021-01-16 18:50:24*
%MOMM*%
%LPD*%
G01*
G04 APERTURE LIST*
%ADD10C,0.120000*%
%ADD11C,0.150000*%
G04 APERTURE END LIST*
D10*
X103626738Y-88131652D02*
G75*
G03*
X103626738Y-88131652I-2839806J0D01*
G01*
X96134657Y-80010000D02*
G75*
G03*
X96134657Y-80010000I-2839806J0D01*
G01*
X110789806Y-80010000D02*
G75*
G03*
X110789806Y-80010000I-2839806J0D01*
G01*
%TO.C,REF\u002A\u002A*%
X102037932Y-60960000D02*
G75*
G03*
X102037932Y-60960000I-1251000J0D01*
G01*
%TO.C,C1*%
X107803033Y-61487872D02*
X108319104Y-61569610D01*
X107580896Y-62890390D02*
X108096967Y-62972128D01*
%TO.C,D8*%
X106722371Y-94488231D02*
X106722371Y-97348231D01*
X106722371Y-97348231D02*
X108642371Y-97348231D01*
X108642371Y-97348231D02*
X108642371Y-94488231D01*
%TO.C,D7*%
X103413665Y-96365527D02*
X103413665Y-99225527D01*
X103413665Y-99225527D02*
X105333665Y-99225527D01*
X105333665Y-99225527D02*
X105333665Y-96365527D01*
%TO.C,D6*%
X99662425Y-96997965D02*
X99662425Y-99857965D01*
X99662425Y-99857965D02*
X101582425Y-99857965D01*
X101582425Y-99857965D02*
X101582425Y-96997965D01*
%TO.C,D5*%
X95921106Y-96309263D02*
X95921106Y-99169263D01*
X95921106Y-99169263D02*
X97841106Y-99169263D01*
X97841106Y-99169263D02*
X97841106Y-96309263D01*
%TO.C,D4*%
X92640966Y-94382487D02*
X92640966Y-97242487D01*
X92640966Y-97242487D02*
X94560966Y-97242487D01*
X94560966Y-97242487D02*
X94560966Y-94382487D01*
%TO.C,D3*%
X108950000Y-79050000D02*
X106090000Y-79050000D01*
X106090000Y-79050000D02*
X106090000Y-80970000D01*
X106090000Y-80970000D02*
X108950000Y-80970000D01*
%TO.C,D2*%
X101786932Y-87171652D02*
X98926932Y-87171652D01*
X98926932Y-87171652D02*
X98926932Y-89091652D01*
X98926932Y-89091652D02*
X101786932Y-89091652D01*
%TO.C,D1*%
X94294851Y-79050000D02*
X91434851Y-79050000D01*
X91434851Y-79050000D02*
X91434851Y-80970000D01*
X91434851Y-80970000D02*
X94294851Y-80970000D01*
D11*
%TO.C,U1*%
X108997235Y-70258800D02*
X110725690Y-70532560D01*
X109827120Y-65019113D02*
X104394834Y-64158724D01*
X108965166Y-70461276D02*
X103532880Y-69600887D01*
X109827120Y-65019113D02*
X109780190Y-65315420D01*
X104394834Y-64158724D02*
X104347904Y-64455030D01*
X103532880Y-69600887D02*
X103579810Y-69304580D01*
X108965166Y-70461276D02*
X108997235Y-70258800D01*
%TO.C,C1*%
X107987632Y-60926987D02*
X107933150Y-60966570D01*
X107784603Y-60991255D01*
X107690537Y-60976357D01*
X107556888Y-60906976D01*
X107477721Y-60798012D01*
X107445587Y-60696497D01*
X107428351Y-60500917D01*
X107450699Y-60359819D01*
X107527529Y-60179137D01*
X107589460Y-60092521D01*
X107698424Y-60013354D01*
X107846972Y-59988669D01*
X107941037Y-60003567D01*
X108074686Y-60072948D01*
X108114270Y-60127430D01*
X108913389Y-61170038D02*
X108348996Y-61080647D01*
X108631193Y-61125342D02*
X108787627Y-60137654D01*
X108671214Y-60263854D01*
X108562250Y-60343021D01*
X108460735Y-60375155D01*
%TO.C,D8*%
X106484751Y-96226326D02*
X105484751Y-96226326D01*
X105484751Y-95988231D01*
X105532371Y-95845373D01*
X105627609Y-95750135D01*
X105722847Y-95702516D01*
X105913323Y-95654897D01*
X106056180Y-95654897D01*
X106246656Y-95702516D01*
X106341894Y-95750135D01*
X106437132Y-95845373D01*
X106484751Y-95988231D01*
X106484751Y-96226326D01*
X105913323Y-95083469D02*
X105865704Y-95178707D01*
X105818085Y-95226326D01*
X105722847Y-95273945D01*
X105675228Y-95273945D01*
X105579990Y-95226326D01*
X105532371Y-95178707D01*
X105484751Y-95083469D01*
X105484751Y-94892992D01*
X105532371Y-94797754D01*
X105579990Y-94750135D01*
X105675228Y-94702516D01*
X105722847Y-94702516D01*
X105818085Y-94750135D01*
X105865704Y-94797754D01*
X105913323Y-94892992D01*
X105913323Y-95083469D01*
X105960942Y-95178707D01*
X106008561Y-95226326D01*
X106103799Y-95273945D01*
X106294275Y-95273945D01*
X106389513Y-95226326D01*
X106437132Y-95178707D01*
X106484751Y-95083469D01*
X106484751Y-94892992D01*
X106437132Y-94797754D01*
X106389513Y-94750135D01*
X106294275Y-94702516D01*
X106103799Y-94702516D01*
X106008561Y-94750135D01*
X105960942Y-94797754D01*
X105913323Y-94892992D01*
%TO.C,D7*%
X103176045Y-98103622D02*
X102176045Y-98103622D01*
X102176045Y-97865527D01*
X102223665Y-97722669D01*
X102318903Y-97627431D01*
X102414141Y-97579812D01*
X102604617Y-97532193D01*
X102747474Y-97532193D01*
X102937950Y-97579812D01*
X103033188Y-97627431D01*
X103128426Y-97722669D01*
X103176045Y-97865527D01*
X103176045Y-98103622D01*
X102176045Y-97198860D02*
X102176045Y-96532193D01*
X103176045Y-96960765D01*
%TO.C,D6*%
X99424805Y-98736060D02*
X98424805Y-98736060D01*
X98424805Y-98497965D01*
X98472425Y-98355107D01*
X98567663Y-98259869D01*
X98662901Y-98212250D01*
X98853377Y-98164631D01*
X98996234Y-98164631D01*
X99186710Y-98212250D01*
X99281948Y-98259869D01*
X99377186Y-98355107D01*
X99424805Y-98497965D01*
X99424805Y-98736060D01*
X98424805Y-97307488D02*
X98424805Y-97497965D01*
X98472425Y-97593203D01*
X98520044Y-97640822D01*
X98662901Y-97736060D01*
X98853377Y-97783679D01*
X99234329Y-97783679D01*
X99329567Y-97736060D01*
X99377186Y-97688441D01*
X99424805Y-97593203D01*
X99424805Y-97402726D01*
X99377186Y-97307488D01*
X99329567Y-97259869D01*
X99234329Y-97212250D01*
X98996234Y-97212250D01*
X98900996Y-97259869D01*
X98853377Y-97307488D01*
X98805758Y-97402726D01*
X98805758Y-97593203D01*
X98853377Y-97688441D01*
X98900996Y-97736060D01*
X98996234Y-97783679D01*
%TO.C,D5*%
X95683486Y-98047358D02*
X94683486Y-98047358D01*
X94683486Y-97809263D01*
X94731106Y-97666405D01*
X94826344Y-97571167D01*
X94921582Y-97523548D01*
X95112058Y-97475929D01*
X95254915Y-97475929D01*
X95445391Y-97523548D01*
X95540629Y-97571167D01*
X95635867Y-97666405D01*
X95683486Y-97809263D01*
X95683486Y-98047358D01*
X94683486Y-96571167D02*
X94683486Y-97047358D01*
X95159677Y-97094977D01*
X95112058Y-97047358D01*
X95064439Y-96952120D01*
X95064439Y-96714024D01*
X95112058Y-96618786D01*
X95159677Y-96571167D01*
X95254915Y-96523548D01*
X95493010Y-96523548D01*
X95588248Y-96571167D01*
X95635867Y-96618786D01*
X95683486Y-96714024D01*
X95683486Y-96952120D01*
X95635867Y-97047358D01*
X95588248Y-97094977D01*
%TO.C,D4*%
X92403346Y-96120582D02*
X91403346Y-96120582D01*
X91403346Y-95882487D01*
X91450966Y-95739629D01*
X91546204Y-95644391D01*
X91641442Y-95596772D01*
X91831918Y-95549153D01*
X91974775Y-95549153D01*
X92165251Y-95596772D01*
X92260489Y-95644391D01*
X92355727Y-95739629D01*
X92403346Y-95882487D01*
X92403346Y-96120582D01*
X91736680Y-94692010D02*
X92403346Y-94692010D01*
X91355727Y-94930106D02*
X92070013Y-95168201D01*
X92070013Y-94549153D01*
%TO.C,D3*%
X107211904Y-78812380D02*
X107211904Y-77812380D01*
X107450000Y-77812380D01*
X107592857Y-77860000D01*
X107688095Y-77955238D01*
X107735714Y-78050476D01*
X107783333Y-78240952D01*
X107783333Y-78383809D01*
X107735714Y-78574285D01*
X107688095Y-78669523D01*
X107592857Y-78764761D01*
X107450000Y-78812380D01*
X107211904Y-78812380D01*
X108116666Y-77812380D02*
X108735714Y-77812380D01*
X108402380Y-78193333D01*
X108545238Y-78193333D01*
X108640476Y-78240952D01*
X108688095Y-78288571D01*
X108735714Y-78383809D01*
X108735714Y-78621904D01*
X108688095Y-78717142D01*
X108640476Y-78764761D01*
X108545238Y-78812380D01*
X108259523Y-78812380D01*
X108164285Y-78764761D01*
X108116666Y-78717142D01*
%TO.C,D2*%
X100048836Y-86934032D02*
X100048836Y-85934032D01*
X100286932Y-85934032D01*
X100429789Y-85981652D01*
X100525027Y-86076890D01*
X100572646Y-86172128D01*
X100620265Y-86362604D01*
X100620265Y-86505461D01*
X100572646Y-86695937D01*
X100525027Y-86791175D01*
X100429789Y-86886413D01*
X100286932Y-86934032D01*
X100048836Y-86934032D01*
X101001217Y-86029271D02*
X101048836Y-85981652D01*
X101144074Y-85934032D01*
X101382170Y-85934032D01*
X101477408Y-85981652D01*
X101525027Y-86029271D01*
X101572646Y-86124509D01*
X101572646Y-86219747D01*
X101525027Y-86362604D01*
X100953598Y-86934032D01*
X101572646Y-86934032D01*
%TO.C,D1*%
X92556755Y-78812380D02*
X92556755Y-77812380D01*
X92794851Y-77812380D01*
X92937708Y-77860000D01*
X93032946Y-77955238D01*
X93080565Y-78050476D01*
X93128184Y-78240952D01*
X93128184Y-78383809D01*
X93080565Y-78574285D01*
X93032946Y-78669523D01*
X92937708Y-78764761D01*
X92794851Y-78812380D01*
X92556755Y-78812380D01*
X94080565Y-78812380D02*
X93509136Y-78812380D01*
X93794851Y-78812380D02*
X93794851Y-77812380D01*
X93699612Y-77955238D01*
X93604374Y-78050476D01*
X93509136Y-78098095D01*
%TO.C,U1*%
X107571411Y-71617608D02*
X108041739Y-71692100D01*
X107432650Y-71884906D02*
X107918314Y-70949362D01*
X108091109Y-71989196D01*
X108435675Y-71031304D02*
X109000068Y-71120695D01*
X108561437Y-72063688D02*
X108717871Y-71076000D01*
X109136054Y-71479722D02*
X109512316Y-71539316D01*
X109329297Y-71172840D02*
X109195211Y-72019430D01*
X109227345Y-72120945D01*
X109313961Y-72182876D01*
X109408027Y-72197775D01*
X109737256Y-72249920D02*
X109841546Y-71591461D01*
X109893691Y-71262231D02*
X109839209Y-71301815D01*
X109878792Y-71356297D01*
X109933274Y-71316713D01*
X109893691Y-71262231D01*
X109878792Y-71356297D01*
X110311874Y-71665953D02*
X110207584Y-72324412D01*
X110296975Y-71760019D02*
X110351457Y-71720435D01*
X110452972Y-71688301D01*
X110594070Y-71710649D01*
X110680687Y-71772580D01*
X110712821Y-71874095D01*
X110630879Y-72391456D01*
X111111431Y-71792591D02*
X111242305Y-72488296D01*
X111581759Y-71867083D02*
X111242305Y-72488296D01*
X111110993Y-72708561D01*
X111056511Y-72748145D01*
X110954996Y-72780279D01*
X112084221Y-72043091D02*
X111997604Y-71981159D01*
X111958021Y-71926677D01*
X111925887Y-71825163D01*
X111933336Y-71778130D01*
X111995267Y-71691514D01*
X112049749Y-71651930D01*
X112151264Y-71619796D01*
X112339395Y-71649593D01*
X112426011Y-71711524D01*
X112465595Y-71766006D01*
X112497729Y-71867521D01*
X112490280Y-71914554D01*
X112428349Y-72001170D01*
X112373867Y-72040754D01*
X112272352Y-72072888D01*
X112084221Y-72043091D01*
X111982706Y-72075225D01*
X111928224Y-72114809D01*
X111866293Y-72201425D01*
X111836496Y-72389556D01*
X111868630Y-72491071D01*
X111908213Y-72545553D01*
X111994830Y-72607484D01*
X112182961Y-72637281D01*
X112284476Y-72605147D01*
X112338958Y-72565563D01*
X112400889Y-72478947D01*
X112430686Y-72290816D01*
X112398552Y-72189301D01*
X112358968Y-72134819D01*
X112272352Y-72072888D01*
X113421149Y-71820926D02*
X112950821Y-71746433D01*
X112829296Y-72209312D01*
X112883778Y-72169728D01*
X112985293Y-72137594D01*
X113220457Y-72174840D01*
X113307073Y-72236772D01*
X113346656Y-72291254D01*
X113378791Y-72392768D01*
X113341544Y-72627932D01*
X113279613Y-72714549D01*
X113225131Y-72754132D01*
X113123616Y-72786266D01*
X112888452Y-72749020D01*
X112801836Y-72687089D01*
X112762253Y-72632607D01*
%TD*%
M02*
