%TF.GenerationSoftware,KiCad,Pcbnew,(5.1.6)-1*%
%TF.CreationDate,2021-01-16T18:50:24+01:00*%
%TF.ProjectId,Snowman_Earring,536e6f77-6d61-46e5-9f45-617272696e67,rev?*%
%TF.SameCoordinates,Original*%
%TF.FileFunction,Paste,Bot*%
%TF.FilePolarity,Positive*%
%FSLAX46Y46*%
G04 Gerber Fmt 4.6, Leading zero omitted, Abs format (unit mm)*
G04 Created by KiCad (PCBNEW (5.1.6)-1) date 2021-01-16 18:50:24*
%MOMM*%
%LPD*%
G01*
G04 APERTURE LIST*
%ADD10R,5.100000X5.100000*%
%ADD11R,0.900000X1.700000*%
G04 APERTURE END LIST*
%TO.C,R0*%
G36*
G01*
X94430000Y-75380001D02*
X94430000Y-74479999D01*
G75*
G02*
X94679999Y-74230000I249999J0D01*
G01*
X95330001Y-74230000D01*
G75*
G02*
X95580000Y-74479999I0J-249999D01*
G01*
X95580000Y-75380001D01*
G75*
G02*
X95330001Y-75630000I-249999J0D01*
G01*
X94679999Y-75630000D01*
G75*
G02*
X94430000Y-75380001I0J249999D01*
G01*
G37*
G36*
G01*
X92380000Y-75380001D02*
X92380000Y-74479999D01*
G75*
G02*
X92629999Y-74230000I249999J0D01*
G01*
X93280001Y-74230000D01*
G75*
G02*
X93530000Y-74479999I0J-249999D01*
G01*
X93530000Y-75380001D01*
G75*
G02*
X93280001Y-75630000I-249999J0D01*
G01*
X92629999Y-75630000D01*
G75*
G02*
X92380000Y-75380001I0J249999D01*
G01*
G37*
%TD*%
%TO.C,R8*%
G36*
G01*
X109425000Y-63950001D02*
X109425000Y-63049999D01*
G75*
G02*
X109674999Y-62800000I249999J0D01*
G01*
X110325001Y-62800000D01*
G75*
G02*
X110575000Y-63049999I0J-249999D01*
G01*
X110575000Y-63950001D01*
G75*
G02*
X110325001Y-64200000I-249999J0D01*
G01*
X109674999Y-64200000D01*
G75*
G02*
X109425000Y-63950001I0J249999D01*
G01*
G37*
G36*
G01*
X107375000Y-63950001D02*
X107375000Y-63049999D01*
G75*
G02*
X107624999Y-62800000I249999J0D01*
G01*
X108275001Y-62800000D01*
G75*
G02*
X108525000Y-63049999I0J-249999D01*
G01*
X108525000Y-63950001D01*
G75*
G02*
X108275001Y-64200000I-249999J0D01*
G01*
X107624999Y-64200000D01*
G75*
G02*
X107375000Y-63950001I0J249999D01*
G01*
G37*
%TD*%
%TO.C,R7*%
G36*
G01*
X109425000Y-66490001D02*
X109425000Y-65589999D01*
G75*
G02*
X109674999Y-65340000I249999J0D01*
G01*
X110325001Y-65340000D01*
G75*
G02*
X110575000Y-65589999I0J-249999D01*
G01*
X110575000Y-66490001D01*
G75*
G02*
X110325001Y-66740000I-249999J0D01*
G01*
X109674999Y-66740000D01*
G75*
G02*
X109425000Y-66490001I0J249999D01*
G01*
G37*
G36*
G01*
X107375000Y-66490001D02*
X107375000Y-65589999D01*
G75*
G02*
X107624999Y-65340000I249999J0D01*
G01*
X108275001Y-65340000D01*
G75*
G02*
X108525000Y-65589999I0J-249999D01*
G01*
X108525000Y-66490001D01*
G75*
G02*
X108275001Y-66740000I-249999J0D01*
G01*
X107624999Y-66740000D01*
G75*
G02*
X107375000Y-66490001I0J249999D01*
G01*
G37*
%TD*%
%TO.C,R6*%
G36*
G01*
X109425000Y-69030001D02*
X109425000Y-68129999D01*
G75*
G02*
X109674999Y-67880000I249999J0D01*
G01*
X110325001Y-67880000D01*
G75*
G02*
X110575000Y-68129999I0J-249999D01*
G01*
X110575000Y-69030001D01*
G75*
G02*
X110325001Y-69280000I-249999J0D01*
G01*
X109674999Y-69280000D01*
G75*
G02*
X109425000Y-69030001I0J249999D01*
G01*
G37*
G36*
G01*
X107375000Y-69030001D02*
X107375000Y-68129999D01*
G75*
G02*
X107624999Y-67880000I249999J0D01*
G01*
X108275001Y-67880000D01*
G75*
G02*
X108525000Y-68129999I0J-249999D01*
G01*
X108525000Y-69030001D01*
G75*
G02*
X108275001Y-69280000I-249999J0D01*
G01*
X107624999Y-69280000D01*
G75*
G02*
X107375000Y-69030001I0J249999D01*
G01*
G37*
%TD*%
%TO.C,R5*%
G36*
G01*
X109425000Y-71570001D02*
X109425000Y-70669999D01*
G75*
G02*
X109674999Y-70420000I249999J0D01*
G01*
X110325001Y-70420000D01*
G75*
G02*
X110575000Y-70669999I0J-249999D01*
G01*
X110575000Y-71570001D01*
G75*
G02*
X110325001Y-71820000I-249999J0D01*
G01*
X109674999Y-71820000D01*
G75*
G02*
X109425000Y-71570001I0J249999D01*
G01*
G37*
G36*
G01*
X107375000Y-71570001D02*
X107375000Y-70669999D01*
G75*
G02*
X107624999Y-70420000I249999J0D01*
G01*
X108275001Y-70420000D01*
G75*
G02*
X108525000Y-70669999I0J-249999D01*
G01*
X108525000Y-71570001D01*
G75*
G02*
X108275001Y-71820000I-249999J0D01*
G01*
X107624999Y-71820000D01*
G75*
G02*
X107375000Y-71570001I0J249999D01*
G01*
G37*
%TD*%
%TO.C,R4*%
G36*
G01*
X109425000Y-74110001D02*
X109425000Y-73209999D01*
G75*
G02*
X109674999Y-72960000I249999J0D01*
G01*
X110325001Y-72960000D01*
G75*
G02*
X110575000Y-73209999I0J-249999D01*
G01*
X110575000Y-74110001D01*
G75*
G02*
X110325001Y-74360000I-249999J0D01*
G01*
X109674999Y-74360000D01*
G75*
G02*
X109425000Y-74110001I0J249999D01*
G01*
G37*
G36*
G01*
X107375000Y-74110001D02*
X107375000Y-73209999D01*
G75*
G02*
X107624999Y-72960000I249999J0D01*
G01*
X108275001Y-72960000D01*
G75*
G02*
X108525000Y-73209999I0J-249999D01*
G01*
X108525000Y-74110001D01*
G75*
G02*
X108275001Y-74360000I-249999J0D01*
G01*
X107624999Y-74360000D01*
G75*
G02*
X107375000Y-74110001I0J249999D01*
G01*
G37*
%TD*%
%TO.C,R3*%
G36*
G01*
X103320000Y-69030001D02*
X103320000Y-68129999D01*
G75*
G02*
X103569999Y-67880000I249999J0D01*
G01*
X104220001Y-67880000D01*
G75*
G02*
X104470000Y-68129999I0J-249999D01*
G01*
X104470000Y-69030001D01*
G75*
G02*
X104220001Y-69280000I-249999J0D01*
G01*
X103569999Y-69280000D01*
G75*
G02*
X103320000Y-69030001I0J249999D01*
G01*
G37*
G36*
G01*
X101270000Y-69030001D02*
X101270000Y-68129999D01*
G75*
G02*
X101519999Y-67880000I249999J0D01*
G01*
X102170001Y-67880000D01*
G75*
G02*
X102420000Y-68129999I0J-249999D01*
G01*
X102420000Y-69030001D01*
G75*
G02*
X102170001Y-69280000I-249999J0D01*
G01*
X101519999Y-69280000D01*
G75*
G02*
X101270000Y-69030001I0J249999D01*
G01*
G37*
%TD*%
%TO.C,R2*%
G36*
G01*
X103320000Y-66490001D02*
X103320000Y-65589999D01*
G75*
G02*
X103569999Y-65340000I249999J0D01*
G01*
X104220001Y-65340000D01*
G75*
G02*
X104470000Y-65589999I0J-249999D01*
G01*
X104470000Y-66490001D01*
G75*
G02*
X104220001Y-66740000I-249999J0D01*
G01*
X103569999Y-66740000D01*
G75*
G02*
X103320000Y-66490001I0J249999D01*
G01*
G37*
G36*
G01*
X101270000Y-66490001D02*
X101270000Y-65589999D01*
G75*
G02*
X101519999Y-65340000I249999J0D01*
G01*
X102170001Y-65340000D01*
G75*
G02*
X102420000Y-65589999I0J-249999D01*
G01*
X102420000Y-66490001D01*
G75*
G02*
X102170001Y-66740000I-249999J0D01*
G01*
X101519999Y-66740000D01*
G75*
G02*
X101270000Y-66490001I0J249999D01*
G01*
G37*
%TD*%
%TO.C,R1*%
G36*
G01*
X103320000Y-63950001D02*
X103320000Y-63049999D01*
G75*
G02*
X103569999Y-62800000I249999J0D01*
G01*
X104220001Y-62800000D01*
G75*
G02*
X104470000Y-63049999I0J-249999D01*
G01*
X104470000Y-63950001D01*
G75*
G02*
X104220001Y-64200000I-249999J0D01*
G01*
X103569999Y-64200000D01*
G75*
G02*
X103320000Y-63950001I0J249999D01*
G01*
G37*
G36*
G01*
X101270000Y-63950001D02*
X101270000Y-63049999D01*
G75*
G02*
X101519999Y-62800000I249999J0D01*
G01*
X102170001Y-62800000D01*
G75*
G02*
X102420000Y-63049999I0J-249999D01*
G01*
X102420000Y-63950001D01*
G75*
G02*
X102170001Y-64200000I-249999J0D01*
G01*
X101519999Y-64200000D01*
G75*
G02*
X101270000Y-63950001I0J249999D01*
G01*
G37*
%TD*%
D10*
%TO.C,BT1*%
X113765001Y-90170000D03*
X88165001Y-90170000D03*
%TD*%
D11*
%TO.C,SW1*%
X99161649Y-74930000D03*
X102561649Y-74930000D03*
%TD*%
M02*
