%TF.GenerationSoftware,KiCad,Pcbnew,(5.1.6)-1*%
%TF.CreationDate,2021-01-16T18:50:24+01:00*%
%TF.ProjectId,Snowman_Earring,536e6f77-6d61-46e5-9f45-617272696e67,rev?*%
%TF.SameCoordinates,Original*%
%TF.FileFunction,Legend,Bot*%
%TF.FilePolarity,Positive*%
%FSLAX46Y46*%
G04 Gerber Fmt 4.6, Leading zero omitted, Abs format (unit mm)*
G04 Created by KiCad (PCBNEW (5.1.6)-1) date 2021-01-16 18:50:24*
%MOMM*%
%LPD*%
G01*
G04 APERTURE LIST*
%ADD10C,0.200000*%
%ADD11C,0.150000*%
%ADD12C,0.010000*%
%ADD13C,0.120000*%
G04 APERTURE END LIST*
D10*
X107270595Y-102045378D02*
X107127738Y-102092997D01*
X106889642Y-102092997D01*
X106794404Y-102045378D01*
X106746785Y-101997759D01*
X106699166Y-101902521D01*
X106699166Y-101807283D01*
X106746785Y-101712045D01*
X106794404Y-101664426D01*
X106889642Y-101616807D01*
X107080119Y-101569188D01*
X107175357Y-101521569D01*
X107222976Y-101473950D01*
X107270595Y-101378712D01*
X107270595Y-101283474D01*
X107222976Y-101188236D01*
X107175357Y-101140617D01*
X107080119Y-101092997D01*
X106842023Y-101092997D01*
X106699166Y-101140617D01*
X106270595Y-101426331D02*
X106270595Y-102092997D01*
X106270595Y-101521569D02*
X106222976Y-101473950D01*
X106127738Y-101426331D01*
X105984881Y-101426331D01*
X105889642Y-101473950D01*
X105842023Y-101569188D01*
X105842023Y-102092997D01*
X105222976Y-102092997D02*
X105318214Y-102045378D01*
X105365833Y-101997759D01*
X105413452Y-101902521D01*
X105413452Y-101616807D01*
X105365833Y-101521569D01*
X105318214Y-101473950D01*
X105222976Y-101426331D01*
X105080119Y-101426331D01*
X104984881Y-101473950D01*
X104937262Y-101521569D01*
X104889642Y-101616807D01*
X104889642Y-101902521D01*
X104937262Y-101997759D01*
X104984881Y-102045378D01*
X105080119Y-102092997D01*
X105222976Y-102092997D01*
X104556309Y-101426331D02*
X104365833Y-102092997D01*
X104175357Y-101616807D01*
X103984881Y-102092997D01*
X103794404Y-101426331D01*
X103413452Y-102092997D02*
X103413452Y-101426331D01*
X103413452Y-101521569D02*
X103365833Y-101473950D01*
X103270595Y-101426331D01*
X103127738Y-101426331D01*
X103032500Y-101473950D01*
X102984881Y-101569188D01*
X102984881Y-102092997D01*
X102984881Y-101569188D02*
X102937262Y-101473950D01*
X102842023Y-101426331D01*
X102699166Y-101426331D01*
X102603928Y-101473950D01*
X102556309Y-101569188D01*
X102556309Y-102092997D01*
X101651547Y-102092997D02*
X101651547Y-101569188D01*
X101699166Y-101473950D01*
X101794404Y-101426331D01*
X101984881Y-101426331D01*
X102080119Y-101473950D01*
X101651547Y-102045378D02*
X101746785Y-102092997D01*
X101984881Y-102092997D01*
X102080119Y-102045378D01*
X102127738Y-101950140D01*
X102127738Y-101854902D01*
X102080119Y-101759664D01*
X101984881Y-101712045D01*
X101746785Y-101712045D01*
X101651547Y-101664426D01*
X101175357Y-101426331D02*
X101175357Y-102092997D01*
X101175357Y-101521569D02*
X101127738Y-101473950D01*
X101032500Y-101426331D01*
X100889642Y-101426331D01*
X100794404Y-101473950D01*
X100746785Y-101569188D01*
X100746785Y-102092997D01*
X99508690Y-101569188D02*
X99175357Y-101569188D01*
X99032500Y-102092997D02*
X99508690Y-102092997D01*
X99508690Y-101092997D01*
X99032500Y-101092997D01*
X98175357Y-102092997D02*
X98175357Y-101569188D01*
X98222976Y-101473950D01*
X98318214Y-101426331D01*
X98508690Y-101426331D01*
X98603928Y-101473950D01*
X98175357Y-102045378D02*
X98270595Y-102092997D01*
X98508690Y-102092997D01*
X98603928Y-102045378D01*
X98651547Y-101950140D01*
X98651547Y-101854902D01*
X98603928Y-101759664D01*
X98508690Y-101712045D01*
X98270595Y-101712045D01*
X98175357Y-101664426D01*
X97699166Y-102092997D02*
X97699166Y-101426331D01*
X97699166Y-101616807D02*
X97651547Y-101521569D01*
X97603928Y-101473950D01*
X97508690Y-101426331D01*
X97413452Y-101426331D01*
X97080119Y-102092997D02*
X97080119Y-101426331D01*
X97080119Y-101616807D02*
X97032500Y-101521569D01*
X96984881Y-101473950D01*
X96889642Y-101426331D01*
X96794404Y-101426331D01*
X96461071Y-102092997D02*
X96461071Y-101426331D01*
X96461071Y-101092997D02*
X96508690Y-101140617D01*
X96461071Y-101188236D01*
X96413452Y-101140617D01*
X96461071Y-101092997D01*
X96461071Y-101188236D01*
X95984881Y-101426331D02*
X95984881Y-102092997D01*
X95984881Y-101521569D02*
X95937262Y-101473950D01*
X95842023Y-101426331D01*
X95699166Y-101426331D01*
X95603928Y-101473950D01*
X95556309Y-101569188D01*
X95556309Y-102092997D01*
X94651547Y-101426331D02*
X94651547Y-102235855D01*
X94699166Y-102331093D01*
X94746785Y-102378712D01*
X94842023Y-102426331D01*
X94984881Y-102426331D01*
X95080119Y-102378712D01*
X94651547Y-102045378D02*
X94746785Y-102092997D01*
X94937262Y-102092997D01*
X95032500Y-102045378D01*
X95080119Y-101997759D01*
X95127738Y-101902521D01*
X95127738Y-101616807D01*
X95080119Y-101521569D01*
X95032500Y-101473950D01*
X94937262Y-101426331D01*
X94746785Y-101426331D01*
X94651547Y-101473950D01*
X107842023Y-102888236D02*
X107794404Y-102840617D01*
X107699166Y-102792997D01*
X107461071Y-102792997D01*
X107365833Y-102840617D01*
X107318214Y-102888236D01*
X107270595Y-102983474D01*
X107270595Y-103078712D01*
X107318214Y-103221569D01*
X107889642Y-103792997D01*
X107270595Y-103792997D01*
X106651547Y-102792997D02*
X106556309Y-102792997D01*
X106461071Y-102840617D01*
X106413452Y-102888236D01*
X106365833Y-102983474D01*
X106318214Y-103173950D01*
X106318214Y-103412045D01*
X106365833Y-103602521D01*
X106413452Y-103697759D01*
X106461071Y-103745378D01*
X106556309Y-103792997D01*
X106651547Y-103792997D01*
X106746785Y-103745378D01*
X106794404Y-103697759D01*
X106842023Y-103602521D01*
X106889642Y-103412045D01*
X106889642Y-103173950D01*
X106842023Y-102983474D01*
X106794404Y-102888236D01*
X106746785Y-102840617D01*
X106651547Y-102792997D01*
X105937262Y-102888236D02*
X105889642Y-102840617D01*
X105794404Y-102792997D01*
X105556309Y-102792997D01*
X105461071Y-102840617D01*
X105413452Y-102888236D01*
X105365833Y-102983474D01*
X105365833Y-103078712D01*
X105413452Y-103221569D01*
X105984881Y-103792997D01*
X105365833Y-103792997D01*
X104413452Y-103792997D02*
X104984881Y-103792997D01*
X104699166Y-103792997D02*
X104699166Y-102792997D01*
X104794404Y-102935855D01*
X104889642Y-103031093D01*
X104984881Y-103078712D01*
X103270595Y-102745378D02*
X104127738Y-104031093D01*
X102746785Y-102792997D02*
X102651547Y-102792997D01*
X102556309Y-102840617D01*
X102508690Y-102888236D01*
X102461071Y-102983474D01*
X102413452Y-103173950D01*
X102413452Y-103412045D01*
X102461071Y-103602521D01*
X102508690Y-103697759D01*
X102556309Y-103745378D01*
X102651547Y-103792997D01*
X102746785Y-103792997D01*
X102842023Y-103745378D01*
X102889642Y-103697759D01*
X102937262Y-103602521D01*
X102984881Y-103412045D01*
X102984881Y-103173950D01*
X102937262Y-102983474D01*
X102889642Y-102888236D01*
X102842023Y-102840617D01*
X102746785Y-102792997D01*
X101461071Y-103792997D02*
X102032500Y-103792997D01*
X101746785Y-103792997D02*
X101746785Y-102792997D01*
X101842023Y-102935855D01*
X101937262Y-103031093D01*
X102032500Y-103078712D01*
X100318214Y-102745378D02*
X101175357Y-104031093D01*
X99461071Y-103792997D02*
X100032500Y-103792997D01*
X99746785Y-103792997D02*
X99746785Y-102792997D01*
X99842023Y-102935855D01*
X99937262Y-103031093D01*
X100032500Y-103078712D01*
X98603928Y-102792997D02*
X98794404Y-102792997D01*
X98889642Y-102840617D01*
X98937262Y-102888236D01*
X99032500Y-103031093D01*
X99080119Y-103221569D01*
X99080119Y-103602521D01*
X99032500Y-103697759D01*
X98984881Y-103745378D01*
X98889642Y-103792997D01*
X98699166Y-103792997D01*
X98603928Y-103745378D01*
X98556309Y-103697759D01*
X98508690Y-103602521D01*
X98508690Y-103364426D01*
X98556309Y-103269188D01*
X98603928Y-103221569D01*
X98699166Y-103173950D01*
X98889642Y-103173950D01*
X98984881Y-103221569D01*
X99032500Y-103269188D01*
X99080119Y-103364426D01*
X97318214Y-103412045D02*
X96556309Y-103412045D01*
X95413452Y-103126331D02*
X95175357Y-103792997D01*
X94937262Y-103126331D01*
X94032500Y-103792997D02*
X94603928Y-103792997D01*
X94318214Y-103792997D02*
X94318214Y-102792997D01*
X94413452Y-102935855D01*
X94508690Y-103031093D01*
X94603928Y-103078712D01*
D11*
X100884109Y-63584949D02*
X100093958Y-63459801D01*
X100616636Y-63812576D01*
X100010527Y-63986568D01*
X100800677Y-64111716D01*
X100741083Y-64487978D02*
X99950933Y-64362830D01*
X100649822Y-64820654D02*
X100669570Y-64939493D01*
X100639773Y-65127624D01*
X100590228Y-65196917D01*
X100546643Y-65228584D01*
X100465431Y-65254291D01*
X100390178Y-65242372D01*
X100320885Y-65192827D01*
X100289219Y-65149241D01*
X100263511Y-65068030D01*
X100249723Y-64911565D01*
X100224015Y-64830353D01*
X100192348Y-64786768D01*
X100123055Y-64737223D01*
X100047803Y-64725304D01*
X99966591Y-64751011D01*
X99923005Y-64782678D01*
X99873460Y-64851971D01*
X99843663Y-65040102D01*
X99863411Y-65158940D01*
X99748313Y-65642122D02*
X99724475Y-65792627D01*
X99750183Y-65873839D01*
X99813516Y-65961010D01*
X99958062Y-66022474D01*
X100221445Y-66064190D01*
X100377909Y-66050401D01*
X100465081Y-65987067D01*
X100514626Y-65917774D01*
X100538463Y-65767269D01*
X100512756Y-65686058D01*
X100449422Y-65598886D01*
X100304877Y-65537422D01*
X100041493Y-65495707D01*
X99885029Y-65509495D01*
X99797858Y-65572829D01*
X99748313Y-65642122D01*
X100273789Y-66550920D02*
X100293537Y-66669759D01*
X100263740Y-66857890D01*
X100214195Y-66927183D01*
X100170610Y-66958850D01*
X100089398Y-66984557D01*
X100014145Y-66972638D01*
X99944852Y-66923093D01*
X99913186Y-66879507D01*
X99887478Y-66798296D01*
X99873690Y-66641831D01*
X99847982Y-66560619D01*
X99816315Y-66517034D01*
X99747022Y-66467489D01*
X99671770Y-66455570D01*
X99590558Y-66481277D01*
X99546972Y-66512944D01*
X99497427Y-66582237D01*
X99467630Y-66770368D01*
X99487378Y-66889206D01*
X100039503Y-67786626D02*
X100083088Y-67754960D01*
X100138593Y-67648040D01*
X100150512Y-67572788D01*
X100130764Y-67453950D01*
X100067430Y-67366779D01*
X99998137Y-67317234D01*
X99853591Y-67255770D01*
X99740713Y-67237891D01*
X99584249Y-67251680D01*
X99503037Y-67277387D01*
X99415865Y-67340721D01*
X99360361Y-67447640D01*
X99348442Y-67522893D01*
X99368190Y-67641731D01*
X99399857Y-67685316D01*
X100061120Y-68137181D02*
X99270970Y-68012034D01*
X99989608Y-68588696D02*
X99591728Y-68178547D01*
X99199457Y-68463548D02*
X99722484Y-68083547D01*
X99759608Y-69585271D02*
X99425061Y-69262294D01*
X99831121Y-69133757D02*
X99040970Y-69008609D01*
X98993295Y-69309619D01*
X99019002Y-69390831D01*
X99050669Y-69434416D01*
X99119962Y-69483961D01*
X99232841Y-69501840D01*
X99314053Y-69476132D01*
X99357638Y-69444465D01*
X99407183Y-69375172D01*
X99454858Y-69074163D01*
X99674306Y-69880322D02*
X99694054Y-69999160D01*
X99664257Y-70187291D01*
X99614712Y-70256584D01*
X99571127Y-70288251D01*
X99489915Y-70313958D01*
X99414662Y-70302039D01*
X99345369Y-70252494D01*
X99313702Y-70208909D01*
X99287995Y-70127697D01*
X99274206Y-69971232D01*
X99248499Y-69890021D01*
X99216832Y-69846435D01*
X99147539Y-69796890D01*
X99072287Y-69784971D01*
X98991075Y-69810679D01*
X98947489Y-69842345D01*
X98897944Y-69911638D01*
X98868147Y-70099770D01*
X98887895Y-70218608D01*
X98814513Y-70438406D02*
X98743000Y-70889920D01*
X99568907Y-70789310D02*
X98778756Y-70664163D01*
X92540105Y-69525059D02*
X92565813Y-69606271D01*
X92547934Y-69719149D01*
X92492430Y-69826069D01*
X92405259Y-69889402D01*
X92324047Y-69915110D01*
X92167583Y-69928898D01*
X92054704Y-69911020D01*
X91910158Y-69849556D01*
X91840865Y-69800011D01*
X91777532Y-69712840D01*
X91757784Y-69594002D01*
X91769703Y-69518749D01*
X91825207Y-69411830D01*
X91868793Y-69380163D01*
X92132176Y-69421879D01*
X92108339Y-69572384D01*
X91847175Y-69029608D02*
X92637326Y-69154756D01*
X91918688Y-68578094D01*
X92708839Y-68703241D01*
X91978282Y-68201832D02*
X92768433Y-68326979D01*
X92798230Y-68138848D01*
X92778482Y-68020010D01*
X92715148Y-67932839D01*
X92645855Y-67883294D01*
X92501309Y-67821830D01*
X92388431Y-67803952D01*
X92231967Y-67817740D01*
X92150755Y-67843448D01*
X92063583Y-67906781D01*
X92008079Y-68013700D01*
X91978282Y-68201832D01*
X92410791Y-67225050D02*
X93200942Y-67350198D01*
X92678264Y-66997423D01*
X93284373Y-66823431D01*
X92494223Y-66698283D01*
X93367805Y-66296664D02*
X93391643Y-66146159D01*
X93365935Y-66064947D01*
X93302602Y-65977776D01*
X93158056Y-65916312D01*
X92894673Y-65874596D01*
X92738208Y-65888385D01*
X92651037Y-65951718D01*
X92601492Y-66021011D01*
X92577654Y-66171516D01*
X92603362Y-66252728D01*
X92666695Y-66339899D01*
X92811241Y-66401363D01*
X93074624Y-66443079D01*
X93231089Y-66429290D01*
X93318260Y-66365957D01*
X93367805Y-66296664D01*
X92716591Y-65537830D02*
X92696843Y-65418992D01*
X92726640Y-65230861D01*
X92776185Y-65161568D01*
X92819770Y-65129901D01*
X92900982Y-65104193D01*
X92976235Y-65116112D01*
X93045528Y-65165657D01*
X93077194Y-65209243D01*
X93102902Y-65290455D01*
X93116690Y-65446919D01*
X93142398Y-65528131D01*
X93174065Y-65571717D01*
X93243358Y-65621262D01*
X93318610Y-65633180D01*
X93399822Y-65607473D01*
X93443408Y-65575806D01*
X93492953Y-65506513D01*
X93522750Y-65318382D01*
X93503002Y-65199544D01*
X92804112Y-64741720D02*
X93594263Y-64866867D01*
D12*
%TO.C,G\u002A\u002A\u002A*%
G36*
X107989627Y-77465590D02*
G01*
X107994097Y-79965903D01*
X110494410Y-79970373D01*
X112994722Y-79974843D01*
X112994722Y-77787500D01*
X111839375Y-77787500D01*
X111839123Y-77910836D01*
X111838066Y-78004224D01*
X111835751Y-78072992D01*
X111831728Y-78122466D01*
X111825545Y-78157976D01*
X111816751Y-78184849D01*
X111804893Y-78208412D01*
X111803497Y-78210833D01*
X111745520Y-78278420D01*
X111670148Y-78319305D01*
X111585429Y-78331226D01*
X111499408Y-78311924D01*
X111478866Y-78302074D01*
X111440560Y-78279217D01*
X111410917Y-78253709D01*
X111388915Y-78221003D01*
X111373534Y-78176551D01*
X111363754Y-78115804D01*
X111358552Y-78034213D01*
X111356910Y-77927230D01*
X111357806Y-77790307D01*
X111358133Y-77764062D01*
X111361945Y-77470000D01*
X111142224Y-77470000D01*
X111142188Y-77642336D01*
X111141770Y-77783013D01*
X111140818Y-77895649D01*
X111139180Y-77983861D01*
X111136704Y-78051268D01*
X111133236Y-78101487D01*
X111128624Y-78138137D01*
X111122715Y-78164835D01*
X111115358Y-78185199D01*
X111111744Y-78192843D01*
X111061010Y-78260772D01*
X110991383Y-78310015D01*
X110913878Y-78333358D01*
X110895695Y-78334305D01*
X110827648Y-78321764D01*
X110770421Y-78294266D01*
X110740923Y-78273938D01*
X110716627Y-78253760D01*
X110697029Y-78230273D01*
X110681625Y-78200018D01*
X110669908Y-78159537D01*
X110661374Y-78105369D01*
X110655519Y-78034056D01*
X110651837Y-77942138D01*
X110649823Y-77826158D01*
X110648973Y-77682654D01*
X110648782Y-77508169D01*
X110648778Y-77460905D01*
X110648874Y-77288188D01*
X110649288Y-77147138D01*
X110650179Y-77034146D01*
X110650486Y-77016365D01*
X110437018Y-77016365D01*
X110435289Y-77138465D01*
X110429014Y-77231013D01*
X110416671Y-77299606D01*
X110396739Y-77349838D01*
X110367695Y-77387306D01*
X110328019Y-77417605D01*
X110327902Y-77417679D01*
X110252583Y-77446288D01*
X110168351Y-77449238D01*
X110087851Y-77427702D01*
X110030887Y-77390144D01*
X109995283Y-77348648D01*
X109970341Y-77299182D01*
X109954443Y-77235072D01*
X109945969Y-77149644D01*
X109943303Y-77036224D01*
X109943293Y-77028911D01*
X109945513Y-76915106D01*
X109953383Y-76829413D01*
X109968509Y-76764899D01*
X109976557Y-76748033D01*
X109731528Y-76748033D01*
X109731462Y-77457384D01*
X109731356Y-77635153D01*
X109730976Y-77781101D01*
X109730172Y-77898686D01*
X109728793Y-77991364D01*
X109726692Y-78062593D01*
X109723718Y-78115830D01*
X109719721Y-78154533D01*
X109714553Y-78182157D01*
X109708064Y-78202160D01*
X109700104Y-78218000D01*
X109698451Y-78220761D01*
X109641121Y-78283390D01*
X109565912Y-78320732D01*
X109481670Y-78330531D01*
X109397242Y-78310529D01*
X109379838Y-78302074D01*
X109349952Y-78285423D01*
X109325275Y-78268264D01*
X109305308Y-78247244D01*
X109289552Y-78219012D01*
X109277509Y-78180216D01*
X109268680Y-78127503D01*
X109262566Y-78057523D01*
X109258668Y-77966922D01*
X109256488Y-77852349D01*
X109255526Y-77710453D01*
X109255285Y-77537881D01*
X109255278Y-77464989D01*
X109255502Y-77283795D01*
X109256244Y-77134719D01*
X109257610Y-77014607D01*
X109259707Y-76920301D01*
X109262641Y-76848646D01*
X109266518Y-76796485D01*
X109271444Y-76760662D01*
X109277526Y-76738020D01*
X109279931Y-76732659D01*
X109335043Y-76659392D01*
X109405855Y-76614021D01*
X109485460Y-76597358D01*
X109566951Y-76610216D01*
X109643422Y-76653408D01*
X109677000Y-76685929D01*
X109731528Y-76748033D01*
X109976557Y-76748033D01*
X109992498Y-76714632D01*
X110025792Y-76672886D01*
X110098689Y-76618724D01*
X110179717Y-76598736D01*
X110266767Y-76613339D01*
X110286887Y-76621398D01*
X110340776Y-76649140D01*
X110380208Y-76681464D01*
X110407356Y-76724086D01*
X110424392Y-76782718D01*
X110433487Y-76863077D01*
X110436814Y-76970875D01*
X110437018Y-77016365D01*
X110650486Y-77016365D01*
X110651712Y-76945601D01*
X110654047Y-76877892D01*
X110657346Y-76827411D01*
X110661771Y-76790547D01*
X110667485Y-76763690D01*
X110674649Y-76743229D01*
X110681613Y-76728891D01*
X110735031Y-76661108D01*
X110804226Y-76618649D01*
X110881702Y-76601409D01*
X110959967Y-76609287D01*
X111031525Y-76642179D01*
X111088882Y-76699983D01*
X111108360Y-76734746D01*
X111117042Y-76756001D01*
X111124093Y-76780149D01*
X111129682Y-76810900D01*
X111133980Y-76851965D01*
X111137160Y-76907054D01*
X111139391Y-76979878D01*
X111140844Y-77074149D01*
X111141691Y-77193576D01*
X111142102Y-77341871D01*
X111142224Y-77470000D01*
X111361945Y-77470000D01*
X111363125Y-77379028D01*
X111427849Y-77319746D01*
X111504749Y-77265895D01*
X111582196Y-77246540D01*
X111663894Y-77261039D01*
X111693660Y-77273743D01*
X111738771Y-77297560D01*
X111773501Y-77323042D01*
X111799197Y-77354945D01*
X111817208Y-77398022D01*
X111828883Y-77457029D01*
X111835569Y-77536719D01*
X111838617Y-77641848D01*
X111839373Y-77777168D01*
X111839375Y-77787500D01*
X112994722Y-77787500D01*
X112994722Y-76828745D01*
X111833654Y-76828745D01*
X111819844Y-76919252D01*
X111779710Y-76993140D01*
X111719237Y-77046683D01*
X111644412Y-77076153D01*
X111561220Y-77077821D01*
X111478866Y-77049713D01*
X111411602Y-76996874D01*
X111371205Y-76929903D01*
X111355983Y-76855382D01*
X111364246Y-76779891D01*
X111394300Y-76710011D01*
X111444456Y-76652322D01*
X111513022Y-76613406D01*
X111594497Y-76599815D01*
X111679685Y-76615621D01*
X111751998Y-76658837D01*
X111804853Y-76723160D01*
X111831662Y-76802286D01*
X111833654Y-76828745D01*
X112994722Y-76828745D01*
X112994722Y-74965278D01*
X107985157Y-74965278D01*
X107989627Y-77465590D01*
G37*
X107989627Y-77465590D02*
X107994097Y-79965903D01*
X110494410Y-79970373D01*
X112994722Y-79974843D01*
X112994722Y-77787500D01*
X111839375Y-77787500D01*
X111839123Y-77910836D01*
X111838066Y-78004224D01*
X111835751Y-78072992D01*
X111831728Y-78122466D01*
X111825545Y-78157976D01*
X111816751Y-78184849D01*
X111804893Y-78208412D01*
X111803497Y-78210833D01*
X111745520Y-78278420D01*
X111670148Y-78319305D01*
X111585429Y-78331226D01*
X111499408Y-78311924D01*
X111478866Y-78302074D01*
X111440560Y-78279217D01*
X111410917Y-78253709D01*
X111388915Y-78221003D01*
X111373534Y-78176551D01*
X111363754Y-78115804D01*
X111358552Y-78034213D01*
X111356910Y-77927230D01*
X111357806Y-77790307D01*
X111358133Y-77764062D01*
X111361945Y-77470000D01*
X111142224Y-77470000D01*
X111142188Y-77642336D01*
X111141770Y-77783013D01*
X111140818Y-77895649D01*
X111139180Y-77983861D01*
X111136704Y-78051268D01*
X111133236Y-78101487D01*
X111128624Y-78138137D01*
X111122715Y-78164835D01*
X111115358Y-78185199D01*
X111111744Y-78192843D01*
X111061010Y-78260772D01*
X110991383Y-78310015D01*
X110913878Y-78333358D01*
X110895695Y-78334305D01*
X110827648Y-78321764D01*
X110770421Y-78294266D01*
X110740923Y-78273938D01*
X110716627Y-78253760D01*
X110697029Y-78230273D01*
X110681625Y-78200018D01*
X110669908Y-78159537D01*
X110661374Y-78105369D01*
X110655519Y-78034056D01*
X110651837Y-77942138D01*
X110649823Y-77826158D01*
X110648973Y-77682654D01*
X110648782Y-77508169D01*
X110648778Y-77460905D01*
X110648874Y-77288188D01*
X110649288Y-77147138D01*
X110650179Y-77034146D01*
X110650486Y-77016365D01*
X110437018Y-77016365D01*
X110435289Y-77138465D01*
X110429014Y-77231013D01*
X110416671Y-77299606D01*
X110396739Y-77349838D01*
X110367695Y-77387306D01*
X110328019Y-77417605D01*
X110327902Y-77417679D01*
X110252583Y-77446288D01*
X110168351Y-77449238D01*
X110087851Y-77427702D01*
X110030887Y-77390144D01*
X109995283Y-77348648D01*
X109970341Y-77299182D01*
X109954443Y-77235072D01*
X109945969Y-77149644D01*
X109943303Y-77036224D01*
X109943293Y-77028911D01*
X109945513Y-76915106D01*
X109953383Y-76829413D01*
X109968509Y-76764899D01*
X109976557Y-76748033D01*
X109731528Y-76748033D01*
X109731462Y-77457384D01*
X109731356Y-77635153D01*
X109730976Y-77781101D01*
X109730172Y-77898686D01*
X109728793Y-77991364D01*
X109726692Y-78062593D01*
X109723718Y-78115830D01*
X109719721Y-78154533D01*
X109714553Y-78182157D01*
X109708064Y-78202160D01*
X109700104Y-78218000D01*
X109698451Y-78220761D01*
X109641121Y-78283390D01*
X109565912Y-78320732D01*
X109481670Y-78330531D01*
X109397242Y-78310529D01*
X109379838Y-78302074D01*
X109349952Y-78285423D01*
X109325275Y-78268264D01*
X109305308Y-78247244D01*
X109289552Y-78219012D01*
X109277509Y-78180216D01*
X109268680Y-78127503D01*
X109262566Y-78057523D01*
X109258668Y-77966922D01*
X109256488Y-77852349D01*
X109255526Y-77710453D01*
X109255285Y-77537881D01*
X109255278Y-77464989D01*
X109255502Y-77283795D01*
X109256244Y-77134719D01*
X109257610Y-77014607D01*
X109259707Y-76920301D01*
X109262641Y-76848646D01*
X109266518Y-76796485D01*
X109271444Y-76760662D01*
X109277526Y-76738020D01*
X109279931Y-76732659D01*
X109335043Y-76659392D01*
X109405855Y-76614021D01*
X109485460Y-76597358D01*
X109566951Y-76610216D01*
X109643422Y-76653408D01*
X109677000Y-76685929D01*
X109731528Y-76748033D01*
X109976557Y-76748033D01*
X109992498Y-76714632D01*
X110025792Y-76672886D01*
X110098689Y-76618724D01*
X110179717Y-76598736D01*
X110266767Y-76613339D01*
X110286887Y-76621398D01*
X110340776Y-76649140D01*
X110380208Y-76681464D01*
X110407356Y-76724086D01*
X110424392Y-76782718D01*
X110433487Y-76863077D01*
X110436814Y-76970875D01*
X110437018Y-77016365D01*
X110650486Y-77016365D01*
X110651712Y-76945601D01*
X110654047Y-76877892D01*
X110657346Y-76827411D01*
X110661771Y-76790547D01*
X110667485Y-76763690D01*
X110674649Y-76743229D01*
X110681613Y-76728891D01*
X110735031Y-76661108D01*
X110804226Y-76618649D01*
X110881702Y-76601409D01*
X110959967Y-76609287D01*
X111031525Y-76642179D01*
X111088882Y-76699983D01*
X111108360Y-76734746D01*
X111117042Y-76756001D01*
X111124093Y-76780149D01*
X111129682Y-76810900D01*
X111133980Y-76851965D01*
X111137160Y-76907054D01*
X111139391Y-76979878D01*
X111140844Y-77074149D01*
X111141691Y-77193576D01*
X111142102Y-77341871D01*
X111142224Y-77470000D01*
X111361945Y-77470000D01*
X111363125Y-77379028D01*
X111427849Y-77319746D01*
X111504749Y-77265895D01*
X111582196Y-77246540D01*
X111663894Y-77261039D01*
X111693660Y-77273743D01*
X111738771Y-77297560D01*
X111773501Y-77323042D01*
X111799197Y-77354945D01*
X111817208Y-77398022D01*
X111828883Y-77457029D01*
X111835569Y-77536719D01*
X111838617Y-77641848D01*
X111839373Y-77777168D01*
X111839375Y-77787500D01*
X112994722Y-77787500D01*
X112994722Y-76828745D01*
X111833654Y-76828745D01*
X111819844Y-76919252D01*
X111779710Y-76993140D01*
X111719237Y-77046683D01*
X111644412Y-77076153D01*
X111561220Y-77077821D01*
X111478866Y-77049713D01*
X111411602Y-76996874D01*
X111371205Y-76929903D01*
X111355983Y-76855382D01*
X111364246Y-76779891D01*
X111394300Y-76710011D01*
X111444456Y-76652322D01*
X111513022Y-76613406D01*
X111594497Y-76599815D01*
X111679685Y-76615621D01*
X111751998Y-76658837D01*
X111804853Y-76723160D01*
X111831662Y-76802286D01*
X111833654Y-76828745D01*
X112994722Y-76828745D01*
X112994722Y-74965278D01*
X107985157Y-74965278D01*
X107989627Y-77465590D01*
D13*
%TO.C,R0*%
X93718748Y-75640000D02*
X94241252Y-75640000D01*
X93718748Y-74220000D02*
X94241252Y-74220000D01*
%TO.C,R8*%
X108713748Y-64210000D02*
X109236252Y-64210000D01*
X108713748Y-62790000D02*
X109236252Y-62790000D01*
%TO.C,R7*%
X108713748Y-66750000D02*
X109236252Y-66750000D01*
X108713748Y-65330000D02*
X109236252Y-65330000D01*
%TO.C,R6*%
X108713748Y-69290000D02*
X109236252Y-69290000D01*
X108713748Y-67870000D02*
X109236252Y-67870000D01*
%TO.C,R5*%
X108713748Y-71830000D02*
X109236252Y-71830000D01*
X108713748Y-70410000D02*
X109236252Y-70410000D01*
%TO.C,R4*%
X108713748Y-74370000D02*
X109236252Y-74370000D01*
X108713748Y-72950000D02*
X109236252Y-72950000D01*
%TO.C,R3*%
X102608748Y-69290000D02*
X103131252Y-69290000D01*
X102608748Y-67870000D02*
X103131252Y-67870000D01*
%TO.C,R2*%
X102608748Y-66750000D02*
X103131252Y-66750000D01*
X102608748Y-65330000D02*
X103131252Y-65330000D01*
%TO.C,R1*%
X102608748Y-64210000D02*
X103131252Y-64210000D01*
X102608748Y-62790000D02*
X103131252Y-62790000D01*
%TO.C,BT1*%
X90165001Y-84120000D02*
X97015001Y-79320000D01*
X97015001Y-79320000D02*
X104915001Y-79320000D01*
X104915001Y-79320000D02*
X111715001Y-84120000D01*
X90415001Y-99670000D02*
X97115001Y-99670000D01*
X111515001Y-99670000D02*
X104815001Y-99670000D01*
X90215001Y-92920000D02*
X85415001Y-92920000D01*
X85415001Y-92920000D02*
X85415001Y-87420000D01*
X85415001Y-87420000D02*
X90215001Y-87420000D01*
X111715001Y-87420000D02*
X116515001Y-87420000D01*
X116515001Y-87420000D02*
X116515001Y-92920000D01*
X116515001Y-92920000D02*
X111715001Y-92920000D01*
X97118616Y-99671464D02*
G75*
G03*
X104815001Y-99670000I3846385J9501464D01*
G01*
%TO.C,J1*%
X99311683Y-63664432D02*
X97998058Y-63456375D01*
X99103625Y-64978058D02*
X99311683Y-63664432D01*
X96743694Y-63257703D02*
X94175704Y-62850973D01*
X96336964Y-65825692D02*
X96743694Y-63257703D01*
X98904954Y-66232422D02*
X96336964Y-65825692D01*
X94175704Y-62850973D02*
X92964901Y-70495681D01*
X98904954Y-66232422D02*
X98100881Y-71309140D01*
X98100881Y-71309140D02*
X92964901Y-70495681D01*
%TO.C,SW1*%
X102511649Y-76330000D02*
X102511649Y-76030000D01*
X99211649Y-76330000D02*
X102511649Y-76330000D01*
X99211649Y-76030000D02*
X99211649Y-76330000D01*
X102511649Y-73530000D02*
X102511649Y-73830000D01*
X99211649Y-73530000D02*
X102511649Y-73530000D01*
X99211649Y-73830000D02*
X99211649Y-73530000D01*
%TO.C,R0*%
D11*
X94146666Y-77032380D02*
X94480000Y-76556190D01*
X94718095Y-77032380D02*
X94718095Y-76032380D01*
X94337142Y-76032380D01*
X94241904Y-76080000D01*
X94194285Y-76127619D01*
X94146666Y-76222857D01*
X94146666Y-76365714D01*
X94194285Y-76460952D01*
X94241904Y-76508571D01*
X94337142Y-76556190D01*
X94718095Y-76556190D01*
X93527619Y-76032380D02*
X93432380Y-76032380D01*
X93337142Y-76080000D01*
X93289523Y-76127619D01*
X93241904Y-76222857D01*
X93194285Y-76413333D01*
X93194285Y-76651428D01*
X93241904Y-76841904D01*
X93289523Y-76937142D01*
X93337142Y-76984761D01*
X93432380Y-77032380D01*
X93527619Y-77032380D01*
X93622857Y-76984761D01*
X93670476Y-76937142D01*
X93718095Y-76841904D01*
X93765714Y-76651428D01*
X93765714Y-76413333D01*
X93718095Y-76222857D01*
X93670476Y-76127619D01*
X93622857Y-76080000D01*
X93527619Y-76032380D01*
%TO.C,R8*%
X109141666Y-65602380D02*
X109475000Y-65126190D01*
X109713095Y-65602380D02*
X109713095Y-64602380D01*
X109332142Y-64602380D01*
X109236904Y-64650000D01*
X109189285Y-64697619D01*
X109141666Y-64792857D01*
X109141666Y-64935714D01*
X109189285Y-65030952D01*
X109236904Y-65078571D01*
X109332142Y-65126190D01*
X109713095Y-65126190D01*
X108570238Y-65030952D02*
X108665476Y-64983333D01*
X108713095Y-64935714D01*
X108760714Y-64840476D01*
X108760714Y-64792857D01*
X108713095Y-64697619D01*
X108665476Y-64650000D01*
X108570238Y-64602380D01*
X108379761Y-64602380D01*
X108284523Y-64650000D01*
X108236904Y-64697619D01*
X108189285Y-64792857D01*
X108189285Y-64840476D01*
X108236904Y-64935714D01*
X108284523Y-64983333D01*
X108379761Y-65030952D01*
X108570238Y-65030952D01*
X108665476Y-65078571D01*
X108713095Y-65126190D01*
X108760714Y-65221428D01*
X108760714Y-65411904D01*
X108713095Y-65507142D01*
X108665476Y-65554761D01*
X108570238Y-65602380D01*
X108379761Y-65602380D01*
X108284523Y-65554761D01*
X108236904Y-65507142D01*
X108189285Y-65411904D01*
X108189285Y-65221428D01*
X108236904Y-65126190D01*
X108284523Y-65078571D01*
X108379761Y-65030952D01*
%TO.C,R7*%
X109141666Y-68142380D02*
X109475000Y-67666190D01*
X109713095Y-68142380D02*
X109713095Y-67142380D01*
X109332142Y-67142380D01*
X109236904Y-67190000D01*
X109189285Y-67237619D01*
X109141666Y-67332857D01*
X109141666Y-67475714D01*
X109189285Y-67570952D01*
X109236904Y-67618571D01*
X109332142Y-67666190D01*
X109713095Y-67666190D01*
X108808333Y-67142380D02*
X108141666Y-67142380D01*
X108570238Y-68142380D01*
%TO.C,R6*%
X109141666Y-70682380D02*
X109475000Y-70206190D01*
X109713095Y-70682380D02*
X109713095Y-69682380D01*
X109332142Y-69682380D01*
X109236904Y-69730000D01*
X109189285Y-69777619D01*
X109141666Y-69872857D01*
X109141666Y-70015714D01*
X109189285Y-70110952D01*
X109236904Y-70158571D01*
X109332142Y-70206190D01*
X109713095Y-70206190D01*
X108284523Y-69682380D02*
X108475000Y-69682380D01*
X108570238Y-69730000D01*
X108617857Y-69777619D01*
X108713095Y-69920476D01*
X108760714Y-70110952D01*
X108760714Y-70491904D01*
X108713095Y-70587142D01*
X108665476Y-70634761D01*
X108570238Y-70682380D01*
X108379761Y-70682380D01*
X108284523Y-70634761D01*
X108236904Y-70587142D01*
X108189285Y-70491904D01*
X108189285Y-70253809D01*
X108236904Y-70158571D01*
X108284523Y-70110952D01*
X108379761Y-70063333D01*
X108570238Y-70063333D01*
X108665476Y-70110952D01*
X108713095Y-70158571D01*
X108760714Y-70253809D01*
%TO.C,R5*%
X109141666Y-73222380D02*
X109475000Y-72746190D01*
X109713095Y-73222380D02*
X109713095Y-72222380D01*
X109332142Y-72222380D01*
X109236904Y-72270000D01*
X109189285Y-72317619D01*
X109141666Y-72412857D01*
X109141666Y-72555714D01*
X109189285Y-72650952D01*
X109236904Y-72698571D01*
X109332142Y-72746190D01*
X109713095Y-72746190D01*
X108236904Y-72222380D02*
X108713095Y-72222380D01*
X108760714Y-72698571D01*
X108713095Y-72650952D01*
X108617857Y-72603333D01*
X108379761Y-72603333D01*
X108284523Y-72650952D01*
X108236904Y-72698571D01*
X108189285Y-72793809D01*
X108189285Y-73031904D01*
X108236904Y-73127142D01*
X108284523Y-73174761D01*
X108379761Y-73222380D01*
X108617857Y-73222380D01*
X108713095Y-73174761D01*
X108760714Y-73127142D01*
%TO.C,R4*%
X106846666Y-75762380D02*
X107180000Y-75286190D01*
X107418095Y-75762380D02*
X107418095Y-74762380D01*
X107037142Y-74762380D01*
X106941904Y-74810000D01*
X106894285Y-74857619D01*
X106846666Y-74952857D01*
X106846666Y-75095714D01*
X106894285Y-75190952D01*
X106941904Y-75238571D01*
X107037142Y-75286190D01*
X107418095Y-75286190D01*
X105989523Y-75095714D02*
X105989523Y-75762380D01*
X106227619Y-74714761D02*
X106465714Y-75429047D01*
X105846666Y-75429047D01*
%TO.C,R3*%
X103036666Y-70682380D02*
X103370000Y-70206190D01*
X103608095Y-70682380D02*
X103608095Y-69682380D01*
X103227142Y-69682380D01*
X103131904Y-69730000D01*
X103084285Y-69777619D01*
X103036666Y-69872857D01*
X103036666Y-70015714D01*
X103084285Y-70110952D01*
X103131904Y-70158571D01*
X103227142Y-70206190D01*
X103608095Y-70206190D01*
X102703333Y-69682380D02*
X102084285Y-69682380D01*
X102417619Y-70063333D01*
X102274761Y-70063333D01*
X102179523Y-70110952D01*
X102131904Y-70158571D01*
X102084285Y-70253809D01*
X102084285Y-70491904D01*
X102131904Y-70587142D01*
X102179523Y-70634761D01*
X102274761Y-70682380D01*
X102560476Y-70682380D01*
X102655714Y-70634761D01*
X102703333Y-70587142D01*
%TO.C,R2*%
X103036666Y-68142380D02*
X103370000Y-67666190D01*
X103608095Y-68142380D02*
X103608095Y-67142380D01*
X103227142Y-67142380D01*
X103131904Y-67190000D01*
X103084285Y-67237619D01*
X103036666Y-67332857D01*
X103036666Y-67475714D01*
X103084285Y-67570952D01*
X103131904Y-67618571D01*
X103227142Y-67666190D01*
X103608095Y-67666190D01*
X102655714Y-67237619D02*
X102608095Y-67190000D01*
X102512857Y-67142380D01*
X102274761Y-67142380D01*
X102179523Y-67190000D01*
X102131904Y-67237619D01*
X102084285Y-67332857D01*
X102084285Y-67428095D01*
X102131904Y-67570952D01*
X102703333Y-68142380D01*
X102084285Y-68142380D01*
%TO.C,R1*%
X103036666Y-65602380D02*
X103370000Y-65126190D01*
X103608095Y-65602380D02*
X103608095Y-64602380D01*
X103227142Y-64602380D01*
X103131904Y-64650000D01*
X103084285Y-64697619D01*
X103036666Y-64792857D01*
X103036666Y-64935714D01*
X103084285Y-65030952D01*
X103131904Y-65078571D01*
X103227142Y-65126190D01*
X103608095Y-65126190D01*
X102084285Y-65602380D02*
X102655714Y-65602380D01*
X102370000Y-65602380D02*
X102370000Y-64602380D01*
X102465238Y-64745238D01*
X102560476Y-64840476D01*
X102655714Y-64888095D01*
%TO.C,BT1*%
X92600715Y-80398571D02*
X92457858Y-80446190D01*
X92410239Y-80493809D01*
X92362620Y-80589047D01*
X92362620Y-80731904D01*
X92410239Y-80827142D01*
X92457858Y-80874761D01*
X92553096Y-80922380D01*
X92934048Y-80922380D01*
X92934048Y-79922380D01*
X92600715Y-79922380D01*
X92505477Y-79970000D01*
X92457858Y-80017619D01*
X92410239Y-80112857D01*
X92410239Y-80208095D01*
X92457858Y-80303333D01*
X92505477Y-80350952D01*
X92600715Y-80398571D01*
X92934048Y-80398571D01*
X92076905Y-79922380D02*
X91505477Y-79922380D01*
X91791191Y-80922380D02*
X91791191Y-79922380D01*
X90648334Y-80922380D02*
X91219762Y-80922380D01*
X90934048Y-80922380D02*
X90934048Y-79922380D01*
X91029286Y-80065238D01*
X91124524Y-80160476D01*
X91219762Y-80208095D01*
%TO.C,J1*%
X97315023Y-61781281D02*
X97203285Y-62486773D01*
X97227970Y-62635321D01*
X97307137Y-62744285D01*
X97440786Y-62813665D01*
X97534851Y-62828564D01*
X96170901Y-62612535D02*
X96735294Y-62701926D01*
X96453097Y-62657231D02*
X96609532Y-61669542D01*
X96681250Y-61825539D01*
X96760417Y-61934503D01*
X96847033Y-61996435D01*
%TO.C,SW1*%
X102194982Y-77834761D02*
X102052125Y-77882380D01*
X101814029Y-77882380D01*
X101718791Y-77834761D01*
X101671172Y-77787142D01*
X101623553Y-77691904D01*
X101623553Y-77596666D01*
X101671172Y-77501428D01*
X101718791Y-77453809D01*
X101814029Y-77406190D01*
X102004506Y-77358571D01*
X102099744Y-77310952D01*
X102147363Y-77263333D01*
X102194982Y-77168095D01*
X102194982Y-77072857D01*
X102147363Y-76977619D01*
X102099744Y-76930000D01*
X102004506Y-76882380D01*
X101766410Y-76882380D01*
X101623553Y-76930000D01*
X101290220Y-76882380D02*
X101052125Y-77882380D01*
X100861649Y-77168095D01*
X100671172Y-77882380D01*
X100433077Y-76882380D01*
X99528315Y-77882380D02*
X100099744Y-77882380D01*
X99814029Y-77882380D02*
X99814029Y-76882380D01*
X99909268Y-77025238D01*
X100004506Y-77120476D01*
X100099744Y-77168095D01*
%TD*%
M02*
