%TF.GenerationSoftware,KiCad,Pcbnew,(5.1.6)-1*%
%TF.CreationDate,2021-01-16T18:50:24+01:00*%
%TF.ProjectId,Snowman_Earring,536e6f77-6d61-46e5-9f45-617272696e67,rev?*%
%TF.SameCoordinates,Original*%
%TF.FileFunction,Copper,L2,Bot*%
%TF.FilePolarity,Positive*%
%FSLAX46Y46*%
G04 Gerber Fmt 4.6, Leading zero omitted, Abs format (unit mm)*
G04 Created by KiCad (PCBNEW (5.1.6)-1) date 2021-01-16 18:50:24*
%MOMM*%
%LPD*%
G01*
G04 APERTURE LIST*
%TA.AperFunction,ComponentPad*%
%ADD10C,2.000000*%
%TD*%
%TA.AperFunction,SMDPad,CuDef*%
%ADD11R,5.100000X5.100000*%
%TD*%
%TA.AperFunction,SMDPad,CuDef*%
%ADD12C,17.800000*%
%TD*%
%TA.AperFunction,ComponentPad*%
%ADD13C,0.100000*%
%TD*%
%TA.AperFunction,SMDPad,CuDef*%
%ADD14R,0.900000X1.700000*%
%TD*%
%TA.AperFunction,ViaPad*%
%ADD15C,0.800000*%
%TD*%
%TA.AperFunction,Conductor*%
%ADD16C,0.250000*%
%TD*%
%TA.AperFunction,Conductor*%
%ADD17C,0.500000*%
%TD*%
%TA.AperFunction,Conductor*%
%ADD18C,0.100000*%
%TD*%
G04 APERTURE END LIST*
D10*
%TO.P,REF\u002A\u002A,1*%
%TO.N,N/C*%
X100786932Y-60960000D03*
%TD*%
%TO.P,R0,2*%
%TO.N,RST*%
%TA.AperFunction,SMDPad,CuDef*%
G36*
G01*
X94430000Y-75380001D02*
X94430000Y-74479999D01*
G75*
G02*
X94679999Y-74230000I249999J0D01*
G01*
X95330001Y-74230000D01*
G75*
G02*
X95580000Y-74479999I0J-249999D01*
G01*
X95580000Y-75380001D01*
G75*
G02*
X95330001Y-75630000I-249999J0D01*
G01*
X94679999Y-75630000D01*
G75*
G02*
X94430000Y-75380001I0J249999D01*
G01*
G37*
%TD.AperFunction*%
%TO.P,R0,1*%
%TO.N,+BATT*%
%TA.AperFunction,SMDPad,CuDef*%
G36*
G01*
X92380000Y-75380001D02*
X92380000Y-74479999D01*
G75*
G02*
X92629999Y-74230000I249999J0D01*
G01*
X93280001Y-74230000D01*
G75*
G02*
X93530000Y-74479999I0J-249999D01*
G01*
X93530000Y-75380001D01*
G75*
G02*
X93280001Y-75630000I-249999J0D01*
G01*
X92629999Y-75630000D01*
G75*
G02*
X92380000Y-75380001I0J249999D01*
G01*
G37*
%TD.AperFunction*%
%TD*%
%TO.P,R8,2*%
%TO.N,Net-(D8-Pad2)*%
%TA.AperFunction,SMDPad,CuDef*%
G36*
G01*
X109425000Y-63950001D02*
X109425000Y-63049999D01*
G75*
G02*
X109674999Y-62800000I249999J0D01*
G01*
X110325001Y-62800000D01*
G75*
G02*
X110575000Y-63049999I0J-249999D01*
G01*
X110575000Y-63950001D01*
G75*
G02*
X110325001Y-64200000I-249999J0D01*
G01*
X109674999Y-64200000D01*
G75*
G02*
X109425000Y-63950001I0J249999D01*
G01*
G37*
%TD.AperFunction*%
%TO.P,R8,1*%
%TO.N,LED_MOUTH2*%
%TA.AperFunction,SMDPad,CuDef*%
G36*
G01*
X107375000Y-63950001D02*
X107375000Y-63049999D01*
G75*
G02*
X107624999Y-62800000I249999J0D01*
G01*
X108275001Y-62800000D01*
G75*
G02*
X108525000Y-63049999I0J-249999D01*
G01*
X108525000Y-63950001D01*
G75*
G02*
X108275001Y-64200000I-249999J0D01*
G01*
X107624999Y-64200000D01*
G75*
G02*
X107375000Y-63950001I0J249999D01*
G01*
G37*
%TD.AperFunction*%
%TD*%
%TO.P,R7,2*%
%TO.N,Net-(D7-Pad2)*%
%TA.AperFunction,SMDPad,CuDef*%
G36*
G01*
X109425000Y-66490001D02*
X109425000Y-65589999D01*
G75*
G02*
X109674999Y-65340000I249999J0D01*
G01*
X110325001Y-65340000D01*
G75*
G02*
X110575000Y-65589999I0J-249999D01*
G01*
X110575000Y-66490001D01*
G75*
G02*
X110325001Y-66740000I-249999J0D01*
G01*
X109674999Y-66740000D01*
G75*
G02*
X109425000Y-66490001I0J249999D01*
G01*
G37*
%TD.AperFunction*%
%TO.P,R7,1*%
%TO.N,LED_MOUTH1*%
%TA.AperFunction,SMDPad,CuDef*%
G36*
G01*
X107375000Y-66490001D02*
X107375000Y-65589999D01*
G75*
G02*
X107624999Y-65340000I249999J0D01*
G01*
X108275001Y-65340000D01*
G75*
G02*
X108525000Y-65589999I0J-249999D01*
G01*
X108525000Y-66490001D01*
G75*
G02*
X108275001Y-66740000I-249999J0D01*
G01*
X107624999Y-66740000D01*
G75*
G02*
X107375000Y-66490001I0J249999D01*
G01*
G37*
%TD.AperFunction*%
%TD*%
%TO.P,R6,2*%
%TO.N,Net-(D6-Pad2)*%
%TA.AperFunction,SMDPad,CuDef*%
G36*
G01*
X109425000Y-69030001D02*
X109425000Y-68129999D01*
G75*
G02*
X109674999Y-67880000I249999J0D01*
G01*
X110325001Y-67880000D01*
G75*
G02*
X110575000Y-68129999I0J-249999D01*
G01*
X110575000Y-69030001D01*
G75*
G02*
X110325001Y-69280000I-249999J0D01*
G01*
X109674999Y-69280000D01*
G75*
G02*
X109425000Y-69030001I0J249999D01*
G01*
G37*
%TD.AperFunction*%
%TO.P,R6,1*%
%TO.N,LED_MOUTH1*%
%TA.AperFunction,SMDPad,CuDef*%
G36*
G01*
X107375000Y-69030001D02*
X107375000Y-68129999D01*
G75*
G02*
X107624999Y-67880000I249999J0D01*
G01*
X108275001Y-67880000D01*
G75*
G02*
X108525000Y-68129999I0J-249999D01*
G01*
X108525000Y-69030001D01*
G75*
G02*
X108275001Y-69280000I-249999J0D01*
G01*
X107624999Y-69280000D01*
G75*
G02*
X107375000Y-69030001I0J249999D01*
G01*
G37*
%TD.AperFunction*%
%TD*%
%TO.P,R5,2*%
%TO.N,Net-(D5-Pad2)*%
%TA.AperFunction,SMDPad,CuDef*%
G36*
G01*
X109425000Y-71570001D02*
X109425000Y-70669999D01*
G75*
G02*
X109674999Y-70420000I249999J0D01*
G01*
X110325001Y-70420000D01*
G75*
G02*
X110575000Y-70669999I0J-249999D01*
G01*
X110575000Y-71570001D01*
G75*
G02*
X110325001Y-71820000I-249999J0D01*
G01*
X109674999Y-71820000D01*
G75*
G02*
X109425000Y-71570001I0J249999D01*
G01*
G37*
%TD.AperFunction*%
%TO.P,R5,1*%
%TO.N,LED_MOUTH1*%
%TA.AperFunction,SMDPad,CuDef*%
G36*
G01*
X107375000Y-71570001D02*
X107375000Y-70669999D01*
G75*
G02*
X107624999Y-70420000I249999J0D01*
G01*
X108275001Y-70420000D01*
G75*
G02*
X108525000Y-70669999I0J-249999D01*
G01*
X108525000Y-71570001D01*
G75*
G02*
X108275001Y-71820000I-249999J0D01*
G01*
X107624999Y-71820000D01*
G75*
G02*
X107375000Y-71570001I0J249999D01*
G01*
G37*
%TD.AperFunction*%
%TD*%
%TO.P,R4,2*%
%TO.N,Net-(D4-Pad2)*%
%TA.AperFunction,SMDPad,CuDef*%
G36*
G01*
X109425000Y-74110001D02*
X109425000Y-73209999D01*
G75*
G02*
X109674999Y-72960000I249999J0D01*
G01*
X110325001Y-72960000D01*
G75*
G02*
X110575000Y-73209999I0J-249999D01*
G01*
X110575000Y-74110001D01*
G75*
G02*
X110325001Y-74360000I-249999J0D01*
G01*
X109674999Y-74360000D01*
G75*
G02*
X109425000Y-74110001I0J249999D01*
G01*
G37*
%TD.AperFunction*%
%TO.P,R4,1*%
%TO.N,LED_MOUTH2*%
%TA.AperFunction,SMDPad,CuDef*%
G36*
G01*
X107375000Y-74110001D02*
X107375000Y-73209999D01*
G75*
G02*
X107624999Y-72960000I249999J0D01*
G01*
X108275001Y-72960000D01*
G75*
G02*
X108525000Y-73209999I0J-249999D01*
G01*
X108525000Y-74110001D01*
G75*
G02*
X108275001Y-74360000I-249999J0D01*
G01*
X107624999Y-74360000D01*
G75*
G02*
X107375000Y-74110001I0J249999D01*
G01*
G37*
%TD.AperFunction*%
%TD*%
%TO.P,R3,2*%
%TO.N,Net-(D3-Pad2)*%
%TA.AperFunction,SMDPad,CuDef*%
G36*
G01*
X103320000Y-69030001D02*
X103320000Y-68129999D01*
G75*
G02*
X103569999Y-67880000I249999J0D01*
G01*
X104220001Y-67880000D01*
G75*
G02*
X104470000Y-68129999I0J-249999D01*
G01*
X104470000Y-69030001D01*
G75*
G02*
X104220001Y-69280000I-249999J0D01*
G01*
X103569999Y-69280000D01*
G75*
G02*
X103320000Y-69030001I0J249999D01*
G01*
G37*
%TD.AperFunction*%
%TO.P,R3,1*%
%TO.N,LED_RIGHT_EYE*%
%TA.AperFunction,SMDPad,CuDef*%
G36*
G01*
X101270000Y-69030001D02*
X101270000Y-68129999D01*
G75*
G02*
X101519999Y-67880000I249999J0D01*
G01*
X102170001Y-67880000D01*
G75*
G02*
X102420000Y-68129999I0J-249999D01*
G01*
X102420000Y-69030001D01*
G75*
G02*
X102170001Y-69280000I-249999J0D01*
G01*
X101519999Y-69280000D01*
G75*
G02*
X101270000Y-69030001I0J249999D01*
G01*
G37*
%TD.AperFunction*%
%TD*%
%TO.P,R2,2*%
%TO.N,Net-(D2-Pad2)*%
%TA.AperFunction,SMDPad,CuDef*%
G36*
G01*
X103320000Y-66490001D02*
X103320000Y-65589999D01*
G75*
G02*
X103569999Y-65340000I249999J0D01*
G01*
X104220001Y-65340000D01*
G75*
G02*
X104470000Y-65589999I0J-249999D01*
G01*
X104470000Y-66490001D01*
G75*
G02*
X104220001Y-66740000I-249999J0D01*
G01*
X103569999Y-66740000D01*
G75*
G02*
X103320000Y-66490001I0J249999D01*
G01*
G37*
%TD.AperFunction*%
%TO.P,R2,1*%
%TO.N,+BATT*%
%TA.AperFunction,SMDPad,CuDef*%
G36*
G01*
X101270000Y-66490001D02*
X101270000Y-65589999D01*
G75*
G02*
X101519999Y-65340000I249999J0D01*
G01*
X102170001Y-65340000D01*
G75*
G02*
X102420000Y-65589999I0J-249999D01*
G01*
X102420000Y-66490001D01*
G75*
G02*
X102170001Y-66740000I-249999J0D01*
G01*
X101519999Y-66740000D01*
G75*
G02*
X101270000Y-66490001I0J249999D01*
G01*
G37*
%TD.AperFunction*%
%TD*%
%TO.P,R1,2*%
%TO.N,Net-(D1-Pad2)*%
%TA.AperFunction,SMDPad,CuDef*%
G36*
G01*
X103320000Y-63950001D02*
X103320000Y-63049999D01*
G75*
G02*
X103569999Y-62800000I249999J0D01*
G01*
X104220001Y-62800000D01*
G75*
G02*
X104470000Y-63049999I0J-249999D01*
G01*
X104470000Y-63950001D01*
G75*
G02*
X104220001Y-64200000I-249999J0D01*
G01*
X103569999Y-64200000D01*
G75*
G02*
X103320000Y-63950001I0J249999D01*
G01*
G37*
%TD.AperFunction*%
%TO.P,R1,1*%
%TO.N,LED_LEFT_EYE*%
%TA.AperFunction,SMDPad,CuDef*%
G36*
G01*
X101270000Y-63950001D02*
X101270000Y-63049999D01*
G75*
G02*
X101519999Y-62800000I249999J0D01*
G01*
X102170001Y-62800000D01*
G75*
G02*
X102420000Y-63049999I0J-249999D01*
G01*
X102420000Y-63950001D01*
G75*
G02*
X102170001Y-64200000I-249999J0D01*
G01*
X101519999Y-64200000D01*
G75*
G02*
X101270000Y-63950001I0J249999D01*
G01*
G37*
%TD.AperFunction*%
%TD*%
D11*
%TO.P,BT1,1*%
%TO.N,+BATT*%
X113765001Y-90170000D03*
X88165001Y-90170000D03*
D12*
%TO.P,BT1,2*%
%TO.N,GND*%
X100965001Y-90170000D03*
%TD*%
%TA.AperFunction,ComponentPad*%
D13*
%TO.P,J1,1*%
%TO.N,LED_LEFT_EYE*%
G36*
X98762504Y-64063434D02*
G01*
X98496566Y-65742504D01*
X96817496Y-65476566D01*
X97083434Y-63797496D01*
X98762504Y-64063434D01*
G37*
%TD.AperFunction*%
%TO.P,J1,2*%
%TO.N,+BATT*%
%TA.AperFunction,ComponentPad*%
G36*
G01*
X96120807Y-64505625D02*
X96120807Y-64505625D01*
G75*
G02*
X95148303Y-65212191I-839535J132969D01*
G01*
X95148303Y-65212191D01*
G75*
G02*
X94441737Y-64239687I132969J839535D01*
G01*
X94441737Y-64239687D01*
G75*
G02*
X95414241Y-63533121I839535J-132969D01*
G01*
X95414241Y-63533121D01*
G75*
G02*
X96120807Y-64505625I-132969J-839535D01*
G01*
G37*
%TD.AperFunction*%
%TO.P,J1,3*%
%TO.N,LED_RIGHT_EYE*%
%TA.AperFunction,ComponentPad*%
G36*
G01*
X98232191Y-67411697D02*
X98232191Y-67411697D01*
G75*
G02*
X97259687Y-68118263I-839535J132969D01*
G01*
X97259687Y-68118263D01*
G75*
G02*
X96553121Y-67145759I132969J839535D01*
G01*
X96553121Y-67145759D01*
G75*
G02*
X97525625Y-66439193I839535J-132969D01*
G01*
X97525625Y-66439193D01*
G75*
G02*
X98232191Y-67411697I-132969J-839535D01*
G01*
G37*
%TD.AperFunction*%
%TO.P,J1,4*%
%TO.N,MOSI*%
%TA.AperFunction,ComponentPad*%
G36*
G01*
X95723463Y-67014354D02*
X95723463Y-67014354D01*
G75*
G02*
X94750959Y-67720920I-839535J132969D01*
G01*
X94750959Y-67720920D01*
G75*
G02*
X94044393Y-66748416I132969J839535D01*
G01*
X94044393Y-66748416D01*
G75*
G02*
X95016897Y-66041850I839535J-132969D01*
G01*
X95016897Y-66041850D01*
G75*
G02*
X95723463Y-67014354I-132969J-839535D01*
G01*
G37*
%TD.AperFunction*%
%TO.P,J1,5*%
%TO.N,RST*%
%TA.AperFunction,ComponentPad*%
G36*
G01*
X97834848Y-69920426D02*
X97834848Y-69920426D01*
G75*
G02*
X96862344Y-70626992I-839535J132969D01*
G01*
X96862344Y-70626992D01*
G75*
G02*
X96155778Y-69654488I132969J839535D01*
G01*
X96155778Y-69654488D01*
G75*
G02*
X97128282Y-68947922I839535J-132969D01*
G01*
X97128282Y-68947922D01*
G75*
G02*
X97834848Y-69920426I-132969J-839535D01*
G01*
G37*
%TD.AperFunction*%
%TO.P,J1,6*%
%TO.N,GND*%
%TA.AperFunction,ComponentPad*%
G36*
G01*
X95326120Y-69523082D02*
X95326120Y-69523082D01*
G75*
G02*
X94353616Y-70229648I-839535J132969D01*
G01*
X94353616Y-70229648D01*
G75*
G02*
X93647050Y-69257144I132969J839535D01*
G01*
X93647050Y-69257144D01*
G75*
G02*
X94619554Y-68550578I839535J-132969D01*
G01*
X94619554Y-68550578D01*
G75*
G02*
X95326120Y-69523082I-132969J-839535D01*
G01*
G37*
%TD.AperFunction*%
%TD*%
D14*
%TO.P,SW1,1*%
%TO.N,MOSI*%
X99161649Y-74930000D03*
%TO.P,SW1,2*%
%TO.N,GND*%
X102561649Y-74930000D03*
%TD*%
D15*
%TO.N,Net-(D1-Pad2)*%
X99060000Y-71120000D03*
%TO.N,Net-(D2-Pad2)*%
X105229999Y-71120000D03*
%TO.N,Net-(D3-Pad2)*%
X105410000Y-73660000D03*
%TO.N,Net-(D4-Pad2)*%
X91440000Y-85090000D03*
%TO.N,Net-(D5-Pad2)*%
X95250000Y-81280000D03*
%TO.N,Net-(D6-Pad2)*%
X100686385Y-79241703D03*
%TO.N,Net-(D7-Pad2)*%
X105410000Y-80010000D03*
%TO.N,Net-(D8-Pad2)*%
X110490000Y-85090000D03*
%TO.N,LED_LEFT_EYE*%
X100330000Y-64770000D03*
%TO.N,LED_RIGHT_EYE*%
X100330000Y-67887456D03*
%TO.N,LED_MOUTH2*%
X106680000Y-66040000D03*
%TO.N,LED_MOUTH1*%
X106680000Y-67310000D03*
%TD*%
D16*
%TO.N,+BATT*%
X96181442Y-63472486D02*
X95281272Y-64372656D01*
X99087514Y-63928810D02*
X98631190Y-63472486D01*
X99087514Y-65611190D02*
X99087514Y-63928810D01*
X98631190Y-63472486D02*
X96181442Y-63472486D01*
X99516324Y-66040000D02*
X99087514Y-65611190D01*
X101845000Y-66040000D02*
X99516324Y-66040000D01*
D17*
X107465000Y-99520001D02*
X113765001Y-93220000D01*
X94465002Y-99520001D02*
X107465000Y-99520001D01*
X113765001Y-93220000D02*
X113765001Y-90170000D01*
X88165001Y-93220000D02*
X94465002Y-99520001D01*
X88165001Y-90170000D02*
X88165001Y-93220000D01*
X88165001Y-84554999D02*
X88165001Y-90170000D01*
X88165001Y-79719999D02*
X88165001Y-90170000D01*
X92955000Y-74930000D02*
X88165001Y-79719999D01*
X95281272Y-64372656D02*
X92955000Y-66698928D01*
X92955000Y-66698928D02*
X92955000Y-74930000D01*
D16*
%TO.N,MOSI*%
X96456272Y-68453729D02*
X94883928Y-66881385D01*
X98170314Y-69223456D02*
X97400587Y-68453729D01*
X98170314Y-73938665D02*
X98170314Y-69223456D01*
X97400587Y-68453729D02*
X96456272Y-68453729D01*
X99161649Y-74930000D02*
X98170314Y-73938665D01*
%TO.N,RST*%
X95005000Y-71777770D02*
X95005000Y-74930000D01*
X96995313Y-69787457D02*
X95005000Y-71777770D01*
%TO.N,Net-(D1-Pad2)*%
X102994990Y-64400010D02*
X103895000Y-63500000D01*
X100893190Y-71120000D02*
X102994990Y-69018200D01*
X102994990Y-69018200D02*
X102994990Y-64400010D01*
X99060000Y-71120000D02*
X100893190Y-71120000D01*
%TO.N,Net-(D2-Pad2)*%
X103895000Y-66991810D02*
X103895000Y-66040000D01*
X105229999Y-68326809D02*
X103895000Y-66991810D01*
X105229999Y-71120000D02*
X105229999Y-68326809D01*
%TO.N,Net-(D3-Pad2)*%
X103895000Y-72145000D02*
X103895000Y-68580000D01*
X105410000Y-73660000D02*
X103895000Y-72145000D01*
%TO.N,Net-(D4-Pad2)*%
X91440000Y-83820000D02*
X91440000Y-85090000D01*
X97064999Y-76925001D02*
X91440000Y-82550000D01*
X110000000Y-73660000D02*
X106734999Y-76925001D01*
X91440000Y-82550000D02*
X91440000Y-83820000D01*
X106734999Y-76925001D02*
X97064999Y-76925001D01*
%TO.N,Net-(D5-Pad2)*%
X95250000Y-81280000D02*
X95585001Y-80944999D01*
X99060000Y-77470000D02*
X95250000Y-81280000D01*
X107778190Y-77470000D02*
X99060000Y-77470000D01*
X110900010Y-74348180D02*
X107778190Y-77470000D01*
X110900010Y-72020010D02*
X110900010Y-74348180D01*
X110000000Y-71120000D02*
X110900010Y-72020010D01*
%TO.N,Net-(D6-Pad2)*%
X111350019Y-74534581D02*
X107964590Y-77920010D01*
X110000000Y-68580000D02*
X111350019Y-69930019D01*
X111350019Y-69930019D02*
X111350019Y-74534581D01*
X102008078Y-77920010D02*
X100686385Y-79241703D01*
X107964590Y-77920010D02*
X102008078Y-77920010D01*
%TO.N,Net-(D7-Pad2)*%
X110000000Y-66040000D02*
X110575000Y-66040000D01*
X106511010Y-80010000D02*
X105410000Y-80010000D01*
X111800028Y-74720982D02*
X106511010Y-80010000D01*
X111800028Y-67840028D02*
X111800028Y-74720982D01*
X110000000Y-66040000D02*
X111800028Y-67840028D01*
%TO.N,Net-(D8-Pad2)*%
X112250037Y-83329963D02*
X110490000Y-85090000D01*
X112250037Y-65750037D02*
X112250037Y-83329963D01*
X110000000Y-63500000D02*
X112250037Y-65750037D01*
%TO.N,LED_LEFT_EYE*%
X100575000Y-64770000D02*
X101845000Y-63500000D01*
X100330000Y-64770000D02*
X100575000Y-64770000D01*
%TO.N,LED_RIGHT_EYE*%
X101152456Y-67887456D02*
X101845000Y-68580000D01*
X100330000Y-67887456D02*
X101152456Y-67887456D01*
%TO.N,LED_MOUTH2*%
X106680000Y-64770000D02*
X107950000Y-63500000D01*
X106680000Y-66040000D02*
X106680000Y-64770000D01*
X105954999Y-66765001D02*
X106680000Y-66040000D01*
X105954999Y-71664999D02*
X105954999Y-66765001D01*
X107950000Y-73660000D02*
X105954999Y-71664999D01*
%TO.N,LED_MOUTH1*%
X107950000Y-71120000D02*
X107950000Y-68580000D01*
X107950000Y-68580000D02*
X107950000Y-66040000D01*
X107950000Y-68580000D02*
X106680000Y-67310000D01*
%TD*%
D18*
%TO.N,GND*%
G36*
X94742836Y-57834101D02*
G01*
X94829001Y-57844058D01*
X113823955Y-61025278D01*
X113908672Y-61043939D01*
X113982216Y-61068186D01*
X114090883Y-61119858D01*
X114187470Y-61184788D01*
X114273187Y-61262584D01*
X114346796Y-61351649D01*
X114407014Y-61450252D01*
X114452639Y-61556639D01*
X114482558Y-61669116D01*
X114496007Y-61788689D01*
X114494970Y-61866128D01*
X114485015Y-61952282D01*
X113216229Y-69528028D01*
X113215977Y-69531720D01*
X113215145Y-69535325D01*
X113214805Y-69538096D01*
X113203092Y-69639419D01*
X113202940Y-69648192D01*
X113201843Y-69656911D01*
X113201787Y-69659703D01*
X113200443Y-69759867D01*
X113201381Y-69770968D01*
X113201384Y-69782120D01*
X113201677Y-69784897D01*
X113218181Y-69931678D01*
X113220970Y-69944782D01*
X113222950Y-69958038D01*
X113223650Y-69960741D01*
X113261115Y-70101593D01*
X113265705Y-70113873D01*
X113269500Y-70126434D01*
X113270583Y-70129008D01*
X113327589Y-70261938D01*
X113333809Y-70273246D01*
X113339273Y-70284958D01*
X113340712Y-70287351D01*
X113415837Y-70410365D01*
X113423562Y-70420612D01*
X113430595Y-70431371D01*
X113432359Y-70433536D01*
X113524183Y-70544644D01*
X113533338Y-70553744D01*
X113541878Y-70563440D01*
X113543933Y-70565331D01*
X113651035Y-70662540D01*
X113661551Y-70670358D01*
X113671562Y-70678851D01*
X113673869Y-70680424D01*
X113794828Y-70761740D01*
X113806621Y-70768093D01*
X113818010Y-70775163D01*
X113820523Y-70776380D01*
X113953918Y-70839811D01*
X113964405Y-70843593D01*
X113974535Y-70848241D01*
X113977181Y-70849134D01*
X114072318Y-70880501D01*
X114080885Y-70882423D01*
X114089195Y-70885256D01*
X114091918Y-70885875D01*
X114191531Y-70907818D01*
X114195203Y-70908257D01*
X114198770Y-70909274D01*
X114201521Y-70909754D01*
X116731311Y-71333434D01*
X116816031Y-71352096D01*
X116889575Y-71376343D01*
X116998242Y-71428015D01*
X117094832Y-71492947D01*
X117180552Y-71570747D01*
X117254152Y-71659802D01*
X117314372Y-71758407D01*
X117360000Y-71864801D01*
X117389918Y-71977269D01*
X117403366Y-72096843D01*
X117402329Y-72174284D01*
X117392374Y-72260442D01*
X116898325Y-75210418D01*
X116879668Y-75295116D01*
X116855419Y-75368666D01*
X116803749Y-75477331D01*
X116738813Y-75573926D01*
X116661021Y-75659639D01*
X116571959Y-75733246D01*
X116473355Y-75793465D01*
X116366960Y-75839093D01*
X116254493Y-75869011D01*
X116134918Y-75882459D01*
X116057478Y-75881422D01*
X115971320Y-75871467D01*
X114227563Y-75579431D01*
X114219268Y-75578864D01*
X114211098Y-75577372D01*
X114199849Y-75577538D01*
X114188620Y-75576771D01*
X114180382Y-75577825D01*
X114172070Y-75577948D01*
X114161059Y-75580298D01*
X114149903Y-75581726D01*
X114142025Y-75584361D01*
X114133896Y-75586096D01*
X114123552Y-75590540D01*
X114112886Y-75594107D01*
X114105672Y-75598220D01*
X114098033Y-75601502D01*
X114088752Y-75607868D01*
X114078977Y-75613442D01*
X114072692Y-75618885D01*
X114065844Y-75623582D01*
X114057988Y-75631618D01*
X114049470Y-75638994D01*
X114044357Y-75645560D01*
X114038557Y-75651493D01*
X114032409Y-75660905D01*
X114025489Y-75669792D01*
X114021753Y-75677217D01*
X114017211Y-75684171D01*
X114013004Y-75694608D01*
X114007947Y-75704660D01*
X114005726Y-75712663D01*
X114002618Y-75720375D01*
X114000517Y-75731439D01*
X113997511Y-75742273D01*
X113996887Y-75750553D01*
X113995336Y-75758722D01*
X113995424Y-75769979D01*
X113994579Y-75781196D01*
X113995576Y-75789445D01*
X113995641Y-75797755D01*
X113997913Y-75808774D01*
X113999263Y-75819946D01*
X114001845Y-75827849D01*
X114003522Y-75835984D01*
X114007889Y-75846350D01*
X114011385Y-75857050D01*
X114015451Y-75864298D01*
X114018677Y-75871955D01*
X114024976Y-75881276D01*
X114030482Y-75891092D01*
X114035880Y-75897413D01*
X114040531Y-75904297D01*
X114042328Y-75906434D01*
X114296037Y-76204041D01*
X114541997Y-76505553D01*
X114781410Y-76812394D01*
X115014284Y-77124610D01*
X115240420Y-77441969D01*
X115459749Y-77764423D01*
X115672154Y-78091848D01*
X115877539Y-78424161D01*
X116075799Y-78761255D01*
X116266812Y-79103005D01*
X116450492Y-79449341D01*
X116626704Y-79800104D01*
X116795370Y-80155248D01*
X116956365Y-80514628D01*
X117109594Y-80878167D01*
X117254935Y-81245723D01*
X117392309Y-81617261D01*
X117521592Y-81992636D01*
X117642667Y-82371710D01*
X117755455Y-82754461D01*
X117859811Y-83140656D01*
X117955676Y-83530377D01*
X118042913Y-83923388D01*
X118121411Y-84319575D01*
X118191084Y-84718921D01*
X118251814Y-85121283D01*
X118303488Y-85526510D01*
X118346013Y-85934588D01*
X118379277Y-86345396D01*
X118403167Y-86758782D01*
X118417580Y-87174657D01*
X118422394Y-87591611D01*
X118399193Y-88509139D01*
X118330451Y-89413153D01*
X118217250Y-90304001D01*
X118060723Y-91180505D01*
X117861979Y-92041618D01*
X117622142Y-92886209D01*
X117342321Y-93713194D01*
X117023626Y-94521475D01*
X116667194Y-95309885D01*
X116274114Y-96077363D01*
X115845527Y-96822748D01*
X115382528Y-97544957D01*
X114886238Y-98242861D01*
X114357795Y-98915311D01*
X113798298Y-99561216D01*
X113208884Y-100179434D01*
X112590666Y-100768848D01*
X111944761Y-101328345D01*
X111272298Y-101856798D01*
X110574398Y-102353084D01*
X109852198Y-102816077D01*
X109106805Y-103244669D01*
X108339318Y-103637752D01*
X107550925Y-103994176D01*
X106742644Y-104312871D01*
X105915660Y-104592692D01*
X105071068Y-104832529D01*
X104209958Y-105031272D01*
X103333451Y-105187800D01*
X102442605Y-105301001D01*
X101538589Y-105369743D01*
X100622424Y-105392909D01*
X99706258Y-105369743D01*
X98802244Y-105301001D01*
X97911396Y-105187800D01*
X97034892Y-105031273D01*
X96173779Y-104832529D01*
X95329188Y-104592692D01*
X94502203Y-104312871D01*
X93693922Y-103994176D01*
X92905512Y-103637744D01*
X92138034Y-103244664D01*
X91392649Y-102816077D01*
X90670440Y-102353078D01*
X89972536Y-101856788D01*
X89300086Y-101328345D01*
X88654181Y-100768848D01*
X88035964Y-100179434D01*
X87446549Y-99561216D01*
X86887052Y-98915311D01*
X86358599Y-98242848D01*
X85862313Y-97544948D01*
X85399320Y-96822748D01*
X84970728Y-96077355D01*
X84577645Y-95309868D01*
X84221221Y-94521475D01*
X83902526Y-93713194D01*
X83622705Y-92886210D01*
X83382868Y-92041618D01*
X83184125Y-91180508D01*
X83027597Y-90304001D01*
X82914396Y-89413155D01*
X82845654Y-88509139D01*
X82823173Y-87620000D01*
X85363792Y-87620000D01*
X85363792Y-92720000D01*
X85368619Y-92769008D01*
X85382914Y-92816134D01*
X85406128Y-92859564D01*
X85437369Y-92897632D01*
X85475437Y-92928873D01*
X85518867Y-92952087D01*
X85565993Y-92966382D01*
X85615001Y-92971209D01*
X87665002Y-92971209D01*
X87665002Y-93195430D01*
X87662582Y-93220000D01*
X87672236Y-93318017D01*
X87696850Y-93399157D01*
X87700827Y-93412267D01*
X87747256Y-93499129D01*
X87809738Y-93575264D01*
X87828820Y-93590924D01*
X94094082Y-99856188D01*
X94109738Y-99875265D01*
X94185873Y-99937747D01*
X94272735Y-99984176D01*
X94366985Y-100012766D01*
X94465002Y-100022420D01*
X94489562Y-100020001D01*
X107440440Y-100020001D01*
X107465000Y-100022420D01*
X107489560Y-100020001D01*
X107563017Y-100012766D01*
X107657267Y-99984176D01*
X107744129Y-99937747D01*
X107820264Y-99875265D01*
X107835929Y-99856177D01*
X114101188Y-93590920D01*
X114120265Y-93575264D01*
X114182747Y-93499129D01*
X114229176Y-93412267D01*
X114257766Y-93318017D01*
X114265001Y-93244560D01*
X114265001Y-93244559D01*
X114267420Y-93220000D01*
X114265001Y-93195440D01*
X114265001Y-92971209D01*
X116315001Y-92971209D01*
X116364009Y-92966382D01*
X116411135Y-92952087D01*
X116454565Y-92928873D01*
X116492633Y-92897632D01*
X116523874Y-92859564D01*
X116547088Y-92816134D01*
X116561383Y-92769008D01*
X116566210Y-92720000D01*
X116566210Y-87620000D01*
X116561383Y-87570992D01*
X116547088Y-87523866D01*
X116523874Y-87480436D01*
X116492633Y-87442368D01*
X116454565Y-87411127D01*
X116411135Y-87387913D01*
X116364009Y-87373618D01*
X116315001Y-87368791D01*
X111215001Y-87368791D01*
X111165993Y-87373618D01*
X111118867Y-87387913D01*
X111075437Y-87411127D01*
X111037369Y-87442368D01*
X111006128Y-87480436D01*
X110982914Y-87523866D01*
X110968619Y-87570992D01*
X110963792Y-87620000D01*
X110963792Y-92720000D01*
X110968619Y-92769008D01*
X110982914Y-92816134D01*
X111006128Y-92859564D01*
X111037369Y-92897632D01*
X111075437Y-92928873D01*
X111118867Y-92952087D01*
X111165993Y-92966382D01*
X111215001Y-92971209D01*
X113265001Y-92971209D01*
X113265001Y-93012893D01*
X107257895Y-99020001D01*
X103289061Y-99020001D01*
X104194158Y-98778555D01*
X105811556Y-97983166D01*
X106328728Y-97637602D01*
X107386687Y-96662397D01*
X100965001Y-90240711D01*
X94543315Y-96662397D01*
X95601274Y-97637602D01*
X97161193Y-98540526D01*
X98568560Y-99020001D01*
X94672109Y-99020001D01*
X88665001Y-93012895D01*
X88665001Y-92971209D01*
X90715001Y-92971209D01*
X90764009Y-92966382D01*
X90811135Y-92952087D01*
X90854565Y-92928873D01*
X90892633Y-92897632D01*
X90923874Y-92859564D01*
X90947088Y-92816134D01*
X90961383Y-92769008D01*
X90966210Y-92720000D01*
X90966210Y-89859001D01*
X91775989Y-89859001D01*
X91891881Y-91657664D01*
X92356446Y-93399157D01*
X93151835Y-95016555D01*
X93497399Y-95533727D01*
X94472604Y-96591686D01*
X100894290Y-90170000D01*
X101035712Y-90170000D01*
X107457398Y-96591686D01*
X108432603Y-95533727D01*
X109335527Y-93973808D01*
X109916776Y-92267711D01*
X110154013Y-90480999D01*
X110038121Y-88682336D01*
X109573556Y-86940843D01*
X108778167Y-85323445D01*
X108432603Y-84806273D01*
X107457398Y-83748314D01*
X101035712Y-90170000D01*
X100894290Y-90170000D01*
X94472604Y-83748314D01*
X93497399Y-84806273D01*
X92594475Y-86366192D01*
X92013226Y-88072289D01*
X91775989Y-89859001D01*
X90966210Y-89859001D01*
X90966210Y-87620000D01*
X90961383Y-87570992D01*
X90947088Y-87523866D01*
X90923874Y-87480436D01*
X90892633Y-87442368D01*
X90854565Y-87411127D01*
X90811135Y-87387913D01*
X90764009Y-87373618D01*
X90715001Y-87368791D01*
X88665001Y-87368791D01*
X88665001Y-85025981D01*
X90790000Y-85025981D01*
X90790000Y-85154019D01*
X90814979Y-85279598D01*
X90863978Y-85397890D01*
X90935112Y-85504351D01*
X91025649Y-85594888D01*
X91132110Y-85666022D01*
X91250402Y-85715021D01*
X91375981Y-85740000D01*
X91504019Y-85740000D01*
X91629598Y-85715021D01*
X91747890Y-85666022D01*
X91854351Y-85594888D01*
X91944888Y-85504351D01*
X92016022Y-85397890D01*
X92065021Y-85279598D01*
X92090000Y-85154019D01*
X92090000Y-85025981D01*
X92065021Y-84900402D01*
X92016022Y-84782110D01*
X91944888Y-84675649D01*
X91854351Y-84585112D01*
X91815000Y-84558819D01*
X91815000Y-83677603D01*
X94543315Y-83677603D01*
X100965001Y-90099289D01*
X107386687Y-83677603D01*
X106328728Y-82702398D01*
X104768809Y-81799474D01*
X103062712Y-81218225D01*
X101276000Y-80980988D01*
X99477337Y-81096880D01*
X97735844Y-81561445D01*
X96118446Y-82356834D01*
X95601274Y-82702398D01*
X94543315Y-83677603D01*
X91815000Y-83677603D01*
X91815000Y-82705329D01*
X97220329Y-77300001D01*
X98699669Y-77300001D01*
X95360438Y-80639233D01*
X95314019Y-80630000D01*
X95185981Y-80630000D01*
X95060402Y-80654979D01*
X94942110Y-80703978D01*
X94835649Y-80775112D01*
X94745112Y-80865649D01*
X94673978Y-80972110D01*
X94624979Y-81090402D01*
X94600000Y-81215981D01*
X94600000Y-81344019D01*
X94624979Y-81469598D01*
X94673978Y-81587890D01*
X94745112Y-81694351D01*
X94835649Y-81784888D01*
X94942110Y-81856022D01*
X95060402Y-81905021D01*
X95185981Y-81930000D01*
X95314019Y-81930000D01*
X95439598Y-81905021D01*
X95557890Y-81856022D01*
X95664351Y-81784888D01*
X95754888Y-81694351D01*
X95826022Y-81587890D01*
X95875021Y-81469598D01*
X95900000Y-81344019D01*
X95900000Y-81215981D01*
X95890767Y-81169562D01*
X99215330Y-77845000D01*
X101552758Y-77845000D01*
X100796823Y-78600936D01*
X100750404Y-78591703D01*
X100622366Y-78591703D01*
X100496787Y-78616682D01*
X100378495Y-78665681D01*
X100272034Y-78736815D01*
X100181497Y-78827352D01*
X100110363Y-78933813D01*
X100061364Y-79052105D01*
X100036385Y-79177684D01*
X100036385Y-79305722D01*
X100061364Y-79431301D01*
X100110363Y-79549593D01*
X100181497Y-79656054D01*
X100272034Y-79746591D01*
X100378495Y-79817725D01*
X100496787Y-79866724D01*
X100622366Y-79891703D01*
X100750404Y-79891703D01*
X100875983Y-79866724D01*
X100994275Y-79817725D01*
X101100736Y-79746591D01*
X101191273Y-79656054D01*
X101262407Y-79549593D01*
X101311406Y-79431301D01*
X101336385Y-79305722D01*
X101336385Y-79177684D01*
X101327152Y-79131265D01*
X102163408Y-78295010D01*
X107695671Y-78295010D01*
X106355681Y-79635000D01*
X105941181Y-79635000D01*
X105914888Y-79595649D01*
X105824351Y-79505112D01*
X105717890Y-79433978D01*
X105599598Y-79384979D01*
X105474019Y-79360000D01*
X105345981Y-79360000D01*
X105220402Y-79384979D01*
X105102110Y-79433978D01*
X104995649Y-79505112D01*
X104905112Y-79595649D01*
X104833978Y-79702110D01*
X104784979Y-79820402D01*
X104760000Y-79945981D01*
X104760000Y-80074019D01*
X104784979Y-80199598D01*
X104833978Y-80317890D01*
X104905112Y-80424351D01*
X104995649Y-80514888D01*
X105102110Y-80586022D01*
X105220402Y-80635021D01*
X105345981Y-80660000D01*
X105474019Y-80660000D01*
X105599598Y-80635021D01*
X105717890Y-80586022D01*
X105824351Y-80514888D01*
X105914888Y-80424351D01*
X105941181Y-80385000D01*
X106492594Y-80385000D01*
X106511010Y-80386814D01*
X106529426Y-80385000D01*
X106529429Y-80385000D01*
X106584523Y-80379574D01*
X106655210Y-80358131D01*
X106720357Y-80323309D01*
X106777458Y-80276448D01*
X106789205Y-80262134D01*
X111875038Y-75176302D01*
X111875038Y-83174632D01*
X110600438Y-84449233D01*
X110554019Y-84440000D01*
X110425981Y-84440000D01*
X110300402Y-84464979D01*
X110182110Y-84513978D01*
X110075649Y-84585112D01*
X109985112Y-84675649D01*
X109913978Y-84782110D01*
X109864979Y-84900402D01*
X109840000Y-85025981D01*
X109840000Y-85154019D01*
X109864979Y-85279598D01*
X109913978Y-85397890D01*
X109985112Y-85504351D01*
X110075649Y-85594888D01*
X110182110Y-85666022D01*
X110300402Y-85715021D01*
X110425981Y-85740000D01*
X110554019Y-85740000D01*
X110679598Y-85715021D01*
X110797890Y-85666022D01*
X110904351Y-85594888D01*
X110994888Y-85504351D01*
X111066022Y-85397890D01*
X111115021Y-85279598D01*
X111140000Y-85154019D01*
X111140000Y-85025981D01*
X111130767Y-84979562D01*
X112502176Y-83608154D01*
X112516485Y-83596411D01*
X112563346Y-83539310D01*
X112598168Y-83474163D01*
X112619611Y-83403476D01*
X112625037Y-83348382D01*
X112625037Y-83348380D01*
X112626851Y-83329964D01*
X112625037Y-83311548D01*
X112625037Y-65768453D01*
X112626851Y-65750037D01*
X112625037Y-65731618D01*
X112619611Y-65676524D01*
X112598168Y-65605837D01*
X112563346Y-65540690D01*
X112516485Y-65483589D01*
X112502177Y-65471847D01*
X110826209Y-63795880D01*
X110826209Y-63049999D01*
X110816578Y-62952218D01*
X110788057Y-62858195D01*
X110741740Y-62771543D01*
X110679409Y-62695591D01*
X110603457Y-62633260D01*
X110516805Y-62586943D01*
X110422782Y-62558422D01*
X110325001Y-62548791D01*
X109674999Y-62548791D01*
X109577218Y-62558422D01*
X109483195Y-62586943D01*
X109396543Y-62633260D01*
X109320591Y-62695591D01*
X109258260Y-62771543D01*
X109211943Y-62858195D01*
X109183422Y-62952218D01*
X109173791Y-63049999D01*
X109173791Y-63950001D01*
X109183422Y-64047782D01*
X109211943Y-64141805D01*
X109258260Y-64228457D01*
X109320591Y-64304409D01*
X109396543Y-64366740D01*
X109483195Y-64413057D01*
X109577218Y-64441578D01*
X109674999Y-64451209D01*
X110325001Y-64451209D01*
X110412283Y-64442612D01*
X111875037Y-65905367D01*
X111875037Y-67384707D01*
X110826209Y-66335880D01*
X110826209Y-66318954D01*
X110841448Y-66306448D01*
X110888309Y-66249347D01*
X110923131Y-66184200D01*
X110944574Y-66113513D01*
X110951814Y-66040000D01*
X110944574Y-65966487D01*
X110923131Y-65895800D01*
X110888309Y-65830653D01*
X110841448Y-65773552D01*
X110826209Y-65761046D01*
X110826209Y-65589999D01*
X110816578Y-65492218D01*
X110788057Y-65398195D01*
X110741740Y-65311543D01*
X110679409Y-65235591D01*
X110603457Y-65173260D01*
X110516805Y-65126943D01*
X110422782Y-65098422D01*
X110325001Y-65088791D01*
X109674999Y-65088791D01*
X109577218Y-65098422D01*
X109483195Y-65126943D01*
X109396543Y-65173260D01*
X109320591Y-65235591D01*
X109258260Y-65311543D01*
X109211943Y-65398195D01*
X109183422Y-65492218D01*
X109173791Y-65589999D01*
X109173791Y-66490001D01*
X109183422Y-66587782D01*
X109211943Y-66681805D01*
X109258260Y-66768457D01*
X109320591Y-66844409D01*
X109396543Y-66906740D01*
X109483195Y-66953057D01*
X109577218Y-66981578D01*
X109674999Y-66991209D01*
X110325001Y-66991209D01*
X110412283Y-66982612D01*
X111425028Y-67995358D01*
X111425028Y-69474698D01*
X110826209Y-68875880D01*
X110826209Y-68129999D01*
X110816578Y-68032218D01*
X110788057Y-67938195D01*
X110741740Y-67851543D01*
X110679409Y-67775591D01*
X110603457Y-67713260D01*
X110516805Y-67666943D01*
X110422782Y-67638422D01*
X110325001Y-67628791D01*
X109674999Y-67628791D01*
X109577218Y-67638422D01*
X109483195Y-67666943D01*
X109396543Y-67713260D01*
X109320591Y-67775591D01*
X109258260Y-67851543D01*
X109211943Y-67938195D01*
X109183422Y-68032218D01*
X109173791Y-68129999D01*
X109173791Y-69030001D01*
X109183422Y-69127782D01*
X109211943Y-69221805D01*
X109258260Y-69308457D01*
X109320591Y-69384409D01*
X109396543Y-69446740D01*
X109483195Y-69493057D01*
X109577218Y-69521578D01*
X109674999Y-69531209D01*
X110325001Y-69531209D01*
X110412283Y-69522612D01*
X110975019Y-70085349D01*
X110975019Y-71564690D01*
X110826209Y-71415879D01*
X110826209Y-70669999D01*
X110816578Y-70572218D01*
X110788057Y-70478195D01*
X110741740Y-70391543D01*
X110679409Y-70315591D01*
X110603457Y-70253260D01*
X110516805Y-70206943D01*
X110422782Y-70178422D01*
X110325001Y-70168791D01*
X109674999Y-70168791D01*
X109577218Y-70178422D01*
X109483195Y-70206943D01*
X109396543Y-70253260D01*
X109320591Y-70315591D01*
X109258260Y-70391543D01*
X109211943Y-70478195D01*
X109183422Y-70572218D01*
X109173791Y-70669999D01*
X109173791Y-71570001D01*
X109183422Y-71667782D01*
X109211943Y-71761805D01*
X109258260Y-71848457D01*
X109320591Y-71924409D01*
X109396543Y-71986740D01*
X109483195Y-72033057D01*
X109577218Y-72061578D01*
X109674999Y-72071209D01*
X110325001Y-72071209D01*
X110412282Y-72062612D01*
X110525010Y-72175340D01*
X110525010Y-72751329D01*
X110516805Y-72746943D01*
X110422782Y-72718422D01*
X110325001Y-72708791D01*
X109674999Y-72708791D01*
X109577218Y-72718422D01*
X109483195Y-72746943D01*
X109396543Y-72793260D01*
X109320591Y-72855591D01*
X109258260Y-72931543D01*
X109211943Y-73018195D01*
X109183422Y-73112218D01*
X109173791Y-73209999D01*
X109173791Y-73955879D01*
X106579670Y-76550001D01*
X97083415Y-76550001D01*
X97064999Y-76548187D01*
X97046583Y-76550001D01*
X97046580Y-76550001D01*
X96991486Y-76555427D01*
X96920799Y-76576870D01*
X96855652Y-76611692D01*
X96798551Y-76658553D01*
X96786809Y-76672861D01*
X91187866Y-82271805D01*
X91173552Y-82283552D01*
X91126691Y-82340654D01*
X91091869Y-82405801D01*
X91070426Y-82476488D01*
X91066121Y-82520199D01*
X91063186Y-82550000D01*
X91065000Y-82568416D01*
X91065001Y-83801572D01*
X91065000Y-83801582D01*
X91065001Y-84558818D01*
X91025649Y-84585112D01*
X90935112Y-84675649D01*
X90863978Y-84782110D01*
X90814979Y-84900402D01*
X90790000Y-85025981D01*
X88665001Y-85025981D01*
X88665001Y-79927104D01*
X92710898Y-75881209D01*
X93280001Y-75881209D01*
X93377782Y-75871578D01*
X93471805Y-75843057D01*
X93558457Y-75796740D01*
X93634409Y-75734409D01*
X93696740Y-75658457D01*
X93743057Y-75571805D01*
X93771578Y-75477782D01*
X93781209Y-75380001D01*
X93781209Y-74479999D01*
X93771578Y-74382218D01*
X93743057Y-74288195D01*
X93696740Y-74201543D01*
X93634409Y-74125591D01*
X93558457Y-74063260D01*
X93471805Y-74016943D01*
X93455000Y-74011845D01*
X93455000Y-70421541D01*
X94373846Y-70421541D01*
X94536585Y-70488979D01*
X94750003Y-70458109D01*
X94953297Y-70386198D01*
X95138656Y-70276008D01*
X95298955Y-70131773D01*
X95428037Y-69959037D01*
X95516215Y-69777233D01*
X95502299Y-69601610D01*
X94528148Y-69447319D01*
X94373846Y-70421541D01*
X93455000Y-70421541D01*
X93455000Y-69756781D01*
X93484789Y-69844437D01*
X93592672Y-70031148D01*
X93734908Y-70193224D01*
X93906031Y-70324437D01*
X94099464Y-70419745D01*
X94275077Y-70405898D01*
X94429379Y-69431676D01*
X94409625Y-69428547D01*
X94422295Y-69348550D01*
X94543791Y-69348550D01*
X95517942Y-69502841D01*
X95585447Y-69340113D01*
X95557766Y-69139959D01*
X95488381Y-68935789D01*
X95380498Y-68749078D01*
X95238262Y-68587002D01*
X95067139Y-68455789D01*
X94873706Y-68360481D01*
X94698093Y-68374328D01*
X94543791Y-69348550D01*
X94422295Y-69348550D01*
X94425269Y-69329778D01*
X94445022Y-69332907D01*
X94599324Y-68358685D01*
X94436585Y-68291247D01*
X94223167Y-68322117D01*
X94019873Y-68394028D01*
X93834514Y-68504218D01*
X93674215Y-68648453D01*
X93545133Y-68821189D01*
X93456955Y-69002993D01*
X93470871Y-69178615D01*
X93455000Y-69176101D01*
X93455000Y-66906033D01*
X93844370Y-66516664D01*
X93826201Y-66560527D01*
X93783928Y-66773044D01*
X93783928Y-66989726D01*
X93826201Y-67202243D01*
X93909121Y-67402430D01*
X94029503Y-67582594D01*
X94182719Y-67735810D01*
X94362883Y-67856192D01*
X94563070Y-67939112D01*
X94775587Y-67981385D01*
X94992269Y-67981385D01*
X95204786Y-67939112D01*
X95350832Y-67878618D01*
X96178081Y-68705868D01*
X96189824Y-68720177D01*
X96246925Y-68767038D01*
X96312072Y-68801860D01*
X96382759Y-68823303D01*
X96437853Y-68828729D01*
X96437855Y-68828729D01*
X96448618Y-68829789D01*
X96294104Y-68933032D01*
X96140888Y-69086248D01*
X96020506Y-69266412D01*
X95937586Y-69466599D01*
X95895313Y-69679116D01*
X95895313Y-69895798D01*
X95937586Y-70108315D01*
X95998080Y-70254360D01*
X94752866Y-71499575D01*
X94738552Y-71511322D01*
X94691691Y-71568424D01*
X94656869Y-71633571D01*
X94635426Y-71704258D01*
X94630000Y-71759351D01*
X94628186Y-71777770D01*
X94630000Y-71796186D01*
X94630001Y-73983716D01*
X94582218Y-73988422D01*
X94488195Y-74016943D01*
X94401543Y-74063260D01*
X94325591Y-74125591D01*
X94263260Y-74201543D01*
X94216943Y-74288195D01*
X94188422Y-74382218D01*
X94178791Y-74479999D01*
X94178791Y-75380001D01*
X94188422Y-75477782D01*
X94216943Y-75571805D01*
X94263260Y-75658457D01*
X94325591Y-75734409D01*
X94401543Y-75796740D01*
X94488195Y-75843057D01*
X94582218Y-75871578D01*
X94679999Y-75881209D01*
X95330001Y-75881209D01*
X95427782Y-75871578D01*
X95521805Y-75843057D01*
X95608457Y-75796740D01*
X95684409Y-75734409D01*
X95746740Y-75658457D01*
X95793057Y-75571805D01*
X95821578Y-75477782D01*
X95831209Y-75380001D01*
X95831209Y-74479999D01*
X95821578Y-74382218D01*
X95793057Y-74288195D01*
X95746740Y-74201543D01*
X95684409Y-74125591D01*
X95608457Y-74063260D01*
X95521805Y-74016943D01*
X95427782Y-73988422D01*
X95380000Y-73983716D01*
X95380000Y-71933099D01*
X96528410Y-70784690D01*
X96674455Y-70845184D01*
X96886972Y-70887457D01*
X97103654Y-70887457D01*
X97316171Y-70845184D01*
X97516358Y-70762264D01*
X97696522Y-70641882D01*
X97795315Y-70543089D01*
X97795314Y-73920249D01*
X97793500Y-73938665D01*
X97795314Y-73957081D01*
X97795314Y-73957083D01*
X97800740Y-74012177D01*
X97822183Y-74082864D01*
X97857005Y-74148011D01*
X97903866Y-74205113D01*
X97918180Y-74216860D01*
X98460440Y-74759121D01*
X98460440Y-75780000D01*
X98465267Y-75829008D01*
X98479562Y-75876134D01*
X98502776Y-75919564D01*
X98534017Y-75957632D01*
X98572085Y-75988873D01*
X98615515Y-76012087D01*
X98662641Y-76026382D01*
X98711649Y-76031209D01*
X99611649Y-76031209D01*
X99660657Y-76026382D01*
X99707783Y-76012087D01*
X99751213Y-75988873D01*
X99789281Y-75957632D01*
X99820522Y-75919564D01*
X99843736Y-75876134D01*
X99858031Y-75829008D01*
X99862858Y-75780000D01*
X101860439Y-75780000D01*
X101865266Y-75829009D01*
X101879561Y-75876134D01*
X101902776Y-75919565D01*
X101934017Y-75957632D01*
X101972084Y-75988873D01*
X102015515Y-76012088D01*
X102062640Y-76026383D01*
X102111649Y-76031210D01*
X102449149Y-76030000D01*
X102511649Y-75967500D01*
X102511649Y-74980000D01*
X102611649Y-74980000D01*
X102611649Y-75967500D01*
X102674149Y-76030000D01*
X103011649Y-76031210D01*
X103060658Y-76026383D01*
X103107783Y-76012088D01*
X103151214Y-75988873D01*
X103189281Y-75957632D01*
X103220522Y-75919565D01*
X103243737Y-75876134D01*
X103258032Y-75829009D01*
X103262859Y-75780000D01*
X103261649Y-75042500D01*
X103199149Y-74980000D01*
X102611649Y-74980000D01*
X102511649Y-74980000D01*
X101924149Y-74980000D01*
X101861649Y-75042500D01*
X101860439Y-75780000D01*
X99862858Y-75780000D01*
X99862858Y-74080000D01*
X101860439Y-74080000D01*
X101861649Y-74817500D01*
X101924149Y-74880000D01*
X102511649Y-74880000D01*
X102511649Y-73892500D01*
X102611649Y-73892500D01*
X102611649Y-74880000D01*
X103199149Y-74880000D01*
X103261649Y-74817500D01*
X103262859Y-74080000D01*
X103258032Y-74030991D01*
X103243737Y-73983866D01*
X103220522Y-73940435D01*
X103189281Y-73902368D01*
X103151214Y-73871127D01*
X103107783Y-73847912D01*
X103060658Y-73833617D01*
X103011649Y-73828790D01*
X102674149Y-73830000D01*
X102611649Y-73892500D01*
X102511649Y-73892500D01*
X102449149Y-73830000D01*
X102111649Y-73828790D01*
X102062640Y-73833617D01*
X102015515Y-73847912D01*
X101972084Y-73871127D01*
X101934017Y-73902368D01*
X101902776Y-73940435D01*
X101879561Y-73983866D01*
X101865266Y-74030991D01*
X101860439Y-74080000D01*
X99862858Y-74080000D01*
X99858031Y-74030992D01*
X99843736Y-73983866D01*
X99820522Y-73940436D01*
X99789281Y-73902368D01*
X99751213Y-73871127D01*
X99707783Y-73847913D01*
X99660657Y-73833618D01*
X99611649Y-73828791D01*
X98711649Y-73828791D01*
X98662641Y-73833618D01*
X98615515Y-73847913D01*
X98611850Y-73849872D01*
X98545314Y-73783336D01*
X98545314Y-71519687D01*
X98555112Y-71534351D01*
X98645649Y-71624888D01*
X98752110Y-71696022D01*
X98870402Y-71745021D01*
X98995981Y-71770000D01*
X99124019Y-71770000D01*
X99249598Y-71745021D01*
X99367890Y-71696022D01*
X99474351Y-71624888D01*
X99564888Y-71534351D01*
X99591181Y-71495000D01*
X100874774Y-71495000D01*
X100893190Y-71496814D01*
X100911606Y-71495000D01*
X100911609Y-71495000D01*
X100966703Y-71489574D01*
X101037390Y-71468131D01*
X101102537Y-71433309D01*
X101159638Y-71386448D01*
X101171385Y-71372134D01*
X103190133Y-69353387D01*
X103215591Y-69384409D01*
X103291543Y-69446740D01*
X103378195Y-69493057D01*
X103472218Y-69521578D01*
X103520001Y-69526284D01*
X103520000Y-72126584D01*
X103518186Y-72145000D01*
X103520000Y-72163416D01*
X103520000Y-72163418D01*
X103525426Y-72218512D01*
X103546869Y-72289199D01*
X103581691Y-72354346D01*
X103628552Y-72411448D01*
X103642866Y-72423195D01*
X104769233Y-73549563D01*
X104760000Y-73595981D01*
X104760000Y-73724019D01*
X104784979Y-73849598D01*
X104833978Y-73967890D01*
X104905112Y-74074351D01*
X104995649Y-74164888D01*
X105102110Y-74236022D01*
X105220402Y-74285021D01*
X105345981Y-74310000D01*
X105474019Y-74310000D01*
X105599598Y-74285021D01*
X105717890Y-74236022D01*
X105824351Y-74164888D01*
X105914888Y-74074351D01*
X105986022Y-73967890D01*
X106035021Y-73849598D01*
X106060000Y-73724019D01*
X106060000Y-73595981D01*
X106035021Y-73470402D01*
X105986022Y-73352110D01*
X105914888Y-73245649D01*
X105824351Y-73155112D01*
X105717890Y-73083978D01*
X105599598Y-73034979D01*
X105474019Y-73010000D01*
X105345981Y-73010000D01*
X105299563Y-73019233D01*
X104270000Y-71989671D01*
X104270000Y-69526284D01*
X104317782Y-69521578D01*
X104411805Y-69493057D01*
X104498457Y-69446740D01*
X104574409Y-69384409D01*
X104636740Y-69308457D01*
X104683057Y-69221805D01*
X104711578Y-69127782D01*
X104721209Y-69030001D01*
X104721209Y-68348349D01*
X104855000Y-68482140D01*
X104854999Y-70588819D01*
X104815648Y-70615112D01*
X104725111Y-70705649D01*
X104653977Y-70812110D01*
X104604978Y-70930402D01*
X104579999Y-71055981D01*
X104579999Y-71184019D01*
X104604978Y-71309598D01*
X104653977Y-71427890D01*
X104725111Y-71534351D01*
X104815648Y-71624888D01*
X104922109Y-71696022D01*
X105040401Y-71745021D01*
X105165980Y-71770000D01*
X105294018Y-71770000D01*
X105419597Y-71745021D01*
X105537889Y-71696022D01*
X105578564Y-71668844D01*
X105579999Y-71683415D01*
X105579999Y-71683417D01*
X105585425Y-71738511D01*
X105606868Y-71809198D01*
X105641690Y-71874345D01*
X105688551Y-71931447D01*
X105702865Y-71943194D01*
X107123791Y-73364121D01*
X107123791Y-74110001D01*
X107133422Y-74207782D01*
X107161943Y-74301805D01*
X107208260Y-74388457D01*
X107270591Y-74464409D01*
X107346543Y-74526740D01*
X107433195Y-74573057D01*
X107527218Y-74601578D01*
X107624999Y-74611209D01*
X108275001Y-74611209D01*
X108372782Y-74601578D01*
X108466805Y-74573057D01*
X108553457Y-74526740D01*
X108629409Y-74464409D01*
X108691740Y-74388457D01*
X108738057Y-74301805D01*
X108766578Y-74207782D01*
X108776209Y-74110001D01*
X108776209Y-73209999D01*
X108766578Y-73112218D01*
X108738057Y-73018195D01*
X108691740Y-72931543D01*
X108629409Y-72855591D01*
X108553457Y-72793260D01*
X108466805Y-72746943D01*
X108372782Y-72718422D01*
X108275001Y-72708791D01*
X107624999Y-72708791D01*
X107537718Y-72717388D01*
X106329999Y-71509670D01*
X106329999Y-67857885D01*
X106372110Y-67886022D01*
X106490402Y-67935021D01*
X106615981Y-67960000D01*
X106744019Y-67960000D01*
X106790437Y-67950767D01*
X107123791Y-68284121D01*
X107123791Y-69030001D01*
X107133422Y-69127782D01*
X107161943Y-69221805D01*
X107208260Y-69308457D01*
X107270591Y-69384409D01*
X107346543Y-69446740D01*
X107433195Y-69493057D01*
X107527218Y-69521578D01*
X107575001Y-69526284D01*
X107575000Y-70173716D01*
X107527218Y-70178422D01*
X107433195Y-70206943D01*
X107346543Y-70253260D01*
X107270591Y-70315591D01*
X107208260Y-70391543D01*
X107161943Y-70478195D01*
X107133422Y-70572218D01*
X107123791Y-70669999D01*
X107123791Y-71570001D01*
X107133422Y-71667782D01*
X107161943Y-71761805D01*
X107208260Y-71848457D01*
X107270591Y-71924409D01*
X107346543Y-71986740D01*
X107433195Y-72033057D01*
X107527218Y-72061578D01*
X107624999Y-72071209D01*
X108275001Y-72071209D01*
X108372782Y-72061578D01*
X108466805Y-72033057D01*
X108553457Y-71986740D01*
X108629409Y-71924409D01*
X108691740Y-71848457D01*
X108738057Y-71761805D01*
X108766578Y-71667782D01*
X108776209Y-71570001D01*
X108776209Y-70669999D01*
X108766578Y-70572218D01*
X108738057Y-70478195D01*
X108691740Y-70391543D01*
X108629409Y-70315591D01*
X108553457Y-70253260D01*
X108466805Y-70206943D01*
X108372782Y-70178422D01*
X108325000Y-70173716D01*
X108325000Y-69526284D01*
X108372782Y-69521578D01*
X108466805Y-69493057D01*
X108553457Y-69446740D01*
X108629409Y-69384409D01*
X108691740Y-69308457D01*
X108738057Y-69221805D01*
X108766578Y-69127782D01*
X108776209Y-69030001D01*
X108776209Y-68129999D01*
X108766578Y-68032218D01*
X108738057Y-67938195D01*
X108691740Y-67851543D01*
X108629409Y-67775591D01*
X108553457Y-67713260D01*
X108466805Y-67666943D01*
X108372782Y-67638422D01*
X108325000Y-67633716D01*
X108325000Y-66986284D01*
X108372782Y-66981578D01*
X108466805Y-66953057D01*
X108553457Y-66906740D01*
X108629409Y-66844409D01*
X108691740Y-66768457D01*
X108738057Y-66681805D01*
X108766578Y-66587782D01*
X108776209Y-66490001D01*
X108776209Y-65589999D01*
X108766578Y-65492218D01*
X108738057Y-65398195D01*
X108691740Y-65311543D01*
X108629409Y-65235591D01*
X108553457Y-65173260D01*
X108466805Y-65126943D01*
X108372782Y-65098422D01*
X108275001Y-65088791D01*
X107624999Y-65088791D01*
X107527218Y-65098422D01*
X107433195Y-65126943D01*
X107346543Y-65173260D01*
X107270591Y-65235591D01*
X107208260Y-65311543D01*
X107161943Y-65398195D01*
X107133422Y-65492218D01*
X107126073Y-65566834D01*
X107094351Y-65535112D01*
X107055000Y-65508819D01*
X107055000Y-64925329D01*
X107537718Y-64442612D01*
X107624999Y-64451209D01*
X108275001Y-64451209D01*
X108372782Y-64441578D01*
X108466805Y-64413057D01*
X108553457Y-64366740D01*
X108629409Y-64304409D01*
X108691740Y-64228457D01*
X108738057Y-64141805D01*
X108766578Y-64047782D01*
X108776209Y-63950001D01*
X108776209Y-63049999D01*
X108766578Y-62952218D01*
X108738057Y-62858195D01*
X108691740Y-62771543D01*
X108629409Y-62695591D01*
X108553457Y-62633260D01*
X108466805Y-62586943D01*
X108372782Y-62558422D01*
X108275001Y-62548791D01*
X107624999Y-62548791D01*
X107527218Y-62558422D01*
X107433195Y-62586943D01*
X107346543Y-62633260D01*
X107270591Y-62695591D01*
X107208260Y-62771543D01*
X107161943Y-62858195D01*
X107133422Y-62952218D01*
X107123791Y-63049999D01*
X107123791Y-63795879D01*
X106427861Y-64491809D01*
X106413553Y-64503552D01*
X106401811Y-64517860D01*
X106366691Y-64560654D01*
X106331870Y-64625800D01*
X106310427Y-64696488D01*
X106303186Y-64770000D01*
X106305001Y-64788426D01*
X106305000Y-65508819D01*
X106265649Y-65535112D01*
X106175112Y-65625649D01*
X106103978Y-65732110D01*
X106054979Y-65850402D01*
X106030000Y-65975981D01*
X106030000Y-66104019D01*
X106039233Y-66150437D01*
X105702860Y-66486811D01*
X105688552Y-66498553D01*
X105664901Y-66527372D01*
X105641690Y-66555655D01*
X105610003Y-66614938D01*
X105606869Y-66620801D01*
X105585426Y-66691488D01*
X105584785Y-66697992D01*
X105578185Y-66765001D01*
X105580000Y-66783427D01*
X105580000Y-68188773D01*
X105578130Y-68182609D01*
X105562484Y-68153337D01*
X105543309Y-68117462D01*
X105508188Y-68074668D01*
X105496447Y-68060361D01*
X105482138Y-68048618D01*
X104392448Y-66958929D01*
X104411805Y-66953057D01*
X104498457Y-66906740D01*
X104574409Y-66844409D01*
X104636740Y-66768457D01*
X104683057Y-66681805D01*
X104711578Y-66587782D01*
X104721209Y-66490001D01*
X104721209Y-65589999D01*
X104711578Y-65492218D01*
X104683057Y-65398195D01*
X104636740Y-65311543D01*
X104574409Y-65235591D01*
X104498457Y-65173260D01*
X104411805Y-65126943D01*
X104317782Y-65098422D01*
X104220001Y-65088791D01*
X103569999Y-65088791D01*
X103472218Y-65098422D01*
X103378195Y-65126943D01*
X103369990Y-65131329D01*
X103369990Y-64555339D01*
X103482717Y-64442612D01*
X103569999Y-64451209D01*
X104220001Y-64451209D01*
X104317782Y-64441578D01*
X104411805Y-64413057D01*
X104498457Y-64366740D01*
X104574409Y-64304409D01*
X104636740Y-64228457D01*
X104683057Y-64141805D01*
X104711578Y-64047782D01*
X104721209Y-63950001D01*
X104721209Y-63049999D01*
X104711578Y-62952218D01*
X104683057Y-62858195D01*
X104636740Y-62771543D01*
X104574409Y-62695591D01*
X104498457Y-62633260D01*
X104411805Y-62586943D01*
X104317782Y-62558422D01*
X104220001Y-62548791D01*
X103569999Y-62548791D01*
X103472218Y-62558422D01*
X103378195Y-62586943D01*
X103291543Y-62633260D01*
X103215591Y-62695591D01*
X103153260Y-62771543D01*
X103106943Y-62858195D01*
X103078422Y-62952218D01*
X103068791Y-63049999D01*
X103068791Y-63795880D01*
X102742852Y-64121819D01*
X102728543Y-64133562D01*
X102716801Y-64147870D01*
X102681681Y-64190664D01*
X102646860Y-64255810D01*
X102632118Y-64304409D01*
X102625417Y-64326498D01*
X102618176Y-64400010D01*
X102619991Y-64418436D01*
X102619991Y-65373750D01*
X102586740Y-65311543D01*
X102524409Y-65235591D01*
X102448457Y-65173260D01*
X102361805Y-65126943D01*
X102267782Y-65098422D01*
X102170001Y-65088791D01*
X101519999Y-65088791D01*
X101422218Y-65098422D01*
X101328195Y-65126943D01*
X101241543Y-65173260D01*
X101165591Y-65235591D01*
X101103260Y-65311543D01*
X101056943Y-65398195D01*
X101028422Y-65492218D01*
X101018791Y-65589999D01*
X101018791Y-65665000D01*
X99671654Y-65665000D01*
X99462514Y-65455861D01*
X99462514Y-64705981D01*
X99680000Y-64705981D01*
X99680000Y-64834019D01*
X99704979Y-64959598D01*
X99753978Y-65077890D01*
X99825112Y-65184351D01*
X99915649Y-65274888D01*
X100022110Y-65346022D01*
X100140402Y-65395021D01*
X100265981Y-65420000D01*
X100394019Y-65420000D01*
X100519598Y-65395021D01*
X100637890Y-65346022D01*
X100744351Y-65274888D01*
X100834888Y-65184351D01*
X100906022Y-65077890D01*
X100955021Y-64959598D01*
X100964777Y-64910553D01*
X101432718Y-64442612D01*
X101519999Y-64451209D01*
X102170001Y-64451209D01*
X102267782Y-64441578D01*
X102361805Y-64413057D01*
X102448457Y-64366740D01*
X102524409Y-64304409D01*
X102586740Y-64228457D01*
X102633057Y-64141805D01*
X102661578Y-64047782D01*
X102671209Y-63950001D01*
X102671209Y-63049999D01*
X102661578Y-62952218D01*
X102633057Y-62858195D01*
X102586740Y-62771543D01*
X102524409Y-62695591D01*
X102448457Y-62633260D01*
X102361805Y-62586943D01*
X102267782Y-62558422D01*
X102170001Y-62548791D01*
X101519999Y-62548791D01*
X101422218Y-62558422D01*
X101328195Y-62586943D01*
X101241543Y-62633260D01*
X101165591Y-62695591D01*
X101103260Y-62771543D01*
X101056943Y-62858195D01*
X101028422Y-62952218D01*
X101018791Y-63049999D01*
X101018791Y-63795879D01*
X100625730Y-64188941D01*
X100519598Y-64144979D01*
X100394019Y-64120000D01*
X100265981Y-64120000D01*
X100140402Y-64144979D01*
X100022110Y-64193978D01*
X99915649Y-64265112D01*
X99825112Y-64355649D01*
X99753978Y-64462110D01*
X99704979Y-64580402D01*
X99680000Y-64705981D01*
X99462514Y-64705981D01*
X99462514Y-63947226D01*
X99464328Y-63928810D01*
X99459510Y-63879892D01*
X99457088Y-63855297D01*
X99435645Y-63784610D01*
X99424584Y-63763917D01*
X99400824Y-63719463D01*
X99365703Y-63676669D01*
X99353962Y-63662362D01*
X99339653Y-63650619D01*
X98909385Y-63220352D01*
X98897638Y-63206038D01*
X98840537Y-63159177D01*
X98775390Y-63124355D01*
X98704703Y-63102912D01*
X98649609Y-63097486D01*
X98649606Y-63097486D01*
X98631190Y-63095672D01*
X98612774Y-63097486D01*
X96199858Y-63097486D01*
X96181442Y-63095672D01*
X96163026Y-63097486D01*
X96163023Y-63097486D01*
X96107929Y-63102912D01*
X96037242Y-63124355D01*
X96016549Y-63135416D01*
X95972095Y-63159176D01*
X95939334Y-63186063D01*
X95914994Y-63206038D01*
X95903251Y-63220347D01*
X95748175Y-63375423D01*
X95602130Y-63314929D01*
X95389613Y-63272656D01*
X95172931Y-63272656D01*
X94960414Y-63314929D01*
X94760227Y-63397849D01*
X94580063Y-63518231D01*
X94426847Y-63671447D01*
X94306465Y-63851611D01*
X94223545Y-64051798D01*
X94181272Y-64264315D01*
X94181272Y-64480997D01*
X94223545Y-64693514D01*
X94232262Y-64714559D01*
X92618824Y-66327999D01*
X92599736Y-66343664D01*
X92537254Y-66419799D01*
X92490825Y-66506662D01*
X92474203Y-66561457D01*
X92462235Y-66600911D01*
X92452581Y-66698928D01*
X92455000Y-66723488D01*
X92455001Y-74011845D01*
X92438195Y-74016943D01*
X92351543Y-74063260D01*
X92275591Y-74125591D01*
X92213260Y-74201543D01*
X92166943Y-74288195D01*
X92138422Y-74382218D01*
X92128791Y-74479999D01*
X92128791Y-75049102D01*
X87828825Y-79349070D01*
X87809737Y-79364735D01*
X87747255Y-79440870D01*
X87700826Y-79527733D01*
X87692114Y-79556453D01*
X87672236Y-79621982D01*
X87662582Y-79719999D01*
X87665001Y-79744559D01*
X87665001Y-84530440D01*
X87665002Y-87368791D01*
X85615001Y-87368791D01*
X85565993Y-87373618D01*
X85518867Y-87387913D01*
X85475437Y-87411127D01*
X85437369Y-87442368D01*
X85406128Y-87480436D01*
X85382914Y-87523866D01*
X85368619Y-87570992D01*
X85363792Y-87620000D01*
X82823173Y-87620000D01*
X82822468Y-87592142D01*
X82832909Y-86977257D01*
X82864048Y-86366864D01*
X82915529Y-85762119D01*
X82987015Y-85163328D01*
X83078168Y-84570807D01*
X83188635Y-83984973D01*
X83318093Y-83406073D01*
X83466199Y-82834458D01*
X83632618Y-82270456D01*
X83817014Y-81714390D01*
X84019026Y-81166667D01*
X84238351Y-80627523D01*
X84474644Y-80097318D01*
X84727547Y-79576429D01*
X84996738Y-79065160D01*
X85281874Y-78563855D01*
X85582633Y-78072822D01*
X85898658Y-77592433D01*
X86229615Y-77123014D01*
X86575179Y-76664889D01*
X86934986Y-76218422D01*
X87308731Y-75783910D01*
X87696021Y-75361754D01*
X88096569Y-74952231D01*
X88510016Y-74555698D01*
X88936023Y-74172495D01*
X89374256Y-73802952D01*
X89824370Y-73447410D01*
X90286001Y-73106224D01*
X90758864Y-72779690D01*
X91242563Y-72468183D01*
X91739579Y-72170348D01*
X91745709Y-72165806D01*
X91752325Y-72162034D01*
X91761348Y-72154221D01*
X91770943Y-72147112D01*
X91776068Y-72141473D01*
X91781832Y-72136482D01*
X91789168Y-72127061D01*
X91797197Y-72118227D01*
X91801132Y-72111696D01*
X91805813Y-72105684D01*
X91811177Y-72095022D01*
X91817340Y-72084793D01*
X91819931Y-72077624D01*
X91823356Y-72070816D01*
X91826547Y-72059315D01*
X91830606Y-72048083D01*
X91831756Y-72040542D01*
X91833792Y-72033203D01*
X91834687Y-72021313D01*
X91836489Y-72009496D01*
X91836152Y-72001869D01*
X91836723Y-71994281D01*
X91835292Y-71982441D01*
X91834764Y-71970501D01*
X91832954Y-71963096D01*
X91832040Y-71955530D01*
X91828331Y-71944178D01*
X91825498Y-71932584D01*
X91822286Y-71925675D01*
X91819918Y-71918426D01*
X91814075Y-71908012D01*
X91809044Y-71897188D01*
X91804550Y-71891032D01*
X91800820Y-71884384D01*
X91793066Y-71875303D01*
X91786028Y-71865663D01*
X91780424Y-71860497D01*
X91775473Y-71854699D01*
X91766108Y-71847301D01*
X91757328Y-71839208D01*
X91750821Y-71835225D01*
X91744844Y-71830504D01*
X91734225Y-71825068D01*
X91724035Y-71818831D01*
X91716884Y-71816190D01*
X91710099Y-71812717D01*
X91698615Y-71809444D01*
X91687419Y-71805310D01*
X91679893Y-71804109D01*
X91672560Y-71802019D01*
X91669810Y-71801539D01*
X87961697Y-71180517D01*
X87877005Y-71161861D01*
X87803446Y-71137609D01*
X87694780Y-71085937D01*
X87598196Y-71021007D01*
X87512474Y-70943205D01*
X87438871Y-70854145D01*
X87378650Y-70755537D01*
X87333023Y-70649145D01*
X87303104Y-70536675D01*
X87289656Y-70417103D01*
X87290693Y-70339671D01*
X87300650Y-70253511D01*
X87794718Y-67303521D01*
X87813376Y-67218816D01*
X87837627Y-67145261D01*
X87889298Y-67036597D01*
X87954230Y-66940009D01*
X88032029Y-66854292D01*
X88121091Y-66780687D01*
X88219699Y-66720466D01*
X88326091Y-66674839D01*
X88438561Y-66644920D01*
X88558132Y-66631472D01*
X88635565Y-66632509D01*
X88721729Y-66642466D01*
X91251500Y-67066147D01*
X91255195Y-67066399D01*
X91258808Y-67067233D01*
X91261579Y-67067572D01*
X91362905Y-67079280D01*
X91371675Y-67079432D01*
X91380393Y-67080528D01*
X91383185Y-67080584D01*
X91483351Y-67081925D01*
X91494450Y-67080986D01*
X91505603Y-67080983D01*
X91508380Y-67080690D01*
X91655164Y-67064182D01*
X91668259Y-67061394D01*
X91681523Y-67059413D01*
X91684226Y-67058714D01*
X91825078Y-67021246D01*
X91837362Y-67016654D01*
X91849918Y-67012860D01*
X91852492Y-67011777D01*
X91985420Y-66954770D01*
X91996724Y-66948553D01*
X92008441Y-66943086D01*
X92010833Y-66941647D01*
X92133847Y-66866521D01*
X92144094Y-66858796D01*
X92154851Y-66851764D01*
X92157015Y-66850000D01*
X92268123Y-66758177D01*
X92277228Y-66749018D01*
X92286921Y-66740480D01*
X92288811Y-66738425D01*
X92386017Y-66631325D01*
X92393834Y-66620810D01*
X92402327Y-66610799D01*
X92403900Y-66608492D01*
X92485214Y-66487536D01*
X92491563Y-66475750D01*
X92498637Y-66464355D01*
X92499853Y-66461842D01*
X92563283Y-66328451D01*
X92567064Y-66317966D01*
X92571714Y-66307833D01*
X92572607Y-66305187D01*
X92603973Y-66210052D01*
X92605894Y-66201491D01*
X92608728Y-66193178D01*
X92609347Y-66190455D01*
X92631290Y-66090847D01*
X92631730Y-66087172D01*
X92632746Y-66083606D01*
X92633226Y-66080855D01*
X93511470Y-60836886D01*
X99536932Y-60836886D01*
X99536932Y-61083114D01*
X99584969Y-61324611D01*
X99679197Y-61552097D01*
X99815994Y-61756828D01*
X99990104Y-61930938D01*
X100194835Y-62067735D01*
X100422321Y-62161963D01*
X100663818Y-62210000D01*
X100910046Y-62210000D01*
X101151543Y-62161963D01*
X101379029Y-62067735D01*
X101583760Y-61930938D01*
X101757870Y-61756828D01*
X101894667Y-61552097D01*
X101988895Y-61324611D01*
X102036932Y-61083114D01*
X102036932Y-60836886D01*
X101988895Y-60595389D01*
X101894667Y-60367903D01*
X101757870Y-60163172D01*
X101583760Y-59989062D01*
X101379029Y-59852265D01*
X101151543Y-59758037D01*
X100910046Y-59710000D01*
X100663818Y-59710000D01*
X100422321Y-59758037D01*
X100194835Y-59852265D01*
X99990104Y-59989062D01*
X99815994Y-60163172D01*
X99679197Y-60367903D01*
X99584969Y-60595389D01*
X99536932Y-60836886D01*
X93511470Y-60836886D01*
X93901989Y-58505116D01*
X93920648Y-58420408D01*
X93944899Y-58346853D01*
X93996570Y-58238189D01*
X94061499Y-58141605D01*
X94139305Y-58055880D01*
X94228362Y-57982279D01*
X94326970Y-57922058D01*
X94433363Y-57876430D01*
X94545833Y-57846512D01*
X94665404Y-57833064D01*
X94742836Y-57834101D01*
G37*
X94742836Y-57834101D02*
X94829001Y-57844058D01*
X113823955Y-61025278D01*
X113908672Y-61043939D01*
X113982216Y-61068186D01*
X114090883Y-61119858D01*
X114187470Y-61184788D01*
X114273187Y-61262584D01*
X114346796Y-61351649D01*
X114407014Y-61450252D01*
X114452639Y-61556639D01*
X114482558Y-61669116D01*
X114496007Y-61788689D01*
X114494970Y-61866128D01*
X114485015Y-61952282D01*
X113216229Y-69528028D01*
X113215977Y-69531720D01*
X113215145Y-69535325D01*
X113214805Y-69538096D01*
X113203092Y-69639419D01*
X113202940Y-69648192D01*
X113201843Y-69656911D01*
X113201787Y-69659703D01*
X113200443Y-69759867D01*
X113201381Y-69770968D01*
X113201384Y-69782120D01*
X113201677Y-69784897D01*
X113218181Y-69931678D01*
X113220970Y-69944782D01*
X113222950Y-69958038D01*
X113223650Y-69960741D01*
X113261115Y-70101593D01*
X113265705Y-70113873D01*
X113269500Y-70126434D01*
X113270583Y-70129008D01*
X113327589Y-70261938D01*
X113333809Y-70273246D01*
X113339273Y-70284958D01*
X113340712Y-70287351D01*
X113415837Y-70410365D01*
X113423562Y-70420612D01*
X113430595Y-70431371D01*
X113432359Y-70433536D01*
X113524183Y-70544644D01*
X113533338Y-70553744D01*
X113541878Y-70563440D01*
X113543933Y-70565331D01*
X113651035Y-70662540D01*
X113661551Y-70670358D01*
X113671562Y-70678851D01*
X113673869Y-70680424D01*
X113794828Y-70761740D01*
X113806621Y-70768093D01*
X113818010Y-70775163D01*
X113820523Y-70776380D01*
X113953918Y-70839811D01*
X113964405Y-70843593D01*
X113974535Y-70848241D01*
X113977181Y-70849134D01*
X114072318Y-70880501D01*
X114080885Y-70882423D01*
X114089195Y-70885256D01*
X114091918Y-70885875D01*
X114191531Y-70907818D01*
X114195203Y-70908257D01*
X114198770Y-70909274D01*
X114201521Y-70909754D01*
X116731311Y-71333434D01*
X116816031Y-71352096D01*
X116889575Y-71376343D01*
X116998242Y-71428015D01*
X117094832Y-71492947D01*
X117180552Y-71570747D01*
X117254152Y-71659802D01*
X117314372Y-71758407D01*
X117360000Y-71864801D01*
X117389918Y-71977269D01*
X117403366Y-72096843D01*
X117402329Y-72174284D01*
X117392374Y-72260442D01*
X116898325Y-75210418D01*
X116879668Y-75295116D01*
X116855419Y-75368666D01*
X116803749Y-75477331D01*
X116738813Y-75573926D01*
X116661021Y-75659639D01*
X116571959Y-75733246D01*
X116473355Y-75793465D01*
X116366960Y-75839093D01*
X116254493Y-75869011D01*
X116134918Y-75882459D01*
X116057478Y-75881422D01*
X115971320Y-75871467D01*
X114227563Y-75579431D01*
X114219268Y-75578864D01*
X114211098Y-75577372D01*
X114199849Y-75577538D01*
X114188620Y-75576771D01*
X114180382Y-75577825D01*
X114172070Y-75577948D01*
X114161059Y-75580298D01*
X114149903Y-75581726D01*
X114142025Y-75584361D01*
X114133896Y-75586096D01*
X114123552Y-75590540D01*
X114112886Y-75594107D01*
X114105672Y-75598220D01*
X114098033Y-75601502D01*
X114088752Y-75607868D01*
X114078977Y-75613442D01*
X114072692Y-75618885D01*
X114065844Y-75623582D01*
X114057988Y-75631618D01*
X114049470Y-75638994D01*
X114044357Y-75645560D01*
X114038557Y-75651493D01*
X114032409Y-75660905D01*
X114025489Y-75669792D01*
X114021753Y-75677217D01*
X114017211Y-75684171D01*
X114013004Y-75694608D01*
X114007947Y-75704660D01*
X114005726Y-75712663D01*
X114002618Y-75720375D01*
X114000517Y-75731439D01*
X113997511Y-75742273D01*
X113996887Y-75750553D01*
X113995336Y-75758722D01*
X113995424Y-75769979D01*
X113994579Y-75781196D01*
X113995576Y-75789445D01*
X113995641Y-75797755D01*
X113997913Y-75808774D01*
X113999263Y-75819946D01*
X114001845Y-75827849D01*
X114003522Y-75835984D01*
X114007889Y-75846350D01*
X114011385Y-75857050D01*
X114015451Y-75864298D01*
X114018677Y-75871955D01*
X114024976Y-75881276D01*
X114030482Y-75891092D01*
X114035880Y-75897413D01*
X114040531Y-75904297D01*
X114042328Y-75906434D01*
X114296037Y-76204041D01*
X114541997Y-76505553D01*
X114781410Y-76812394D01*
X115014284Y-77124610D01*
X115240420Y-77441969D01*
X115459749Y-77764423D01*
X115672154Y-78091848D01*
X115877539Y-78424161D01*
X116075799Y-78761255D01*
X116266812Y-79103005D01*
X116450492Y-79449341D01*
X116626704Y-79800104D01*
X116795370Y-80155248D01*
X116956365Y-80514628D01*
X117109594Y-80878167D01*
X117254935Y-81245723D01*
X117392309Y-81617261D01*
X117521592Y-81992636D01*
X117642667Y-82371710D01*
X117755455Y-82754461D01*
X117859811Y-83140656D01*
X117955676Y-83530377D01*
X118042913Y-83923388D01*
X118121411Y-84319575D01*
X118191084Y-84718921D01*
X118251814Y-85121283D01*
X118303488Y-85526510D01*
X118346013Y-85934588D01*
X118379277Y-86345396D01*
X118403167Y-86758782D01*
X118417580Y-87174657D01*
X118422394Y-87591611D01*
X118399193Y-88509139D01*
X118330451Y-89413153D01*
X118217250Y-90304001D01*
X118060723Y-91180505D01*
X117861979Y-92041618D01*
X117622142Y-92886209D01*
X117342321Y-93713194D01*
X117023626Y-94521475D01*
X116667194Y-95309885D01*
X116274114Y-96077363D01*
X115845527Y-96822748D01*
X115382528Y-97544957D01*
X114886238Y-98242861D01*
X114357795Y-98915311D01*
X113798298Y-99561216D01*
X113208884Y-100179434D01*
X112590666Y-100768848D01*
X111944761Y-101328345D01*
X111272298Y-101856798D01*
X110574398Y-102353084D01*
X109852198Y-102816077D01*
X109106805Y-103244669D01*
X108339318Y-103637752D01*
X107550925Y-103994176D01*
X106742644Y-104312871D01*
X105915660Y-104592692D01*
X105071068Y-104832529D01*
X104209958Y-105031272D01*
X103333451Y-105187800D01*
X102442605Y-105301001D01*
X101538589Y-105369743D01*
X100622424Y-105392909D01*
X99706258Y-105369743D01*
X98802244Y-105301001D01*
X97911396Y-105187800D01*
X97034892Y-105031273D01*
X96173779Y-104832529D01*
X95329188Y-104592692D01*
X94502203Y-104312871D01*
X93693922Y-103994176D01*
X92905512Y-103637744D01*
X92138034Y-103244664D01*
X91392649Y-102816077D01*
X90670440Y-102353078D01*
X89972536Y-101856788D01*
X89300086Y-101328345D01*
X88654181Y-100768848D01*
X88035964Y-100179434D01*
X87446549Y-99561216D01*
X86887052Y-98915311D01*
X86358599Y-98242848D01*
X85862313Y-97544948D01*
X85399320Y-96822748D01*
X84970728Y-96077355D01*
X84577645Y-95309868D01*
X84221221Y-94521475D01*
X83902526Y-93713194D01*
X83622705Y-92886210D01*
X83382868Y-92041618D01*
X83184125Y-91180508D01*
X83027597Y-90304001D01*
X82914396Y-89413155D01*
X82845654Y-88509139D01*
X82823173Y-87620000D01*
X85363792Y-87620000D01*
X85363792Y-92720000D01*
X85368619Y-92769008D01*
X85382914Y-92816134D01*
X85406128Y-92859564D01*
X85437369Y-92897632D01*
X85475437Y-92928873D01*
X85518867Y-92952087D01*
X85565993Y-92966382D01*
X85615001Y-92971209D01*
X87665002Y-92971209D01*
X87665002Y-93195430D01*
X87662582Y-93220000D01*
X87672236Y-93318017D01*
X87696850Y-93399157D01*
X87700827Y-93412267D01*
X87747256Y-93499129D01*
X87809738Y-93575264D01*
X87828820Y-93590924D01*
X94094082Y-99856188D01*
X94109738Y-99875265D01*
X94185873Y-99937747D01*
X94272735Y-99984176D01*
X94366985Y-100012766D01*
X94465002Y-100022420D01*
X94489562Y-100020001D01*
X107440440Y-100020001D01*
X107465000Y-100022420D01*
X107489560Y-100020001D01*
X107563017Y-100012766D01*
X107657267Y-99984176D01*
X107744129Y-99937747D01*
X107820264Y-99875265D01*
X107835929Y-99856177D01*
X114101188Y-93590920D01*
X114120265Y-93575264D01*
X114182747Y-93499129D01*
X114229176Y-93412267D01*
X114257766Y-93318017D01*
X114265001Y-93244560D01*
X114265001Y-93244559D01*
X114267420Y-93220000D01*
X114265001Y-93195440D01*
X114265001Y-92971209D01*
X116315001Y-92971209D01*
X116364009Y-92966382D01*
X116411135Y-92952087D01*
X116454565Y-92928873D01*
X116492633Y-92897632D01*
X116523874Y-92859564D01*
X116547088Y-92816134D01*
X116561383Y-92769008D01*
X116566210Y-92720000D01*
X116566210Y-87620000D01*
X116561383Y-87570992D01*
X116547088Y-87523866D01*
X116523874Y-87480436D01*
X116492633Y-87442368D01*
X116454565Y-87411127D01*
X116411135Y-87387913D01*
X116364009Y-87373618D01*
X116315001Y-87368791D01*
X111215001Y-87368791D01*
X111165993Y-87373618D01*
X111118867Y-87387913D01*
X111075437Y-87411127D01*
X111037369Y-87442368D01*
X111006128Y-87480436D01*
X110982914Y-87523866D01*
X110968619Y-87570992D01*
X110963792Y-87620000D01*
X110963792Y-92720000D01*
X110968619Y-92769008D01*
X110982914Y-92816134D01*
X111006128Y-92859564D01*
X111037369Y-92897632D01*
X111075437Y-92928873D01*
X111118867Y-92952087D01*
X111165993Y-92966382D01*
X111215001Y-92971209D01*
X113265001Y-92971209D01*
X113265001Y-93012893D01*
X107257895Y-99020001D01*
X103289061Y-99020001D01*
X104194158Y-98778555D01*
X105811556Y-97983166D01*
X106328728Y-97637602D01*
X107386687Y-96662397D01*
X100965001Y-90240711D01*
X94543315Y-96662397D01*
X95601274Y-97637602D01*
X97161193Y-98540526D01*
X98568560Y-99020001D01*
X94672109Y-99020001D01*
X88665001Y-93012895D01*
X88665001Y-92971209D01*
X90715001Y-92971209D01*
X90764009Y-92966382D01*
X90811135Y-92952087D01*
X90854565Y-92928873D01*
X90892633Y-92897632D01*
X90923874Y-92859564D01*
X90947088Y-92816134D01*
X90961383Y-92769008D01*
X90966210Y-92720000D01*
X90966210Y-89859001D01*
X91775989Y-89859001D01*
X91891881Y-91657664D01*
X92356446Y-93399157D01*
X93151835Y-95016555D01*
X93497399Y-95533727D01*
X94472604Y-96591686D01*
X100894290Y-90170000D01*
X101035712Y-90170000D01*
X107457398Y-96591686D01*
X108432603Y-95533727D01*
X109335527Y-93973808D01*
X109916776Y-92267711D01*
X110154013Y-90480999D01*
X110038121Y-88682336D01*
X109573556Y-86940843D01*
X108778167Y-85323445D01*
X108432603Y-84806273D01*
X107457398Y-83748314D01*
X101035712Y-90170000D01*
X100894290Y-90170000D01*
X94472604Y-83748314D01*
X93497399Y-84806273D01*
X92594475Y-86366192D01*
X92013226Y-88072289D01*
X91775989Y-89859001D01*
X90966210Y-89859001D01*
X90966210Y-87620000D01*
X90961383Y-87570992D01*
X90947088Y-87523866D01*
X90923874Y-87480436D01*
X90892633Y-87442368D01*
X90854565Y-87411127D01*
X90811135Y-87387913D01*
X90764009Y-87373618D01*
X90715001Y-87368791D01*
X88665001Y-87368791D01*
X88665001Y-85025981D01*
X90790000Y-85025981D01*
X90790000Y-85154019D01*
X90814979Y-85279598D01*
X90863978Y-85397890D01*
X90935112Y-85504351D01*
X91025649Y-85594888D01*
X91132110Y-85666022D01*
X91250402Y-85715021D01*
X91375981Y-85740000D01*
X91504019Y-85740000D01*
X91629598Y-85715021D01*
X91747890Y-85666022D01*
X91854351Y-85594888D01*
X91944888Y-85504351D01*
X92016022Y-85397890D01*
X92065021Y-85279598D01*
X92090000Y-85154019D01*
X92090000Y-85025981D01*
X92065021Y-84900402D01*
X92016022Y-84782110D01*
X91944888Y-84675649D01*
X91854351Y-84585112D01*
X91815000Y-84558819D01*
X91815000Y-83677603D01*
X94543315Y-83677603D01*
X100965001Y-90099289D01*
X107386687Y-83677603D01*
X106328728Y-82702398D01*
X104768809Y-81799474D01*
X103062712Y-81218225D01*
X101276000Y-80980988D01*
X99477337Y-81096880D01*
X97735844Y-81561445D01*
X96118446Y-82356834D01*
X95601274Y-82702398D01*
X94543315Y-83677603D01*
X91815000Y-83677603D01*
X91815000Y-82705329D01*
X97220329Y-77300001D01*
X98699669Y-77300001D01*
X95360438Y-80639233D01*
X95314019Y-80630000D01*
X95185981Y-80630000D01*
X95060402Y-80654979D01*
X94942110Y-80703978D01*
X94835649Y-80775112D01*
X94745112Y-80865649D01*
X94673978Y-80972110D01*
X94624979Y-81090402D01*
X94600000Y-81215981D01*
X94600000Y-81344019D01*
X94624979Y-81469598D01*
X94673978Y-81587890D01*
X94745112Y-81694351D01*
X94835649Y-81784888D01*
X94942110Y-81856022D01*
X95060402Y-81905021D01*
X95185981Y-81930000D01*
X95314019Y-81930000D01*
X95439598Y-81905021D01*
X95557890Y-81856022D01*
X95664351Y-81784888D01*
X95754888Y-81694351D01*
X95826022Y-81587890D01*
X95875021Y-81469598D01*
X95900000Y-81344019D01*
X95900000Y-81215981D01*
X95890767Y-81169562D01*
X99215330Y-77845000D01*
X101552758Y-77845000D01*
X100796823Y-78600936D01*
X100750404Y-78591703D01*
X100622366Y-78591703D01*
X100496787Y-78616682D01*
X100378495Y-78665681D01*
X100272034Y-78736815D01*
X100181497Y-78827352D01*
X100110363Y-78933813D01*
X100061364Y-79052105D01*
X100036385Y-79177684D01*
X100036385Y-79305722D01*
X100061364Y-79431301D01*
X100110363Y-79549593D01*
X100181497Y-79656054D01*
X100272034Y-79746591D01*
X100378495Y-79817725D01*
X100496787Y-79866724D01*
X100622366Y-79891703D01*
X100750404Y-79891703D01*
X100875983Y-79866724D01*
X100994275Y-79817725D01*
X101100736Y-79746591D01*
X101191273Y-79656054D01*
X101262407Y-79549593D01*
X101311406Y-79431301D01*
X101336385Y-79305722D01*
X101336385Y-79177684D01*
X101327152Y-79131265D01*
X102163408Y-78295010D01*
X107695671Y-78295010D01*
X106355681Y-79635000D01*
X105941181Y-79635000D01*
X105914888Y-79595649D01*
X105824351Y-79505112D01*
X105717890Y-79433978D01*
X105599598Y-79384979D01*
X105474019Y-79360000D01*
X105345981Y-79360000D01*
X105220402Y-79384979D01*
X105102110Y-79433978D01*
X104995649Y-79505112D01*
X104905112Y-79595649D01*
X104833978Y-79702110D01*
X104784979Y-79820402D01*
X104760000Y-79945981D01*
X104760000Y-80074019D01*
X104784979Y-80199598D01*
X104833978Y-80317890D01*
X104905112Y-80424351D01*
X104995649Y-80514888D01*
X105102110Y-80586022D01*
X105220402Y-80635021D01*
X105345981Y-80660000D01*
X105474019Y-80660000D01*
X105599598Y-80635021D01*
X105717890Y-80586022D01*
X105824351Y-80514888D01*
X105914888Y-80424351D01*
X105941181Y-80385000D01*
X106492594Y-80385000D01*
X106511010Y-80386814D01*
X106529426Y-80385000D01*
X106529429Y-80385000D01*
X106584523Y-80379574D01*
X106655210Y-80358131D01*
X106720357Y-80323309D01*
X106777458Y-80276448D01*
X106789205Y-80262134D01*
X111875038Y-75176302D01*
X111875038Y-83174632D01*
X110600438Y-84449233D01*
X110554019Y-84440000D01*
X110425981Y-84440000D01*
X110300402Y-84464979D01*
X110182110Y-84513978D01*
X110075649Y-84585112D01*
X109985112Y-84675649D01*
X109913978Y-84782110D01*
X109864979Y-84900402D01*
X109840000Y-85025981D01*
X109840000Y-85154019D01*
X109864979Y-85279598D01*
X109913978Y-85397890D01*
X109985112Y-85504351D01*
X110075649Y-85594888D01*
X110182110Y-85666022D01*
X110300402Y-85715021D01*
X110425981Y-85740000D01*
X110554019Y-85740000D01*
X110679598Y-85715021D01*
X110797890Y-85666022D01*
X110904351Y-85594888D01*
X110994888Y-85504351D01*
X111066022Y-85397890D01*
X111115021Y-85279598D01*
X111140000Y-85154019D01*
X111140000Y-85025981D01*
X111130767Y-84979562D01*
X112502176Y-83608154D01*
X112516485Y-83596411D01*
X112563346Y-83539310D01*
X112598168Y-83474163D01*
X112619611Y-83403476D01*
X112625037Y-83348382D01*
X112625037Y-83348380D01*
X112626851Y-83329964D01*
X112625037Y-83311548D01*
X112625037Y-65768453D01*
X112626851Y-65750037D01*
X112625037Y-65731618D01*
X112619611Y-65676524D01*
X112598168Y-65605837D01*
X112563346Y-65540690D01*
X112516485Y-65483589D01*
X112502177Y-65471847D01*
X110826209Y-63795880D01*
X110826209Y-63049999D01*
X110816578Y-62952218D01*
X110788057Y-62858195D01*
X110741740Y-62771543D01*
X110679409Y-62695591D01*
X110603457Y-62633260D01*
X110516805Y-62586943D01*
X110422782Y-62558422D01*
X110325001Y-62548791D01*
X109674999Y-62548791D01*
X109577218Y-62558422D01*
X109483195Y-62586943D01*
X109396543Y-62633260D01*
X109320591Y-62695591D01*
X109258260Y-62771543D01*
X109211943Y-62858195D01*
X109183422Y-62952218D01*
X109173791Y-63049999D01*
X109173791Y-63950001D01*
X109183422Y-64047782D01*
X109211943Y-64141805D01*
X109258260Y-64228457D01*
X109320591Y-64304409D01*
X109396543Y-64366740D01*
X109483195Y-64413057D01*
X109577218Y-64441578D01*
X109674999Y-64451209D01*
X110325001Y-64451209D01*
X110412283Y-64442612D01*
X111875037Y-65905367D01*
X111875037Y-67384707D01*
X110826209Y-66335880D01*
X110826209Y-66318954D01*
X110841448Y-66306448D01*
X110888309Y-66249347D01*
X110923131Y-66184200D01*
X110944574Y-66113513D01*
X110951814Y-66040000D01*
X110944574Y-65966487D01*
X110923131Y-65895800D01*
X110888309Y-65830653D01*
X110841448Y-65773552D01*
X110826209Y-65761046D01*
X110826209Y-65589999D01*
X110816578Y-65492218D01*
X110788057Y-65398195D01*
X110741740Y-65311543D01*
X110679409Y-65235591D01*
X110603457Y-65173260D01*
X110516805Y-65126943D01*
X110422782Y-65098422D01*
X110325001Y-65088791D01*
X109674999Y-65088791D01*
X109577218Y-65098422D01*
X109483195Y-65126943D01*
X109396543Y-65173260D01*
X109320591Y-65235591D01*
X109258260Y-65311543D01*
X109211943Y-65398195D01*
X109183422Y-65492218D01*
X109173791Y-65589999D01*
X109173791Y-66490001D01*
X109183422Y-66587782D01*
X109211943Y-66681805D01*
X109258260Y-66768457D01*
X109320591Y-66844409D01*
X109396543Y-66906740D01*
X109483195Y-66953057D01*
X109577218Y-66981578D01*
X109674999Y-66991209D01*
X110325001Y-66991209D01*
X110412283Y-66982612D01*
X111425028Y-67995358D01*
X111425028Y-69474698D01*
X110826209Y-68875880D01*
X110826209Y-68129999D01*
X110816578Y-68032218D01*
X110788057Y-67938195D01*
X110741740Y-67851543D01*
X110679409Y-67775591D01*
X110603457Y-67713260D01*
X110516805Y-67666943D01*
X110422782Y-67638422D01*
X110325001Y-67628791D01*
X109674999Y-67628791D01*
X109577218Y-67638422D01*
X109483195Y-67666943D01*
X109396543Y-67713260D01*
X109320591Y-67775591D01*
X109258260Y-67851543D01*
X109211943Y-67938195D01*
X109183422Y-68032218D01*
X109173791Y-68129999D01*
X109173791Y-69030001D01*
X109183422Y-69127782D01*
X109211943Y-69221805D01*
X109258260Y-69308457D01*
X109320591Y-69384409D01*
X109396543Y-69446740D01*
X109483195Y-69493057D01*
X109577218Y-69521578D01*
X109674999Y-69531209D01*
X110325001Y-69531209D01*
X110412283Y-69522612D01*
X110975019Y-70085349D01*
X110975019Y-71564690D01*
X110826209Y-71415879D01*
X110826209Y-70669999D01*
X110816578Y-70572218D01*
X110788057Y-70478195D01*
X110741740Y-70391543D01*
X110679409Y-70315591D01*
X110603457Y-70253260D01*
X110516805Y-70206943D01*
X110422782Y-70178422D01*
X110325001Y-70168791D01*
X109674999Y-70168791D01*
X109577218Y-70178422D01*
X109483195Y-70206943D01*
X109396543Y-70253260D01*
X109320591Y-70315591D01*
X109258260Y-70391543D01*
X109211943Y-70478195D01*
X109183422Y-70572218D01*
X109173791Y-70669999D01*
X109173791Y-71570001D01*
X109183422Y-71667782D01*
X109211943Y-71761805D01*
X109258260Y-71848457D01*
X109320591Y-71924409D01*
X109396543Y-71986740D01*
X109483195Y-72033057D01*
X109577218Y-72061578D01*
X109674999Y-72071209D01*
X110325001Y-72071209D01*
X110412282Y-72062612D01*
X110525010Y-72175340D01*
X110525010Y-72751329D01*
X110516805Y-72746943D01*
X110422782Y-72718422D01*
X110325001Y-72708791D01*
X109674999Y-72708791D01*
X109577218Y-72718422D01*
X109483195Y-72746943D01*
X109396543Y-72793260D01*
X109320591Y-72855591D01*
X109258260Y-72931543D01*
X109211943Y-73018195D01*
X109183422Y-73112218D01*
X109173791Y-73209999D01*
X109173791Y-73955879D01*
X106579670Y-76550001D01*
X97083415Y-76550001D01*
X97064999Y-76548187D01*
X97046583Y-76550001D01*
X97046580Y-76550001D01*
X96991486Y-76555427D01*
X96920799Y-76576870D01*
X96855652Y-76611692D01*
X96798551Y-76658553D01*
X96786809Y-76672861D01*
X91187866Y-82271805D01*
X91173552Y-82283552D01*
X91126691Y-82340654D01*
X91091869Y-82405801D01*
X91070426Y-82476488D01*
X91066121Y-82520199D01*
X91063186Y-82550000D01*
X91065000Y-82568416D01*
X91065001Y-83801572D01*
X91065000Y-83801582D01*
X91065001Y-84558818D01*
X91025649Y-84585112D01*
X90935112Y-84675649D01*
X90863978Y-84782110D01*
X90814979Y-84900402D01*
X90790000Y-85025981D01*
X88665001Y-85025981D01*
X88665001Y-79927104D01*
X92710898Y-75881209D01*
X93280001Y-75881209D01*
X93377782Y-75871578D01*
X93471805Y-75843057D01*
X93558457Y-75796740D01*
X93634409Y-75734409D01*
X93696740Y-75658457D01*
X93743057Y-75571805D01*
X93771578Y-75477782D01*
X93781209Y-75380001D01*
X93781209Y-74479999D01*
X93771578Y-74382218D01*
X93743057Y-74288195D01*
X93696740Y-74201543D01*
X93634409Y-74125591D01*
X93558457Y-74063260D01*
X93471805Y-74016943D01*
X93455000Y-74011845D01*
X93455000Y-70421541D01*
X94373846Y-70421541D01*
X94536585Y-70488979D01*
X94750003Y-70458109D01*
X94953297Y-70386198D01*
X95138656Y-70276008D01*
X95298955Y-70131773D01*
X95428037Y-69959037D01*
X95516215Y-69777233D01*
X95502299Y-69601610D01*
X94528148Y-69447319D01*
X94373846Y-70421541D01*
X93455000Y-70421541D01*
X93455000Y-69756781D01*
X93484789Y-69844437D01*
X93592672Y-70031148D01*
X93734908Y-70193224D01*
X93906031Y-70324437D01*
X94099464Y-70419745D01*
X94275077Y-70405898D01*
X94429379Y-69431676D01*
X94409625Y-69428547D01*
X94422295Y-69348550D01*
X94543791Y-69348550D01*
X95517942Y-69502841D01*
X95585447Y-69340113D01*
X95557766Y-69139959D01*
X95488381Y-68935789D01*
X95380498Y-68749078D01*
X95238262Y-68587002D01*
X95067139Y-68455789D01*
X94873706Y-68360481D01*
X94698093Y-68374328D01*
X94543791Y-69348550D01*
X94422295Y-69348550D01*
X94425269Y-69329778D01*
X94445022Y-69332907D01*
X94599324Y-68358685D01*
X94436585Y-68291247D01*
X94223167Y-68322117D01*
X94019873Y-68394028D01*
X93834514Y-68504218D01*
X93674215Y-68648453D01*
X93545133Y-68821189D01*
X93456955Y-69002993D01*
X93470871Y-69178615D01*
X93455000Y-69176101D01*
X93455000Y-66906033D01*
X93844370Y-66516664D01*
X93826201Y-66560527D01*
X93783928Y-66773044D01*
X93783928Y-66989726D01*
X93826201Y-67202243D01*
X93909121Y-67402430D01*
X94029503Y-67582594D01*
X94182719Y-67735810D01*
X94362883Y-67856192D01*
X94563070Y-67939112D01*
X94775587Y-67981385D01*
X94992269Y-67981385D01*
X95204786Y-67939112D01*
X95350832Y-67878618D01*
X96178081Y-68705868D01*
X96189824Y-68720177D01*
X96246925Y-68767038D01*
X96312072Y-68801860D01*
X96382759Y-68823303D01*
X96437853Y-68828729D01*
X96437855Y-68828729D01*
X96448618Y-68829789D01*
X96294104Y-68933032D01*
X96140888Y-69086248D01*
X96020506Y-69266412D01*
X95937586Y-69466599D01*
X95895313Y-69679116D01*
X95895313Y-69895798D01*
X95937586Y-70108315D01*
X95998080Y-70254360D01*
X94752866Y-71499575D01*
X94738552Y-71511322D01*
X94691691Y-71568424D01*
X94656869Y-71633571D01*
X94635426Y-71704258D01*
X94630000Y-71759351D01*
X94628186Y-71777770D01*
X94630000Y-71796186D01*
X94630001Y-73983716D01*
X94582218Y-73988422D01*
X94488195Y-74016943D01*
X94401543Y-74063260D01*
X94325591Y-74125591D01*
X94263260Y-74201543D01*
X94216943Y-74288195D01*
X94188422Y-74382218D01*
X94178791Y-74479999D01*
X94178791Y-75380001D01*
X94188422Y-75477782D01*
X94216943Y-75571805D01*
X94263260Y-75658457D01*
X94325591Y-75734409D01*
X94401543Y-75796740D01*
X94488195Y-75843057D01*
X94582218Y-75871578D01*
X94679999Y-75881209D01*
X95330001Y-75881209D01*
X95427782Y-75871578D01*
X95521805Y-75843057D01*
X95608457Y-75796740D01*
X95684409Y-75734409D01*
X95746740Y-75658457D01*
X95793057Y-75571805D01*
X95821578Y-75477782D01*
X95831209Y-75380001D01*
X95831209Y-74479999D01*
X95821578Y-74382218D01*
X95793057Y-74288195D01*
X95746740Y-74201543D01*
X95684409Y-74125591D01*
X95608457Y-74063260D01*
X95521805Y-74016943D01*
X95427782Y-73988422D01*
X95380000Y-73983716D01*
X95380000Y-71933099D01*
X96528410Y-70784690D01*
X96674455Y-70845184D01*
X96886972Y-70887457D01*
X97103654Y-70887457D01*
X97316171Y-70845184D01*
X97516358Y-70762264D01*
X97696522Y-70641882D01*
X97795315Y-70543089D01*
X97795314Y-73920249D01*
X97793500Y-73938665D01*
X97795314Y-73957081D01*
X97795314Y-73957083D01*
X97800740Y-74012177D01*
X97822183Y-74082864D01*
X97857005Y-74148011D01*
X97903866Y-74205113D01*
X97918180Y-74216860D01*
X98460440Y-74759121D01*
X98460440Y-75780000D01*
X98465267Y-75829008D01*
X98479562Y-75876134D01*
X98502776Y-75919564D01*
X98534017Y-75957632D01*
X98572085Y-75988873D01*
X98615515Y-76012087D01*
X98662641Y-76026382D01*
X98711649Y-76031209D01*
X99611649Y-76031209D01*
X99660657Y-76026382D01*
X99707783Y-76012087D01*
X99751213Y-75988873D01*
X99789281Y-75957632D01*
X99820522Y-75919564D01*
X99843736Y-75876134D01*
X99858031Y-75829008D01*
X99862858Y-75780000D01*
X101860439Y-75780000D01*
X101865266Y-75829009D01*
X101879561Y-75876134D01*
X101902776Y-75919565D01*
X101934017Y-75957632D01*
X101972084Y-75988873D01*
X102015515Y-76012088D01*
X102062640Y-76026383D01*
X102111649Y-76031210D01*
X102449149Y-76030000D01*
X102511649Y-75967500D01*
X102511649Y-74980000D01*
X102611649Y-74980000D01*
X102611649Y-75967500D01*
X102674149Y-76030000D01*
X103011649Y-76031210D01*
X103060658Y-76026383D01*
X103107783Y-76012088D01*
X103151214Y-75988873D01*
X103189281Y-75957632D01*
X103220522Y-75919565D01*
X103243737Y-75876134D01*
X103258032Y-75829009D01*
X103262859Y-75780000D01*
X103261649Y-75042500D01*
X103199149Y-74980000D01*
X102611649Y-74980000D01*
X102511649Y-74980000D01*
X101924149Y-74980000D01*
X101861649Y-75042500D01*
X101860439Y-75780000D01*
X99862858Y-75780000D01*
X99862858Y-74080000D01*
X101860439Y-74080000D01*
X101861649Y-74817500D01*
X101924149Y-74880000D01*
X102511649Y-74880000D01*
X102511649Y-73892500D01*
X102611649Y-73892500D01*
X102611649Y-74880000D01*
X103199149Y-74880000D01*
X103261649Y-74817500D01*
X103262859Y-74080000D01*
X103258032Y-74030991D01*
X103243737Y-73983866D01*
X103220522Y-73940435D01*
X103189281Y-73902368D01*
X103151214Y-73871127D01*
X103107783Y-73847912D01*
X103060658Y-73833617D01*
X103011649Y-73828790D01*
X102674149Y-73830000D01*
X102611649Y-73892500D01*
X102511649Y-73892500D01*
X102449149Y-73830000D01*
X102111649Y-73828790D01*
X102062640Y-73833617D01*
X102015515Y-73847912D01*
X101972084Y-73871127D01*
X101934017Y-73902368D01*
X101902776Y-73940435D01*
X101879561Y-73983866D01*
X101865266Y-74030991D01*
X101860439Y-74080000D01*
X99862858Y-74080000D01*
X99858031Y-74030992D01*
X99843736Y-73983866D01*
X99820522Y-73940436D01*
X99789281Y-73902368D01*
X99751213Y-73871127D01*
X99707783Y-73847913D01*
X99660657Y-73833618D01*
X99611649Y-73828791D01*
X98711649Y-73828791D01*
X98662641Y-73833618D01*
X98615515Y-73847913D01*
X98611850Y-73849872D01*
X98545314Y-73783336D01*
X98545314Y-71519687D01*
X98555112Y-71534351D01*
X98645649Y-71624888D01*
X98752110Y-71696022D01*
X98870402Y-71745021D01*
X98995981Y-71770000D01*
X99124019Y-71770000D01*
X99249598Y-71745021D01*
X99367890Y-71696022D01*
X99474351Y-71624888D01*
X99564888Y-71534351D01*
X99591181Y-71495000D01*
X100874774Y-71495000D01*
X100893190Y-71496814D01*
X100911606Y-71495000D01*
X100911609Y-71495000D01*
X100966703Y-71489574D01*
X101037390Y-71468131D01*
X101102537Y-71433309D01*
X101159638Y-71386448D01*
X101171385Y-71372134D01*
X103190133Y-69353387D01*
X103215591Y-69384409D01*
X103291543Y-69446740D01*
X103378195Y-69493057D01*
X103472218Y-69521578D01*
X103520001Y-69526284D01*
X103520000Y-72126584D01*
X103518186Y-72145000D01*
X103520000Y-72163416D01*
X103520000Y-72163418D01*
X103525426Y-72218512D01*
X103546869Y-72289199D01*
X103581691Y-72354346D01*
X103628552Y-72411448D01*
X103642866Y-72423195D01*
X104769233Y-73549563D01*
X104760000Y-73595981D01*
X104760000Y-73724019D01*
X104784979Y-73849598D01*
X104833978Y-73967890D01*
X104905112Y-74074351D01*
X104995649Y-74164888D01*
X105102110Y-74236022D01*
X105220402Y-74285021D01*
X105345981Y-74310000D01*
X105474019Y-74310000D01*
X105599598Y-74285021D01*
X105717890Y-74236022D01*
X105824351Y-74164888D01*
X105914888Y-74074351D01*
X105986022Y-73967890D01*
X106035021Y-73849598D01*
X106060000Y-73724019D01*
X106060000Y-73595981D01*
X106035021Y-73470402D01*
X105986022Y-73352110D01*
X105914888Y-73245649D01*
X105824351Y-73155112D01*
X105717890Y-73083978D01*
X105599598Y-73034979D01*
X105474019Y-73010000D01*
X105345981Y-73010000D01*
X105299563Y-73019233D01*
X104270000Y-71989671D01*
X104270000Y-69526284D01*
X104317782Y-69521578D01*
X104411805Y-69493057D01*
X104498457Y-69446740D01*
X104574409Y-69384409D01*
X104636740Y-69308457D01*
X104683057Y-69221805D01*
X104711578Y-69127782D01*
X104721209Y-69030001D01*
X104721209Y-68348349D01*
X104855000Y-68482140D01*
X104854999Y-70588819D01*
X104815648Y-70615112D01*
X104725111Y-70705649D01*
X104653977Y-70812110D01*
X104604978Y-70930402D01*
X104579999Y-71055981D01*
X104579999Y-71184019D01*
X104604978Y-71309598D01*
X104653977Y-71427890D01*
X104725111Y-71534351D01*
X104815648Y-71624888D01*
X104922109Y-71696022D01*
X105040401Y-71745021D01*
X105165980Y-71770000D01*
X105294018Y-71770000D01*
X105419597Y-71745021D01*
X105537889Y-71696022D01*
X105578564Y-71668844D01*
X105579999Y-71683415D01*
X105579999Y-71683417D01*
X105585425Y-71738511D01*
X105606868Y-71809198D01*
X105641690Y-71874345D01*
X105688551Y-71931447D01*
X105702865Y-71943194D01*
X107123791Y-73364121D01*
X107123791Y-74110001D01*
X107133422Y-74207782D01*
X107161943Y-74301805D01*
X107208260Y-74388457D01*
X107270591Y-74464409D01*
X107346543Y-74526740D01*
X107433195Y-74573057D01*
X107527218Y-74601578D01*
X107624999Y-74611209D01*
X108275001Y-74611209D01*
X108372782Y-74601578D01*
X108466805Y-74573057D01*
X108553457Y-74526740D01*
X108629409Y-74464409D01*
X108691740Y-74388457D01*
X108738057Y-74301805D01*
X108766578Y-74207782D01*
X108776209Y-74110001D01*
X108776209Y-73209999D01*
X108766578Y-73112218D01*
X108738057Y-73018195D01*
X108691740Y-72931543D01*
X108629409Y-72855591D01*
X108553457Y-72793260D01*
X108466805Y-72746943D01*
X108372782Y-72718422D01*
X108275001Y-72708791D01*
X107624999Y-72708791D01*
X107537718Y-72717388D01*
X106329999Y-71509670D01*
X106329999Y-67857885D01*
X106372110Y-67886022D01*
X106490402Y-67935021D01*
X106615981Y-67960000D01*
X106744019Y-67960000D01*
X106790437Y-67950767D01*
X107123791Y-68284121D01*
X107123791Y-69030001D01*
X107133422Y-69127782D01*
X107161943Y-69221805D01*
X107208260Y-69308457D01*
X107270591Y-69384409D01*
X107346543Y-69446740D01*
X107433195Y-69493057D01*
X107527218Y-69521578D01*
X107575001Y-69526284D01*
X107575000Y-70173716D01*
X107527218Y-70178422D01*
X107433195Y-70206943D01*
X107346543Y-70253260D01*
X107270591Y-70315591D01*
X107208260Y-70391543D01*
X107161943Y-70478195D01*
X107133422Y-70572218D01*
X107123791Y-70669999D01*
X107123791Y-71570001D01*
X107133422Y-71667782D01*
X107161943Y-71761805D01*
X107208260Y-71848457D01*
X107270591Y-71924409D01*
X107346543Y-71986740D01*
X107433195Y-72033057D01*
X107527218Y-72061578D01*
X107624999Y-72071209D01*
X108275001Y-72071209D01*
X108372782Y-72061578D01*
X108466805Y-72033057D01*
X108553457Y-71986740D01*
X108629409Y-71924409D01*
X108691740Y-71848457D01*
X108738057Y-71761805D01*
X108766578Y-71667782D01*
X108776209Y-71570001D01*
X108776209Y-70669999D01*
X108766578Y-70572218D01*
X108738057Y-70478195D01*
X108691740Y-70391543D01*
X108629409Y-70315591D01*
X108553457Y-70253260D01*
X108466805Y-70206943D01*
X108372782Y-70178422D01*
X108325000Y-70173716D01*
X108325000Y-69526284D01*
X108372782Y-69521578D01*
X108466805Y-69493057D01*
X108553457Y-69446740D01*
X108629409Y-69384409D01*
X108691740Y-69308457D01*
X108738057Y-69221805D01*
X108766578Y-69127782D01*
X108776209Y-69030001D01*
X108776209Y-68129999D01*
X108766578Y-68032218D01*
X108738057Y-67938195D01*
X108691740Y-67851543D01*
X108629409Y-67775591D01*
X108553457Y-67713260D01*
X108466805Y-67666943D01*
X108372782Y-67638422D01*
X108325000Y-67633716D01*
X108325000Y-66986284D01*
X108372782Y-66981578D01*
X108466805Y-66953057D01*
X108553457Y-66906740D01*
X108629409Y-66844409D01*
X108691740Y-66768457D01*
X108738057Y-66681805D01*
X108766578Y-66587782D01*
X108776209Y-66490001D01*
X108776209Y-65589999D01*
X108766578Y-65492218D01*
X108738057Y-65398195D01*
X108691740Y-65311543D01*
X108629409Y-65235591D01*
X108553457Y-65173260D01*
X108466805Y-65126943D01*
X108372782Y-65098422D01*
X108275001Y-65088791D01*
X107624999Y-65088791D01*
X107527218Y-65098422D01*
X107433195Y-65126943D01*
X107346543Y-65173260D01*
X107270591Y-65235591D01*
X107208260Y-65311543D01*
X107161943Y-65398195D01*
X107133422Y-65492218D01*
X107126073Y-65566834D01*
X107094351Y-65535112D01*
X107055000Y-65508819D01*
X107055000Y-64925329D01*
X107537718Y-64442612D01*
X107624999Y-64451209D01*
X108275001Y-64451209D01*
X108372782Y-64441578D01*
X108466805Y-64413057D01*
X108553457Y-64366740D01*
X108629409Y-64304409D01*
X108691740Y-64228457D01*
X108738057Y-64141805D01*
X108766578Y-64047782D01*
X108776209Y-63950001D01*
X108776209Y-63049999D01*
X108766578Y-62952218D01*
X108738057Y-62858195D01*
X108691740Y-62771543D01*
X108629409Y-62695591D01*
X108553457Y-62633260D01*
X108466805Y-62586943D01*
X108372782Y-62558422D01*
X108275001Y-62548791D01*
X107624999Y-62548791D01*
X107527218Y-62558422D01*
X107433195Y-62586943D01*
X107346543Y-62633260D01*
X107270591Y-62695591D01*
X107208260Y-62771543D01*
X107161943Y-62858195D01*
X107133422Y-62952218D01*
X107123791Y-63049999D01*
X107123791Y-63795879D01*
X106427861Y-64491809D01*
X106413553Y-64503552D01*
X106401811Y-64517860D01*
X106366691Y-64560654D01*
X106331870Y-64625800D01*
X106310427Y-64696488D01*
X106303186Y-64770000D01*
X106305001Y-64788426D01*
X106305000Y-65508819D01*
X106265649Y-65535112D01*
X106175112Y-65625649D01*
X106103978Y-65732110D01*
X106054979Y-65850402D01*
X106030000Y-65975981D01*
X106030000Y-66104019D01*
X106039233Y-66150437D01*
X105702860Y-66486811D01*
X105688552Y-66498553D01*
X105664901Y-66527372D01*
X105641690Y-66555655D01*
X105610003Y-66614938D01*
X105606869Y-66620801D01*
X105585426Y-66691488D01*
X105584785Y-66697992D01*
X105578185Y-66765001D01*
X105580000Y-66783427D01*
X105580000Y-68188773D01*
X105578130Y-68182609D01*
X105562484Y-68153337D01*
X105543309Y-68117462D01*
X105508188Y-68074668D01*
X105496447Y-68060361D01*
X105482138Y-68048618D01*
X104392448Y-66958929D01*
X104411805Y-66953057D01*
X104498457Y-66906740D01*
X104574409Y-66844409D01*
X104636740Y-66768457D01*
X104683057Y-66681805D01*
X104711578Y-66587782D01*
X104721209Y-66490001D01*
X104721209Y-65589999D01*
X104711578Y-65492218D01*
X104683057Y-65398195D01*
X104636740Y-65311543D01*
X104574409Y-65235591D01*
X104498457Y-65173260D01*
X104411805Y-65126943D01*
X104317782Y-65098422D01*
X104220001Y-65088791D01*
X103569999Y-65088791D01*
X103472218Y-65098422D01*
X103378195Y-65126943D01*
X103369990Y-65131329D01*
X103369990Y-64555339D01*
X103482717Y-64442612D01*
X103569999Y-64451209D01*
X104220001Y-64451209D01*
X104317782Y-64441578D01*
X104411805Y-64413057D01*
X104498457Y-64366740D01*
X104574409Y-64304409D01*
X104636740Y-64228457D01*
X104683057Y-64141805D01*
X104711578Y-64047782D01*
X104721209Y-63950001D01*
X104721209Y-63049999D01*
X104711578Y-62952218D01*
X104683057Y-62858195D01*
X104636740Y-62771543D01*
X104574409Y-62695591D01*
X104498457Y-62633260D01*
X104411805Y-62586943D01*
X104317782Y-62558422D01*
X104220001Y-62548791D01*
X103569999Y-62548791D01*
X103472218Y-62558422D01*
X103378195Y-62586943D01*
X103291543Y-62633260D01*
X103215591Y-62695591D01*
X103153260Y-62771543D01*
X103106943Y-62858195D01*
X103078422Y-62952218D01*
X103068791Y-63049999D01*
X103068791Y-63795880D01*
X102742852Y-64121819D01*
X102728543Y-64133562D01*
X102716801Y-64147870D01*
X102681681Y-64190664D01*
X102646860Y-64255810D01*
X102632118Y-64304409D01*
X102625417Y-64326498D01*
X102618176Y-64400010D01*
X102619991Y-64418436D01*
X102619991Y-65373750D01*
X102586740Y-65311543D01*
X102524409Y-65235591D01*
X102448457Y-65173260D01*
X102361805Y-65126943D01*
X102267782Y-65098422D01*
X102170001Y-65088791D01*
X101519999Y-65088791D01*
X101422218Y-65098422D01*
X101328195Y-65126943D01*
X101241543Y-65173260D01*
X101165591Y-65235591D01*
X101103260Y-65311543D01*
X101056943Y-65398195D01*
X101028422Y-65492218D01*
X101018791Y-65589999D01*
X101018791Y-65665000D01*
X99671654Y-65665000D01*
X99462514Y-65455861D01*
X99462514Y-64705981D01*
X99680000Y-64705981D01*
X99680000Y-64834019D01*
X99704979Y-64959598D01*
X99753978Y-65077890D01*
X99825112Y-65184351D01*
X99915649Y-65274888D01*
X100022110Y-65346022D01*
X100140402Y-65395021D01*
X100265981Y-65420000D01*
X100394019Y-65420000D01*
X100519598Y-65395021D01*
X100637890Y-65346022D01*
X100744351Y-65274888D01*
X100834888Y-65184351D01*
X100906022Y-65077890D01*
X100955021Y-64959598D01*
X100964777Y-64910553D01*
X101432718Y-64442612D01*
X101519999Y-64451209D01*
X102170001Y-64451209D01*
X102267782Y-64441578D01*
X102361805Y-64413057D01*
X102448457Y-64366740D01*
X102524409Y-64304409D01*
X102586740Y-64228457D01*
X102633057Y-64141805D01*
X102661578Y-64047782D01*
X102671209Y-63950001D01*
X102671209Y-63049999D01*
X102661578Y-62952218D01*
X102633057Y-62858195D01*
X102586740Y-62771543D01*
X102524409Y-62695591D01*
X102448457Y-62633260D01*
X102361805Y-62586943D01*
X102267782Y-62558422D01*
X102170001Y-62548791D01*
X101519999Y-62548791D01*
X101422218Y-62558422D01*
X101328195Y-62586943D01*
X101241543Y-62633260D01*
X101165591Y-62695591D01*
X101103260Y-62771543D01*
X101056943Y-62858195D01*
X101028422Y-62952218D01*
X101018791Y-63049999D01*
X101018791Y-63795879D01*
X100625730Y-64188941D01*
X100519598Y-64144979D01*
X100394019Y-64120000D01*
X100265981Y-64120000D01*
X100140402Y-64144979D01*
X100022110Y-64193978D01*
X99915649Y-64265112D01*
X99825112Y-64355649D01*
X99753978Y-64462110D01*
X99704979Y-64580402D01*
X99680000Y-64705981D01*
X99462514Y-64705981D01*
X99462514Y-63947226D01*
X99464328Y-63928810D01*
X99459510Y-63879892D01*
X99457088Y-63855297D01*
X99435645Y-63784610D01*
X99424584Y-63763917D01*
X99400824Y-63719463D01*
X99365703Y-63676669D01*
X99353962Y-63662362D01*
X99339653Y-63650619D01*
X98909385Y-63220352D01*
X98897638Y-63206038D01*
X98840537Y-63159177D01*
X98775390Y-63124355D01*
X98704703Y-63102912D01*
X98649609Y-63097486D01*
X98649606Y-63097486D01*
X98631190Y-63095672D01*
X98612774Y-63097486D01*
X96199858Y-63097486D01*
X96181442Y-63095672D01*
X96163026Y-63097486D01*
X96163023Y-63097486D01*
X96107929Y-63102912D01*
X96037242Y-63124355D01*
X96016549Y-63135416D01*
X95972095Y-63159176D01*
X95939334Y-63186063D01*
X95914994Y-63206038D01*
X95903251Y-63220347D01*
X95748175Y-63375423D01*
X95602130Y-63314929D01*
X95389613Y-63272656D01*
X95172931Y-63272656D01*
X94960414Y-63314929D01*
X94760227Y-63397849D01*
X94580063Y-63518231D01*
X94426847Y-63671447D01*
X94306465Y-63851611D01*
X94223545Y-64051798D01*
X94181272Y-64264315D01*
X94181272Y-64480997D01*
X94223545Y-64693514D01*
X94232262Y-64714559D01*
X92618824Y-66327999D01*
X92599736Y-66343664D01*
X92537254Y-66419799D01*
X92490825Y-66506662D01*
X92474203Y-66561457D01*
X92462235Y-66600911D01*
X92452581Y-66698928D01*
X92455000Y-66723488D01*
X92455001Y-74011845D01*
X92438195Y-74016943D01*
X92351543Y-74063260D01*
X92275591Y-74125591D01*
X92213260Y-74201543D01*
X92166943Y-74288195D01*
X92138422Y-74382218D01*
X92128791Y-74479999D01*
X92128791Y-75049102D01*
X87828825Y-79349070D01*
X87809737Y-79364735D01*
X87747255Y-79440870D01*
X87700826Y-79527733D01*
X87692114Y-79556453D01*
X87672236Y-79621982D01*
X87662582Y-79719999D01*
X87665001Y-79744559D01*
X87665001Y-84530440D01*
X87665002Y-87368791D01*
X85615001Y-87368791D01*
X85565993Y-87373618D01*
X85518867Y-87387913D01*
X85475437Y-87411127D01*
X85437369Y-87442368D01*
X85406128Y-87480436D01*
X85382914Y-87523866D01*
X85368619Y-87570992D01*
X85363792Y-87620000D01*
X82823173Y-87620000D01*
X82822468Y-87592142D01*
X82832909Y-86977257D01*
X82864048Y-86366864D01*
X82915529Y-85762119D01*
X82987015Y-85163328D01*
X83078168Y-84570807D01*
X83188635Y-83984973D01*
X83318093Y-83406073D01*
X83466199Y-82834458D01*
X83632618Y-82270456D01*
X83817014Y-81714390D01*
X84019026Y-81166667D01*
X84238351Y-80627523D01*
X84474644Y-80097318D01*
X84727547Y-79576429D01*
X84996738Y-79065160D01*
X85281874Y-78563855D01*
X85582633Y-78072822D01*
X85898658Y-77592433D01*
X86229615Y-77123014D01*
X86575179Y-76664889D01*
X86934986Y-76218422D01*
X87308731Y-75783910D01*
X87696021Y-75361754D01*
X88096569Y-74952231D01*
X88510016Y-74555698D01*
X88936023Y-74172495D01*
X89374256Y-73802952D01*
X89824370Y-73447410D01*
X90286001Y-73106224D01*
X90758864Y-72779690D01*
X91242563Y-72468183D01*
X91739579Y-72170348D01*
X91745709Y-72165806D01*
X91752325Y-72162034D01*
X91761348Y-72154221D01*
X91770943Y-72147112D01*
X91776068Y-72141473D01*
X91781832Y-72136482D01*
X91789168Y-72127061D01*
X91797197Y-72118227D01*
X91801132Y-72111696D01*
X91805813Y-72105684D01*
X91811177Y-72095022D01*
X91817340Y-72084793D01*
X91819931Y-72077624D01*
X91823356Y-72070816D01*
X91826547Y-72059315D01*
X91830606Y-72048083D01*
X91831756Y-72040542D01*
X91833792Y-72033203D01*
X91834687Y-72021313D01*
X91836489Y-72009496D01*
X91836152Y-72001869D01*
X91836723Y-71994281D01*
X91835292Y-71982441D01*
X91834764Y-71970501D01*
X91832954Y-71963096D01*
X91832040Y-71955530D01*
X91828331Y-71944178D01*
X91825498Y-71932584D01*
X91822286Y-71925675D01*
X91819918Y-71918426D01*
X91814075Y-71908012D01*
X91809044Y-71897188D01*
X91804550Y-71891032D01*
X91800820Y-71884384D01*
X91793066Y-71875303D01*
X91786028Y-71865663D01*
X91780424Y-71860497D01*
X91775473Y-71854699D01*
X91766108Y-71847301D01*
X91757328Y-71839208D01*
X91750821Y-71835225D01*
X91744844Y-71830504D01*
X91734225Y-71825068D01*
X91724035Y-71818831D01*
X91716884Y-71816190D01*
X91710099Y-71812717D01*
X91698615Y-71809444D01*
X91687419Y-71805310D01*
X91679893Y-71804109D01*
X91672560Y-71802019D01*
X91669810Y-71801539D01*
X87961697Y-71180517D01*
X87877005Y-71161861D01*
X87803446Y-71137609D01*
X87694780Y-71085937D01*
X87598196Y-71021007D01*
X87512474Y-70943205D01*
X87438871Y-70854145D01*
X87378650Y-70755537D01*
X87333023Y-70649145D01*
X87303104Y-70536675D01*
X87289656Y-70417103D01*
X87290693Y-70339671D01*
X87300650Y-70253511D01*
X87794718Y-67303521D01*
X87813376Y-67218816D01*
X87837627Y-67145261D01*
X87889298Y-67036597D01*
X87954230Y-66940009D01*
X88032029Y-66854292D01*
X88121091Y-66780687D01*
X88219699Y-66720466D01*
X88326091Y-66674839D01*
X88438561Y-66644920D01*
X88558132Y-66631472D01*
X88635565Y-66632509D01*
X88721729Y-66642466D01*
X91251500Y-67066147D01*
X91255195Y-67066399D01*
X91258808Y-67067233D01*
X91261579Y-67067572D01*
X91362905Y-67079280D01*
X91371675Y-67079432D01*
X91380393Y-67080528D01*
X91383185Y-67080584D01*
X91483351Y-67081925D01*
X91494450Y-67080986D01*
X91505603Y-67080983D01*
X91508380Y-67080690D01*
X91655164Y-67064182D01*
X91668259Y-67061394D01*
X91681523Y-67059413D01*
X91684226Y-67058714D01*
X91825078Y-67021246D01*
X91837362Y-67016654D01*
X91849918Y-67012860D01*
X91852492Y-67011777D01*
X91985420Y-66954770D01*
X91996724Y-66948553D01*
X92008441Y-66943086D01*
X92010833Y-66941647D01*
X92133847Y-66866521D01*
X92144094Y-66858796D01*
X92154851Y-66851764D01*
X92157015Y-66850000D01*
X92268123Y-66758177D01*
X92277228Y-66749018D01*
X92286921Y-66740480D01*
X92288811Y-66738425D01*
X92386017Y-66631325D01*
X92393834Y-66620810D01*
X92402327Y-66610799D01*
X92403900Y-66608492D01*
X92485214Y-66487536D01*
X92491563Y-66475750D01*
X92498637Y-66464355D01*
X92499853Y-66461842D01*
X92563283Y-66328451D01*
X92567064Y-66317966D01*
X92571714Y-66307833D01*
X92572607Y-66305187D01*
X92603973Y-66210052D01*
X92605894Y-66201491D01*
X92608728Y-66193178D01*
X92609347Y-66190455D01*
X92631290Y-66090847D01*
X92631730Y-66087172D01*
X92632746Y-66083606D01*
X92633226Y-66080855D01*
X93511470Y-60836886D01*
X99536932Y-60836886D01*
X99536932Y-61083114D01*
X99584969Y-61324611D01*
X99679197Y-61552097D01*
X99815994Y-61756828D01*
X99990104Y-61930938D01*
X100194835Y-62067735D01*
X100422321Y-62161963D01*
X100663818Y-62210000D01*
X100910046Y-62210000D01*
X101151543Y-62161963D01*
X101379029Y-62067735D01*
X101583760Y-61930938D01*
X101757870Y-61756828D01*
X101894667Y-61552097D01*
X101988895Y-61324611D01*
X102036932Y-61083114D01*
X102036932Y-60836886D01*
X101988895Y-60595389D01*
X101894667Y-60367903D01*
X101757870Y-60163172D01*
X101583760Y-59989062D01*
X101379029Y-59852265D01*
X101151543Y-59758037D01*
X100910046Y-59710000D01*
X100663818Y-59710000D01*
X100422321Y-59758037D01*
X100194835Y-59852265D01*
X99990104Y-59989062D01*
X99815994Y-60163172D01*
X99679197Y-60367903D01*
X99584969Y-60595389D01*
X99536932Y-60836886D01*
X93511470Y-60836886D01*
X93901989Y-58505116D01*
X93920648Y-58420408D01*
X93944899Y-58346853D01*
X93996570Y-58238189D01*
X94061499Y-58141605D01*
X94139305Y-58055880D01*
X94228362Y-57982279D01*
X94326970Y-57922058D01*
X94433363Y-57876430D01*
X94545833Y-57846512D01*
X94665404Y-57833064D01*
X94742836Y-57834101D01*
%TD*%
M02*
