%TF.GenerationSoftware,KiCad,Pcbnew,(5.1.6)-1*%
%TF.CreationDate,2021-01-16T18:50:24+01:00*%
%TF.ProjectId,Snowman_Earring,536e6f77-6d61-46e5-9f45-617272696e67,rev?*%
%TF.SameCoordinates,Original*%
%TF.FileFunction,Copper,L1,Top*%
%TF.FilePolarity,Positive*%
%FSLAX46Y46*%
G04 Gerber Fmt 4.6, Leading zero omitted, Abs format (unit mm)*
G04 Created by KiCad (PCBNEW (5.1.6)-1) date 2021-01-16 18:50:24*
%MOMM*%
%LPD*%
G01*
G04 APERTURE LIST*
%TA.AperFunction,ComponentPad*%
%ADD10C,2.000000*%
%TD*%
%TA.AperFunction,ComponentPad*%
%ADD11C,0.100000*%
%TD*%
%TA.AperFunction,SMDPad,CuDef*%
%ADD12C,0.100000*%
%TD*%
%TA.AperFunction,ViaPad*%
%ADD13C,0.800000*%
%TD*%
%TA.AperFunction,Conductor*%
%ADD14C,0.250000*%
%TD*%
%TA.AperFunction,Conductor*%
%ADD15C,0.500000*%
%TD*%
%TA.AperFunction,Conductor*%
%ADD16C,0.100000*%
%TD*%
G04 APERTURE END LIST*
D10*
%TO.P,REF\u002A\u002A,1*%
%TO.N,N/C*%
X100786932Y-60960000D03*
%TD*%
%TO.P,C1,2*%
%TO.N,GND*%
%TA.AperFunction,SMDPad,CuDef*%
G36*
G01*
X108324065Y-62744856D02*
X108464856Y-61855935D01*
G75*
G02*
X108750885Y-61648122I246921J-39108D01*
G01*
X109392884Y-61749805D01*
G75*
G02*
X109600697Y-62035834I-39108J-246921D01*
G01*
X109459906Y-62924755D01*
G75*
G02*
X109173877Y-63132568I-246921J39108D01*
G01*
X108531878Y-63030885D01*
G75*
G02*
X108324065Y-62744856I39108J246921D01*
G01*
G37*
%TD.AperFunction*%
%TO.P,C1,1*%
%TO.N,+BATT*%
%TA.AperFunction,SMDPad,CuDef*%
G36*
G01*
X106299303Y-62424166D02*
X106440094Y-61535245D01*
G75*
G02*
X106726123Y-61327432I246921J-39108D01*
G01*
X107368122Y-61429115D01*
G75*
G02*
X107575935Y-61715144I-39108J-246921D01*
G01*
X107435144Y-62604065D01*
G75*
G02*
X107149115Y-62811878I-246921J39108D01*
G01*
X106507116Y-62710195D01*
G75*
G02*
X106299303Y-62424166I39108J246921D01*
G01*
G37*
%TD.AperFunction*%
%TD*%
%TO.P,D8,2*%
%TO.N,Net-(D8-Pad2)*%
%TA.AperFunction,SMDPad,CuDef*%
G36*
G01*
X108132372Y-95038231D02*
X107232370Y-95038231D01*
G75*
G02*
X106982371Y-94788232I0J249999D01*
G01*
X106982371Y-94138230D01*
G75*
G02*
X107232370Y-93888231I249999J0D01*
G01*
X108132372Y-93888231D01*
G75*
G02*
X108382371Y-94138230I0J-249999D01*
G01*
X108382371Y-94788232D01*
G75*
G02*
X108132372Y-95038231I-249999J0D01*
G01*
G37*
%TD.AperFunction*%
%TO.P,D8,1*%
%TO.N,GND*%
%TA.AperFunction,SMDPad,CuDef*%
G36*
G01*
X108132372Y-97088231D02*
X107232370Y-97088231D01*
G75*
G02*
X106982371Y-96838232I0J249999D01*
G01*
X106982371Y-96188230D01*
G75*
G02*
X107232370Y-95938231I249999J0D01*
G01*
X108132372Y-95938231D01*
G75*
G02*
X108382371Y-96188230I0J-249999D01*
G01*
X108382371Y-96838232D01*
G75*
G02*
X108132372Y-97088231I-249999J0D01*
G01*
G37*
%TD.AperFunction*%
%TD*%
%TO.P,D7,2*%
%TO.N,Net-(D7-Pad2)*%
%TA.AperFunction,SMDPad,CuDef*%
G36*
G01*
X104823666Y-96915527D02*
X103923664Y-96915527D01*
G75*
G02*
X103673665Y-96665528I0J249999D01*
G01*
X103673665Y-96015526D01*
G75*
G02*
X103923664Y-95765527I249999J0D01*
G01*
X104823666Y-95765527D01*
G75*
G02*
X105073665Y-96015526I0J-249999D01*
G01*
X105073665Y-96665528D01*
G75*
G02*
X104823666Y-96915527I-249999J0D01*
G01*
G37*
%TD.AperFunction*%
%TO.P,D7,1*%
%TO.N,GND*%
%TA.AperFunction,SMDPad,CuDef*%
G36*
G01*
X104823666Y-98965527D02*
X103923664Y-98965527D01*
G75*
G02*
X103673665Y-98715528I0J249999D01*
G01*
X103673665Y-98065526D01*
G75*
G02*
X103923664Y-97815527I249999J0D01*
G01*
X104823666Y-97815527D01*
G75*
G02*
X105073665Y-98065526I0J-249999D01*
G01*
X105073665Y-98715528D01*
G75*
G02*
X104823666Y-98965527I-249999J0D01*
G01*
G37*
%TD.AperFunction*%
%TD*%
%TO.P,D6,2*%
%TO.N,Net-(D6-Pad2)*%
%TA.AperFunction,SMDPad,CuDef*%
G36*
G01*
X101072426Y-97547965D02*
X100172424Y-97547965D01*
G75*
G02*
X99922425Y-97297966I0J249999D01*
G01*
X99922425Y-96647964D01*
G75*
G02*
X100172424Y-96397965I249999J0D01*
G01*
X101072426Y-96397965D01*
G75*
G02*
X101322425Y-96647964I0J-249999D01*
G01*
X101322425Y-97297966D01*
G75*
G02*
X101072426Y-97547965I-249999J0D01*
G01*
G37*
%TD.AperFunction*%
%TO.P,D6,1*%
%TO.N,GND*%
%TA.AperFunction,SMDPad,CuDef*%
G36*
G01*
X101072426Y-99597965D02*
X100172424Y-99597965D01*
G75*
G02*
X99922425Y-99347966I0J249999D01*
G01*
X99922425Y-98697964D01*
G75*
G02*
X100172424Y-98447965I249999J0D01*
G01*
X101072426Y-98447965D01*
G75*
G02*
X101322425Y-98697964I0J-249999D01*
G01*
X101322425Y-99347966D01*
G75*
G02*
X101072426Y-99597965I-249999J0D01*
G01*
G37*
%TD.AperFunction*%
%TD*%
%TO.P,D5,2*%
%TO.N,Net-(D5-Pad2)*%
%TA.AperFunction,SMDPad,CuDef*%
G36*
G01*
X97331107Y-96859263D02*
X96431105Y-96859263D01*
G75*
G02*
X96181106Y-96609264I0J249999D01*
G01*
X96181106Y-95959262D01*
G75*
G02*
X96431105Y-95709263I249999J0D01*
G01*
X97331107Y-95709263D01*
G75*
G02*
X97581106Y-95959262I0J-249999D01*
G01*
X97581106Y-96609264D01*
G75*
G02*
X97331107Y-96859263I-249999J0D01*
G01*
G37*
%TD.AperFunction*%
%TO.P,D5,1*%
%TO.N,GND*%
%TA.AperFunction,SMDPad,CuDef*%
G36*
G01*
X97331107Y-98909263D02*
X96431105Y-98909263D01*
G75*
G02*
X96181106Y-98659264I0J249999D01*
G01*
X96181106Y-98009262D01*
G75*
G02*
X96431105Y-97759263I249999J0D01*
G01*
X97331107Y-97759263D01*
G75*
G02*
X97581106Y-98009262I0J-249999D01*
G01*
X97581106Y-98659264D01*
G75*
G02*
X97331107Y-98909263I-249999J0D01*
G01*
G37*
%TD.AperFunction*%
%TD*%
%TO.P,D4,2*%
%TO.N,Net-(D4-Pad2)*%
%TA.AperFunction,SMDPad,CuDef*%
G36*
G01*
X94050967Y-94932487D02*
X93150965Y-94932487D01*
G75*
G02*
X92900966Y-94682488I0J249999D01*
G01*
X92900966Y-94032486D01*
G75*
G02*
X93150965Y-93782487I249999J0D01*
G01*
X94050967Y-93782487D01*
G75*
G02*
X94300966Y-94032486I0J-249999D01*
G01*
X94300966Y-94682488D01*
G75*
G02*
X94050967Y-94932487I-249999J0D01*
G01*
G37*
%TD.AperFunction*%
%TO.P,D4,1*%
%TO.N,GND*%
%TA.AperFunction,SMDPad,CuDef*%
G36*
G01*
X94050967Y-96982487D02*
X93150965Y-96982487D01*
G75*
G02*
X92900966Y-96732488I0J249999D01*
G01*
X92900966Y-96082486D01*
G75*
G02*
X93150965Y-95832487I249999J0D01*
G01*
X94050967Y-95832487D01*
G75*
G02*
X94300966Y-96082486I0J-249999D01*
G01*
X94300966Y-96732488D01*
G75*
G02*
X94050967Y-96982487I-249999J0D01*
G01*
G37*
%TD.AperFunction*%
%TD*%
%TO.P,D3,2*%
%TO.N,Net-(D3-Pad2)*%
%TA.AperFunction,SMDPad,CuDef*%
G36*
G01*
X108400000Y-80460001D02*
X108400000Y-79559999D01*
G75*
G02*
X108649999Y-79310000I249999J0D01*
G01*
X109300001Y-79310000D01*
G75*
G02*
X109550000Y-79559999I0J-249999D01*
G01*
X109550000Y-80460001D01*
G75*
G02*
X109300001Y-80710000I-249999J0D01*
G01*
X108649999Y-80710000D01*
G75*
G02*
X108400000Y-80460001I0J249999D01*
G01*
G37*
%TD.AperFunction*%
%TO.P,D3,1*%
%TO.N,GND*%
%TA.AperFunction,SMDPad,CuDef*%
G36*
G01*
X106350000Y-80460001D02*
X106350000Y-79559999D01*
G75*
G02*
X106599999Y-79310000I249999J0D01*
G01*
X107250001Y-79310000D01*
G75*
G02*
X107500000Y-79559999I0J-249999D01*
G01*
X107500000Y-80460001D01*
G75*
G02*
X107250001Y-80710000I-249999J0D01*
G01*
X106599999Y-80710000D01*
G75*
G02*
X106350000Y-80460001I0J249999D01*
G01*
G37*
%TD.AperFunction*%
%TD*%
%TO.P,D2,2*%
%TO.N,Net-(D2-Pad2)*%
%TA.AperFunction,SMDPad,CuDef*%
G36*
G01*
X101236932Y-88581653D02*
X101236932Y-87681651D01*
G75*
G02*
X101486931Y-87431652I249999J0D01*
G01*
X102136933Y-87431652D01*
G75*
G02*
X102386932Y-87681651I0J-249999D01*
G01*
X102386932Y-88581653D01*
G75*
G02*
X102136933Y-88831652I-249999J0D01*
G01*
X101486931Y-88831652D01*
G75*
G02*
X101236932Y-88581653I0J249999D01*
G01*
G37*
%TD.AperFunction*%
%TO.P,D2,1*%
%TO.N,GND*%
%TA.AperFunction,SMDPad,CuDef*%
G36*
G01*
X99186932Y-88581653D02*
X99186932Y-87681651D01*
G75*
G02*
X99436931Y-87431652I249999J0D01*
G01*
X100086933Y-87431652D01*
G75*
G02*
X100336932Y-87681651I0J-249999D01*
G01*
X100336932Y-88581653D01*
G75*
G02*
X100086933Y-88831652I-249999J0D01*
G01*
X99436931Y-88831652D01*
G75*
G02*
X99186932Y-88581653I0J249999D01*
G01*
G37*
%TD.AperFunction*%
%TD*%
%TO.P,D1,2*%
%TO.N,Net-(D1-Pad2)*%
%TA.AperFunction,SMDPad,CuDef*%
G36*
G01*
X93744851Y-80460001D02*
X93744851Y-79559999D01*
G75*
G02*
X93994850Y-79310000I249999J0D01*
G01*
X94644852Y-79310000D01*
G75*
G02*
X94894851Y-79559999I0J-249999D01*
G01*
X94894851Y-80460001D01*
G75*
G02*
X94644852Y-80710000I-249999J0D01*
G01*
X93994850Y-80710000D01*
G75*
G02*
X93744851Y-80460001I0J249999D01*
G01*
G37*
%TD.AperFunction*%
%TO.P,D1,1*%
%TO.N,GND*%
%TA.AperFunction,SMDPad,CuDef*%
G36*
G01*
X91694851Y-80460001D02*
X91694851Y-79559999D01*
G75*
G02*
X91944850Y-79310000I249999J0D01*
G01*
X92594852Y-79310000D01*
G75*
G02*
X92844851Y-79559999I0J-249999D01*
G01*
X92844851Y-80460001D01*
G75*
G02*
X92594852Y-80710000I-249999J0D01*
G01*
X91944850Y-80710000D01*
G75*
G02*
X91694851Y-80460001I0J249999D01*
G01*
G37*
%TD.AperFunction*%
%TD*%
%TA.AperFunction,ComponentPad*%
D11*
%TO.P,J1,1*%
%TO.N,LED_LEFT_EYE*%
G36*
X98762504Y-64063434D02*
G01*
X98496566Y-65742504D01*
X96817496Y-65476566D01*
X97083434Y-63797496D01*
X98762504Y-64063434D01*
G37*
%TD.AperFunction*%
%TO.P,J1,2*%
%TO.N,+BATT*%
%TA.AperFunction,ComponentPad*%
G36*
G01*
X96120807Y-64505625D02*
X96120807Y-64505625D01*
G75*
G02*
X95148303Y-65212191I-839535J132969D01*
G01*
X95148303Y-65212191D01*
G75*
G02*
X94441737Y-64239687I132969J839535D01*
G01*
X94441737Y-64239687D01*
G75*
G02*
X95414241Y-63533121I839535J-132969D01*
G01*
X95414241Y-63533121D01*
G75*
G02*
X96120807Y-64505625I-132969J-839535D01*
G01*
G37*
%TD.AperFunction*%
%TO.P,J1,3*%
%TO.N,LED_RIGHT_EYE*%
%TA.AperFunction,ComponentPad*%
G36*
G01*
X98232191Y-67411697D02*
X98232191Y-67411697D01*
G75*
G02*
X97259687Y-68118263I-839535J132969D01*
G01*
X97259687Y-68118263D01*
G75*
G02*
X96553121Y-67145759I132969J839535D01*
G01*
X96553121Y-67145759D01*
G75*
G02*
X97525625Y-66439193I839535J-132969D01*
G01*
X97525625Y-66439193D01*
G75*
G02*
X98232191Y-67411697I-132969J-839535D01*
G01*
G37*
%TD.AperFunction*%
%TO.P,J1,4*%
%TO.N,MOSI*%
%TA.AperFunction,ComponentPad*%
G36*
G01*
X95723463Y-67014354D02*
X95723463Y-67014354D01*
G75*
G02*
X94750959Y-67720920I-839535J132969D01*
G01*
X94750959Y-67720920D01*
G75*
G02*
X94044393Y-66748416I132969J839535D01*
G01*
X94044393Y-66748416D01*
G75*
G02*
X95016897Y-66041850I839535J-132969D01*
G01*
X95016897Y-66041850D01*
G75*
G02*
X95723463Y-67014354I-132969J-839535D01*
G01*
G37*
%TD.AperFunction*%
%TO.P,J1,5*%
%TO.N,RST*%
%TA.AperFunction,ComponentPad*%
G36*
G01*
X97834848Y-69920426D02*
X97834848Y-69920426D01*
G75*
G02*
X96862344Y-70626992I-839535J132969D01*
G01*
X96862344Y-70626992D01*
G75*
G02*
X96155778Y-69654488I132969J839535D01*
G01*
X96155778Y-69654488D01*
G75*
G02*
X97128282Y-68947922I839535J-132969D01*
G01*
X97128282Y-68947922D01*
G75*
G02*
X97834848Y-69920426I-132969J-839535D01*
G01*
G37*
%TD.AperFunction*%
%TO.P,J1,6*%
%TO.N,GND*%
%TA.AperFunction,ComponentPad*%
G36*
G01*
X95326120Y-69523082D02*
X95326120Y-69523082D01*
G75*
G02*
X94353616Y-70229648I-839535J132969D01*
G01*
X94353616Y-70229648D01*
G75*
G02*
X93647050Y-69257144I132969J839535D01*
G01*
X93647050Y-69257144D01*
G75*
G02*
X94619554Y-68550578I839535J-132969D01*
G01*
X94619554Y-68550578D01*
G75*
G02*
X95326120Y-69523082I-132969J-839535D01*
G01*
G37*
%TD.AperFunction*%
%TD*%
%TA.AperFunction,SMDPad,CuDef*%
D12*
%TO.P,U1,1*%
%TO.N,RST*%
G36*
X110877431Y-69574503D02*
G01*
X110775749Y-70216500D01*
X109096679Y-69950561D01*
X109198361Y-69308564D01*
X110877431Y-69574503D01*
G37*
%TD.AperFunction*%
%TA.AperFunction,SMDPad,CuDef*%
%TO.P,U1,2*%
%TO.N,LED_MOUTH1*%
G36*
X111076103Y-68320139D02*
G01*
X110974421Y-68962136D01*
X109295351Y-68696197D01*
X109397033Y-68054200D01*
X111076103Y-68320139D01*
G37*
%TD.AperFunction*%
%TA.AperFunction,SMDPad,CuDef*%
%TO.P,U1,3*%
%TO.N,LED_MOUTH2*%
G36*
X111274774Y-67065775D02*
G01*
X111173092Y-67707772D01*
X109494022Y-67441833D01*
X109595704Y-66799836D01*
X111274774Y-67065775D01*
G37*
%TD.AperFunction*%
%TA.AperFunction,SMDPad,CuDef*%
%TO.P,U1,4*%
%TO.N,GND*%
G36*
X111473446Y-65811411D02*
G01*
X111371764Y-66453408D01*
X109692694Y-66187469D01*
X109794376Y-65545472D01*
X111473446Y-65811411D01*
G37*
%TD.AperFunction*%
%TA.AperFunction,SMDPad,CuDef*%
%TO.P,U1,5*%
%TO.N,MOSI*%
G36*
X104263321Y-64669439D02*
G01*
X104161639Y-65311436D01*
X102482569Y-65045497D01*
X102584251Y-64403500D01*
X104263321Y-64669439D01*
G37*
%TD.AperFunction*%
%TA.AperFunction,SMDPad,CuDef*%
%TO.P,U1,6*%
%TO.N,LED_LEFT_EYE*%
G36*
X104064649Y-65923803D02*
G01*
X103962967Y-66565800D01*
X102283897Y-66299861D01*
X102385579Y-65657864D01*
X104064649Y-65923803D01*
G37*
%TD.AperFunction*%
%TA.AperFunction,SMDPad,CuDef*%
%TO.P,U1,7*%
%TO.N,LED_RIGHT_EYE*%
G36*
X103865978Y-67178167D02*
G01*
X103764296Y-67820164D01*
X102085226Y-67554225D01*
X102186908Y-66912228D01*
X103865978Y-67178167D01*
G37*
%TD.AperFunction*%
%TA.AperFunction,SMDPad,CuDef*%
%TO.P,U1,8*%
%TO.N,+BATT*%
G36*
X103667306Y-68432531D02*
G01*
X103565624Y-69074528D01*
X101886554Y-68808589D01*
X101988236Y-68166592D01*
X103667306Y-68432531D01*
G37*
%TD.AperFunction*%
%TD*%
D13*
%TO.N,Net-(D1-Pad2)*%
X99060000Y-71120000D03*
%TO.N,Net-(D2-Pad2)*%
X105229999Y-71120000D03*
%TO.N,Net-(D3-Pad2)*%
X105410000Y-73660000D03*
%TO.N,Net-(D4-Pad2)*%
X91440000Y-85090000D03*
%TO.N,Net-(D5-Pad2)*%
X95250000Y-81280000D03*
%TO.N,Net-(D6-Pad2)*%
X100686385Y-79241703D03*
%TO.N,Net-(D7-Pad2)*%
X105410000Y-80010000D03*
%TO.N,Net-(D8-Pad2)*%
X110490000Y-85090000D03*
%TO.N,LED_LEFT_EYE*%
X100330000Y-64770000D03*
%TO.N,LED_RIGHT_EYE*%
X100330000Y-67887456D03*
%TO.N,LED_MOUTH2*%
X106680000Y-66040000D03*
%TO.N,LED_MOUTH1*%
X106680000Y-67310000D03*
%TD*%
D14*
%TO.N,+BATT*%
X102776930Y-68620560D02*
X102768826Y-68612456D01*
X103423536Y-68620560D02*
X102776930Y-68620560D01*
D15*
X103637525Y-68620560D02*
X104713331Y-67544754D01*
X102776930Y-68620560D02*
X103637525Y-68620560D01*
X104713331Y-67544754D02*
X104713331Y-64073331D01*
X104933943Y-64073331D02*
X106937619Y-62069655D01*
X104713331Y-64073331D02*
X104933943Y-64073331D01*
X103758088Y-62897476D02*
X95554371Y-62897476D01*
X95281272Y-63170575D02*
X95281272Y-64372656D01*
X95554371Y-62897476D02*
X95281272Y-63170575D01*
X104933943Y-64073331D02*
X103758088Y-62897476D01*
D14*
%TO.N,GND*%
X108962381Y-64378751D02*
X110583070Y-65999440D01*
X108962381Y-62390345D02*
X108962381Y-64378751D01*
%TO.N,MOSI*%
X101687468Y-64857468D02*
X103372945Y-64857468D01*
X99203703Y-64044999D02*
X100874999Y-64044999D01*
X96456273Y-65309040D02*
X96456273Y-63965023D01*
X98631190Y-63472486D02*
X99203703Y-64044999D01*
X94883928Y-66881385D02*
X96456273Y-65309040D01*
X96456273Y-63965023D02*
X96948810Y-63472486D01*
X100874999Y-64044999D02*
X101687468Y-64857468D01*
X96948810Y-63472486D02*
X98631190Y-63472486D01*
%TO.N,RST*%
X97020238Y-69762532D02*
X96995313Y-69787457D01*
X109987055Y-69762532D02*
X97020238Y-69762532D01*
%TO.N,Net-(D1-Pad2)*%
X94319851Y-80010000D02*
X94319851Y-78400149D01*
X94319851Y-78400149D02*
X94319851Y-75860149D01*
X94319851Y-75860149D02*
X99060000Y-71120000D01*
%TO.N,Net-(D2-Pad2)*%
X101811932Y-88131652D02*
X101811932Y-74538067D01*
X101811932Y-74538067D02*
X105229999Y-71120000D01*
%TO.N,Net-(D3-Pad2)*%
X108975000Y-79765000D02*
X108975000Y-80010000D01*
X108975000Y-80010000D02*
X108975000Y-77225000D01*
X108975000Y-77225000D02*
X105410000Y-73660000D01*
%TO.N,Net-(D4-Pad2)*%
X93980000Y-93978453D02*
X93600966Y-94357487D01*
X93600966Y-94357487D02*
X93600966Y-87250966D01*
X93600966Y-87250966D02*
X91440000Y-85090000D01*
%TO.N,Net-(D5-Pad2)*%
X96520000Y-95923157D02*
X96881106Y-96284263D01*
X96881106Y-96284263D02*
X96881106Y-82911106D01*
X96881106Y-82911106D02*
X95250000Y-81280000D01*
%TO.N,Net-(D6-Pad2)*%
X100661942Y-96933448D02*
X100622425Y-96972965D01*
X100661942Y-96933448D02*
X100661942Y-79266146D01*
X100661942Y-79266146D02*
X100686385Y-79241703D01*
%TO.N,Net-(D7-Pad2)*%
X104373665Y-96340527D02*
X104373665Y-81046335D01*
X104373665Y-81046335D02*
X105410000Y-80010000D01*
%TO.N,Net-(D8-Pad2)*%
X107682371Y-94463231D02*
X107682371Y-87897629D01*
X107682371Y-87897629D02*
X110490000Y-85090000D01*
%TO.N,LED_LEFT_EYE*%
X99131832Y-66111832D02*
X97790000Y-64770000D01*
X103174273Y-66111832D02*
X99131832Y-66111832D01*
X103174273Y-66111832D02*
X101671832Y-66111832D01*
X101671832Y-66111832D02*
X100330000Y-64770000D01*
%TO.N,LED_RIGHT_EYE*%
X97480124Y-67366196D02*
X97392656Y-67278728D01*
X102975602Y-67366196D02*
X97480124Y-67366196D01*
X102975602Y-67366196D02*
X100851260Y-67366196D01*
X100851260Y-67366196D02*
X100330000Y-67887456D01*
%TO.N,LED_MOUTH2*%
X110384398Y-67253804D02*
X109523803Y-67253804D01*
X110384398Y-67253804D02*
X107893804Y-67253804D01*
X107893804Y-67253804D02*
X106680000Y-66040000D01*
%TO.N,LED_MOUTH1*%
X107878168Y-68508168D02*
X110185727Y-68508168D01*
X106680000Y-67310000D02*
X107878168Y-68508168D01*
%TD*%
D16*
%TO.N,GND*%
G36*
X94742836Y-57834101D02*
G01*
X94829001Y-57844058D01*
X113823955Y-61025278D01*
X113908672Y-61043939D01*
X113982216Y-61068186D01*
X114090883Y-61119858D01*
X114187470Y-61184788D01*
X114273187Y-61262584D01*
X114346796Y-61351649D01*
X114407014Y-61450252D01*
X114452639Y-61556639D01*
X114482558Y-61669116D01*
X114496007Y-61788689D01*
X114494970Y-61866128D01*
X114485015Y-61952282D01*
X113216229Y-69528028D01*
X113215977Y-69531720D01*
X113215145Y-69535325D01*
X113214805Y-69538096D01*
X113203092Y-69639419D01*
X113202940Y-69648192D01*
X113201843Y-69656911D01*
X113201787Y-69659703D01*
X113200443Y-69759867D01*
X113201381Y-69770968D01*
X113201384Y-69782120D01*
X113201677Y-69784897D01*
X113218181Y-69931678D01*
X113220970Y-69944782D01*
X113222950Y-69958038D01*
X113223650Y-69960741D01*
X113261115Y-70101593D01*
X113265705Y-70113873D01*
X113269500Y-70126434D01*
X113270583Y-70129008D01*
X113327589Y-70261938D01*
X113333809Y-70273246D01*
X113339273Y-70284958D01*
X113340712Y-70287351D01*
X113415837Y-70410365D01*
X113423562Y-70420612D01*
X113430595Y-70431371D01*
X113432359Y-70433536D01*
X113524183Y-70544644D01*
X113533338Y-70553744D01*
X113541878Y-70563440D01*
X113543933Y-70565331D01*
X113651035Y-70662540D01*
X113661551Y-70670358D01*
X113671562Y-70678851D01*
X113673869Y-70680424D01*
X113794828Y-70761740D01*
X113806621Y-70768093D01*
X113818010Y-70775163D01*
X113820523Y-70776380D01*
X113953918Y-70839811D01*
X113964405Y-70843593D01*
X113974535Y-70848241D01*
X113977181Y-70849134D01*
X114072318Y-70880501D01*
X114080885Y-70882423D01*
X114089195Y-70885256D01*
X114091918Y-70885875D01*
X114191531Y-70907818D01*
X114195203Y-70908257D01*
X114198770Y-70909274D01*
X114201521Y-70909754D01*
X116731311Y-71333434D01*
X116816031Y-71352096D01*
X116889575Y-71376343D01*
X116998242Y-71428015D01*
X117094832Y-71492947D01*
X117180552Y-71570747D01*
X117254152Y-71659802D01*
X117314372Y-71758407D01*
X117360000Y-71864801D01*
X117389918Y-71977269D01*
X117403366Y-72096843D01*
X117402329Y-72174284D01*
X117392374Y-72260442D01*
X116898325Y-75210418D01*
X116879668Y-75295116D01*
X116855419Y-75368666D01*
X116803749Y-75477331D01*
X116738813Y-75573926D01*
X116661021Y-75659639D01*
X116571959Y-75733246D01*
X116473355Y-75793465D01*
X116366960Y-75839093D01*
X116254493Y-75869011D01*
X116134918Y-75882459D01*
X116057478Y-75881422D01*
X115971320Y-75871467D01*
X114227563Y-75579431D01*
X114219268Y-75578864D01*
X114211098Y-75577372D01*
X114199849Y-75577538D01*
X114188620Y-75576771D01*
X114180382Y-75577825D01*
X114172070Y-75577948D01*
X114161059Y-75580298D01*
X114149903Y-75581726D01*
X114142025Y-75584361D01*
X114133896Y-75586096D01*
X114123552Y-75590540D01*
X114112886Y-75594107D01*
X114105672Y-75598220D01*
X114098033Y-75601502D01*
X114088752Y-75607868D01*
X114078977Y-75613442D01*
X114072692Y-75618885D01*
X114065844Y-75623582D01*
X114057988Y-75631618D01*
X114049470Y-75638994D01*
X114044357Y-75645560D01*
X114038557Y-75651493D01*
X114032409Y-75660905D01*
X114025489Y-75669792D01*
X114021753Y-75677217D01*
X114017211Y-75684171D01*
X114013004Y-75694608D01*
X114007947Y-75704660D01*
X114005726Y-75712663D01*
X114002618Y-75720375D01*
X114000517Y-75731439D01*
X113997511Y-75742273D01*
X113996887Y-75750553D01*
X113995336Y-75758722D01*
X113995424Y-75769979D01*
X113994579Y-75781196D01*
X113995576Y-75789445D01*
X113995641Y-75797755D01*
X113997913Y-75808774D01*
X113999263Y-75819946D01*
X114001845Y-75827849D01*
X114003522Y-75835984D01*
X114007889Y-75846350D01*
X114011385Y-75857050D01*
X114015451Y-75864298D01*
X114018677Y-75871955D01*
X114024976Y-75881276D01*
X114030482Y-75891092D01*
X114035880Y-75897413D01*
X114040531Y-75904297D01*
X114042328Y-75906434D01*
X114296037Y-76204041D01*
X114541997Y-76505553D01*
X114781410Y-76812394D01*
X115014284Y-77124610D01*
X115240420Y-77441969D01*
X115459749Y-77764423D01*
X115672154Y-78091848D01*
X115877539Y-78424161D01*
X116075799Y-78761255D01*
X116266812Y-79103005D01*
X116450492Y-79449341D01*
X116626704Y-79800104D01*
X116795370Y-80155248D01*
X116956365Y-80514628D01*
X117109594Y-80878167D01*
X117254935Y-81245723D01*
X117392309Y-81617261D01*
X117521592Y-81992636D01*
X117642667Y-82371710D01*
X117755455Y-82754461D01*
X117859811Y-83140656D01*
X117955676Y-83530377D01*
X118042913Y-83923388D01*
X118121411Y-84319575D01*
X118191084Y-84718921D01*
X118251814Y-85121283D01*
X118303488Y-85526510D01*
X118346013Y-85934588D01*
X118379277Y-86345396D01*
X118403167Y-86758782D01*
X118417580Y-87174657D01*
X118422394Y-87591611D01*
X118399193Y-88509139D01*
X118330451Y-89413153D01*
X118217250Y-90304001D01*
X118060723Y-91180505D01*
X117861979Y-92041618D01*
X117622142Y-92886209D01*
X117342321Y-93713194D01*
X117023626Y-94521475D01*
X116667194Y-95309885D01*
X116274114Y-96077363D01*
X115845527Y-96822748D01*
X115382528Y-97544957D01*
X114886238Y-98242861D01*
X114357795Y-98915311D01*
X113798298Y-99561216D01*
X113208884Y-100179434D01*
X112590666Y-100768848D01*
X111944761Y-101328345D01*
X111272298Y-101856798D01*
X110574398Y-102353084D01*
X109852198Y-102816077D01*
X109106805Y-103244669D01*
X108339318Y-103637752D01*
X107550925Y-103994176D01*
X106742644Y-104312871D01*
X105915660Y-104592692D01*
X105071068Y-104832529D01*
X104209958Y-105031272D01*
X103333451Y-105187800D01*
X102442605Y-105301001D01*
X101538589Y-105369743D01*
X100622424Y-105392909D01*
X99706258Y-105369743D01*
X98802244Y-105301001D01*
X97911396Y-105187800D01*
X97034892Y-105031273D01*
X96173779Y-104832529D01*
X95329188Y-104592692D01*
X94502203Y-104312871D01*
X93693922Y-103994176D01*
X92905512Y-103637744D01*
X92138034Y-103244664D01*
X91392649Y-102816077D01*
X90670440Y-102353078D01*
X89972536Y-101856788D01*
X89300086Y-101328345D01*
X88654181Y-100768848D01*
X88035964Y-100179434D01*
X87481586Y-99597965D01*
X99671215Y-99597965D01*
X99676042Y-99646974D01*
X99690337Y-99694099D01*
X99713552Y-99737530D01*
X99744793Y-99775597D01*
X99782860Y-99806838D01*
X99826291Y-99830053D01*
X99873416Y-99844348D01*
X99922425Y-99849175D01*
X100509925Y-99847965D01*
X100572425Y-99785465D01*
X100572425Y-99072965D01*
X100672425Y-99072965D01*
X100672425Y-99785465D01*
X100734925Y-99847965D01*
X101322425Y-99849175D01*
X101371434Y-99844348D01*
X101418559Y-99830053D01*
X101461990Y-99806838D01*
X101500057Y-99775597D01*
X101531298Y-99737530D01*
X101554513Y-99694099D01*
X101568808Y-99646974D01*
X101573635Y-99597965D01*
X101572425Y-99135465D01*
X101509925Y-99072965D01*
X100672425Y-99072965D01*
X100572425Y-99072965D01*
X99734925Y-99072965D01*
X99672425Y-99135465D01*
X99671215Y-99597965D01*
X87481586Y-99597965D01*
X87446549Y-99561216D01*
X86887052Y-98915311D01*
X86882300Y-98909263D01*
X95929896Y-98909263D01*
X95934723Y-98958272D01*
X95949018Y-99005397D01*
X95972233Y-99048828D01*
X96003474Y-99086895D01*
X96041541Y-99118136D01*
X96084972Y-99141351D01*
X96132097Y-99155646D01*
X96181106Y-99160473D01*
X96768606Y-99159263D01*
X96831106Y-99096763D01*
X96831106Y-98384263D01*
X96931106Y-98384263D01*
X96931106Y-99096763D01*
X96993606Y-99159263D01*
X97581106Y-99160473D01*
X97630115Y-99155646D01*
X97677240Y-99141351D01*
X97720671Y-99118136D01*
X97758738Y-99086895D01*
X97789979Y-99048828D01*
X97813194Y-99005397D01*
X97827489Y-98958272D01*
X97832316Y-98909263D01*
X97831110Y-98447965D01*
X99671215Y-98447965D01*
X99672425Y-98910465D01*
X99734925Y-98972965D01*
X100572425Y-98972965D01*
X100572425Y-98260465D01*
X100672425Y-98260465D01*
X100672425Y-98972965D01*
X101509925Y-98972965D01*
X101517363Y-98965527D01*
X103422455Y-98965527D01*
X103427282Y-99014536D01*
X103441577Y-99061661D01*
X103464792Y-99105092D01*
X103496033Y-99143159D01*
X103534100Y-99174400D01*
X103577531Y-99197615D01*
X103624656Y-99211910D01*
X103673665Y-99216737D01*
X104261165Y-99215527D01*
X104323665Y-99153027D01*
X104323665Y-98440527D01*
X104423665Y-98440527D01*
X104423665Y-99153027D01*
X104486165Y-99215527D01*
X105073665Y-99216737D01*
X105122674Y-99211910D01*
X105169799Y-99197615D01*
X105213230Y-99174400D01*
X105251297Y-99143159D01*
X105282538Y-99105092D01*
X105305753Y-99061661D01*
X105320048Y-99014536D01*
X105324875Y-98965527D01*
X105323665Y-98503027D01*
X105261165Y-98440527D01*
X104423665Y-98440527D01*
X104323665Y-98440527D01*
X103486165Y-98440527D01*
X103423665Y-98503027D01*
X103422455Y-98965527D01*
X101517363Y-98965527D01*
X101572425Y-98910465D01*
X101573635Y-98447965D01*
X101568808Y-98398956D01*
X101554513Y-98351831D01*
X101531298Y-98308400D01*
X101500057Y-98270333D01*
X101461990Y-98239092D01*
X101418559Y-98215877D01*
X101371434Y-98201582D01*
X101322425Y-98196755D01*
X100734925Y-98197965D01*
X100672425Y-98260465D01*
X100572425Y-98260465D01*
X100509925Y-98197965D01*
X99922425Y-98196755D01*
X99873416Y-98201582D01*
X99826291Y-98215877D01*
X99782860Y-98239092D01*
X99744793Y-98270333D01*
X99713552Y-98308400D01*
X99690337Y-98351831D01*
X99676042Y-98398956D01*
X99671215Y-98447965D01*
X97831110Y-98447965D01*
X97831106Y-98446763D01*
X97768606Y-98384263D01*
X96931106Y-98384263D01*
X96831106Y-98384263D01*
X95993606Y-98384263D01*
X95931106Y-98446763D01*
X95929896Y-98909263D01*
X86882300Y-98909263D01*
X86358599Y-98242848D01*
X86014716Y-97759263D01*
X95929896Y-97759263D01*
X95931106Y-98221763D01*
X95993606Y-98284263D01*
X96831106Y-98284263D01*
X96831106Y-97571763D01*
X96931106Y-97571763D01*
X96931106Y-98284263D01*
X97768606Y-98284263D01*
X97831106Y-98221763D01*
X97832168Y-97815527D01*
X103422455Y-97815527D01*
X103423665Y-98278027D01*
X103486165Y-98340527D01*
X104323665Y-98340527D01*
X104323665Y-97628027D01*
X104423665Y-97628027D01*
X104423665Y-98340527D01*
X105261165Y-98340527D01*
X105323665Y-98278027D01*
X105324875Y-97815527D01*
X105320048Y-97766518D01*
X105305753Y-97719393D01*
X105282538Y-97675962D01*
X105251297Y-97637895D01*
X105213230Y-97606654D01*
X105169799Y-97583439D01*
X105122674Y-97569144D01*
X105073665Y-97564317D01*
X104486165Y-97565527D01*
X104423665Y-97628027D01*
X104323665Y-97628027D01*
X104261165Y-97565527D01*
X103673665Y-97564317D01*
X103624656Y-97569144D01*
X103577531Y-97583439D01*
X103534100Y-97606654D01*
X103496033Y-97637895D01*
X103464792Y-97675962D01*
X103441577Y-97719393D01*
X103427282Y-97766518D01*
X103422455Y-97815527D01*
X97832168Y-97815527D01*
X97832316Y-97759263D01*
X97827489Y-97710254D01*
X97813194Y-97663129D01*
X97789979Y-97619698D01*
X97758738Y-97581631D01*
X97720671Y-97550390D01*
X97677240Y-97527175D01*
X97630115Y-97512880D01*
X97581106Y-97508053D01*
X96993606Y-97509263D01*
X96931106Y-97571763D01*
X96831106Y-97571763D01*
X96768606Y-97509263D01*
X96181106Y-97508053D01*
X96132097Y-97512880D01*
X96084972Y-97527175D01*
X96041541Y-97550390D01*
X96003474Y-97581631D01*
X95972233Y-97619698D01*
X95949018Y-97663129D01*
X95934723Y-97710254D01*
X95929896Y-97759263D01*
X86014716Y-97759263D01*
X85862313Y-97544948D01*
X85501727Y-96982487D01*
X92649756Y-96982487D01*
X92654583Y-97031496D01*
X92668878Y-97078621D01*
X92692093Y-97122052D01*
X92723334Y-97160119D01*
X92761401Y-97191360D01*
X92804832Y-97214575D01*
X92851957Y-97228870D01*
X92900966Y-97233697D01*
X93488466Y-97232487D01*
X93550966Y-97169987D01*
X93550966Y-96457487D01*
X93650966Y-96457487D01*
X93650966Y-97169987D01*
X93713466Y-97232487D01*
X94300966Y-97233697D01*
X94349975Y-97228870D01*
X94397100Y-97214575D01*
X94440531Y-97191360D01*
X94478598Y-97160119D01*
X94509839Y-97122052D01*
X94533054Y-97078621D01*
X94547349Y-97031496D01*
X94552176Y-96982487D01*
X94550966Y-96519987D01*
X94488466Y-96457487D01*
X93650966Y-96457487D01*
X93550966Y-96457487D01*
X92713466Y-96457487D01*
X92650966Y-96519987D01*
X92649756Y-96982487D01*
X85501727Y-96982487D01*
X85399320Y-96822748D01*
X84970728Y-96077355D01*
X84845315Y-95832487D01*
X92649756Y-95832487D01*
X92650966Y-96294987D01*
X92713466Y-96357487D01*
X93550966Y-96357487D01*
X93550966Y-95644987D01*
X93650966Y-95644987D01*
X93650966Y-96357487D01*
X94488466Y-96357487D01*
X94550966Y-96294987D01*
X94552176Y-95832487D01*
X94547349Y-95783478D01*
X94533054Y-95736353D01*
X94509839Y-95692922D01*
X94478598Y-95654855D01*
X94440531Y-95623614D01*
X94397100Y-95600399D01*
X94349975Y-95586104D01*
X94300966Y-95581277D01*
X93713466Y-95582487D01*
X93650966Y-95644987D01*
X93550966Y-95644987D01*
X93488466Y-95582487D01*
X92900966Y-95581277D01*
X92851957Y-95586104D01*
X92804832Y-95600399D01*
X92761401Y-95623614D01*
X92723334Y-95654855D01*
X92692093Y-95692922D01*
X92668878Y-95736353D01*
X92654583Y-95783478D01*
X92649756Y-95832487D01*
X84845315Y-95832487D01*
X84577645Y-95309868D01*
X84221221Y-94521475D01*
X83902526Y-93713194D01*
X83622705Y-92886210D01*
X83382868Y-92041618D01*
X83184125Y-91180508D01*
X83027597Y-90304001D01*
X82914396Y-89413155D01*
X82845654Y-88509139D01*
X82822468Y-87592142D01*
X82832909Y-86977257D01*
X82864048Y-86366864D01*
X82915529Y-85762119D01*
X82987015Y-85163328D01*
X83008144Y-85025981D01*
X90790000Y-85025981D01*
X90790000Y-85154019D01*
X90814979Y-85279598D01*
X90863978Y-85397890D01*
X90935112Y-85504351D01*
X91025649Y-85594888D01*
X91132110Y-85666022D01*
X91250402Y-85715021D01*
X91375981Y-85740000D01*
X91504019Y-85740000D01*
X91550438Y-85730767D01*
X93225967Y-87406297D01*
X93225966Y-93531278D01*
X93150965Y-93531278D01*
X93053184Y-93540909D01*
X92959161Y-93569430D01*
X92872509Y-93615747D01*
X92796557Y-93678078D01*
X92734226Y-93754030D01*
X92687909Y-93840682D01*
X92659388Y-93934705D01*
X92649757Y-94032486D01*
X92649757Y-94682488D01*
X92659388Y-94780269D01*
X92687909Y-94874292D01*
X92734226Y-94960944D01*
X92796557Y-95036896D01*
X92872509Y-95099227D01*
X92959161Y-95145544D01*
X93053184Y-95174065D01*
X93150965Y-95183696D01*
X94050967Y-95183696D01*
X94148748Y-95174065D01*
X94242771Y-95145544D01*
X94329423Y-95099227D01*
X94405375Y-95036896D01*
X94467706Y-94960944D01*
X94514023Y-94874292D01*
X94542544Y-94780269D01*
X94552175Y-94682488D01*
X94552175Y-94032486D01*
X94542544Y-93934705D01*
X94514023Y-93840682D01*
X94467706Y-93754030D01*
X94405375Y-93678078D01*
X94329423Y-93615747D01*
X94242771Y-93569430D01*
X94148748Y-93540909D01*
X94050967Y-93531278D01*
X93975966Y-93531278D01*
X93975966Y-87269381D01*
X93977780Y-87250965D01*
X93974304Y-87215672D01*
X93970540Y-87177453D01*
X93949097Y-87106766D01*
X93947607Y-87103979D01*
X93914275Y-87041618D01*
X93892209Y-87014732D01*
X93867414Y-86984518D01*
X93853105Y-86972775D01*
X92080767Y-85200438D01*
X92090000Y-85154019D01*
X92090000Y-85025981D01*
X92065021Y-84900402D01*
X92016022Y-84782110D01*
X91944888Y-84675649D01*
X91854351Y-84585112D01*
X91747890Y-84513978D01*
X91629598Y-84464979D01*
X91504019Y-84440000D01*
X91375981Y-84440000D01*
X91250402Y-84464979D01*
X91132110Y-84513978D01*
X91025649Y-84585112D01*
X90935112Y-84675649D01*
X90863978Y-84782110D01*
X90814979Y-84900402D01*
X90790000Y-85025981D01*
X83008144Y-85025981D01*
X83078168Y-84570807D01*
X83188635Y-83984973D01*
X83318093Y-83406073D01*
X83466199Y-82834458D01*
X83632618Y-82270456D01*
X83817014Y-81714390D01*
X84019026Y-81166667D01*
X84204799Y-80710000D01*
X91443641Y-80710000D01*
X91448468Y-80759009D01*
X91462763Y-80806134D01*
X91485978Y-80849565D01*
X91517219Y-80887632D01*
X91555286Y-80918873D01*
X91598717Y-80942088D01*
X91645842Y-80956383D01*
X91694851Y-80961210D01*
X92157351Y-80960000D01*
X92219851Y-80897500D01*
X92219851Y-80060000D01*
X92319851Y-80060000D01*
X92319851Y-80897500D01*
X92382351Y-80960000D01*
X92844851Y-80961210D01*
X92893860Y-80956383D01*
X92940985Y-80942088D01*
X92984416Y-80918873D01*
X93022483Y-80887632D01*
X93053724Y-80849565D01*
X93076939Y-80806134D01*
X93091234Y-80759009D01*
X93096061Y-80710000D01*
X93094851Y-80122500D01*
X93032351Y-80060000D01*
X92319851Y-80060000D01*
X92219851Y-80060000D01*
X91507351Y-80060000D01*
X91444851Y-80122500D01*
X91443641Y-80710000D01*
X84204799Y-80710000D01*
X84238351Y-80627523D01*
X84474644Y-80097318D01*
X84727547Y-79576429D01*
X84867825Y-79310000D01*
X91443641Y-79310000D01*
X91444851Y-79897500D01*
X91507351Y-79960000D01*
X92219851Y-79960000D01*
X92219851Y-79122500D01*
X92319851Y-79122500D01*
X92319851Y-79960000D01*
X93032351Y-79960000D01*
X93094851Y-79897500D01*
X93095546Y-79559999D01*
X93493642Y-79559999D01*
X93493642Y-80460001D01*
X93503273Y-80557782D01*
X93531794Y-80651805D01*
X93578111Y-80738457D01*
X93640442Y-80814409D01*
X93716394Y-80876740D01*
X93803046Y-80923057D01*
X93897069Y-80951578D01*
X93994850Y-80961209D01*
X94644852Y-80961209D01*
X94683827Y-80957370D01*
X94673978Y-80972110D01*
X94624979Y-81090402D01*
X94600000Y-81215981D01*
X94600000Y-81344019D01*
X94624979Y-81469598D01*
X94673978Y-81587890D01*
X94745112Y-81694351D01*
X94835649Y-81784888D01*
X94942110Y-81856022D01*
X95060402Y-81905021D01*
X95185981Y-81930000D01*
X95314019Y-81930000D01*
X95360437Y-81920767D01*
X96506107Y-83066438D01*
X96506106Y-95458054D01*
X96431105Y-95458054D01*
X96333324Y-95467685D01*
X96239301Y-95496206D01*
X96152649Y-95542523D01*
X96076697Y-95604854D01*
X96014366Y-95680806D01*
X95968049Y-95767458D01*
X95939528Y-95861481D01*
X95929897Y-95959262D01*
X95929897Y-96609264D01*
X95939528Y-96707045D01*
X95968049Y-96801068D01*
X96014366Y-96887720D01*
X96076697Y-96963672D01*
X96152649Y-97026003D01*
X96239301Y-97072320D01*
X96333324Y-97100841D01*
X96431105Y-97110472D01*
X97331107Y-97110472D01*
X97428888Y-97100841D01*
X97522911Y-97072320D01*
X97609563Y-97026003D01*
X97685515Y-96963672D01*
X97747846Y-96887720D01*
X97794163Y-96801068D01*
X97822684Y-96707045D01*
X97828503Y-96647964D01*
X99671216Y-96647964D01*
X99671216Y-97297966D01*
X99680847Y-97395747D01*
X99709368Y-97489770D01*
X99755685Y-97576422D01*
X99818016Y-97652374D01*
X99893968Y-97714705D01*
X99980620Y-97761022D01*
X100074643Y-97789543D01*
X100172424Y-97799174D01*
X101072426Y-97799174D01*
X101170207Y-97789543D01*
X101264230Y-97761022D01*
X101350882Y-97714705D01*
X101426834Y-97652374D01*
X101489165Y-97576422D01*
X101535482Y-97489770D01*
X101564003Y-97395747D01*
X101573634Y-97297966D01*
X101573634Y-96647964D01*
X101564003Y-96550183D01*
X101535482Y-96456160D01*
X101489165Y-96369508D01*
X101426834Y-96293556D01*
X101350882Y-96231225D01*
X101264230Y-96184908D01*
X101170207Y-96156387D01*
X101072426Y-96146756D01*
X101036942Y-96146756D01*
X101036942Y-96015526D01*
X103422456Y-96015526D01*
X103422456Y-96665528D01*
X103432087Y-96763309D01*
X103460608Y-96857332D01*
X103506925Y-96943984D01*
X103569256Y-97019936D01*
X103645208Y-97082267D01*
X103731860Y-97128584D01*
X103825883Y-97157105D01*
X103923664Y-97166736D01*
X104823666Y-97166736D01*
X104921447Y-97157105D01*
X105015470Y-97128584D01*
X105090964Y-97088231D01*
X106731161Y-97088231D01*
X106735988Y-97137240D01*
X106750283Y-97184365D01*
X106773498Y-97227796D01*
X106804739Y-97265863D01*
X106842806Y-97297104D01*
X106886237Y-97320319D01*
X106933362Y-97334614D01*
X106982371Y-97339441D01*
X107569871Y-97338231D01*
X107632371Y-97275731D01*
X107632371Y-96563231D01*
X107732371Y-96563231D01*
X107732371Y-97275731D01*
X107794871Y-97338231D01*
X108382371Y-97339441D01*
X108431380Y-97334614D01*
X108478505Y-97320319D01*
X108521936Y-97297104D01*
X108560003Y-97265863D01*
X108591244Y-97227796D01*
X108614459Y-97184365D01*
X108628754Y-97137240D01*
X108633581Y-97088231D01*
X108632371Y-96625731D01*
X108569871Y-96563231D01*
X107732371Y-96563231D01*
X107632371Y-96563231D01*
X106794871Y-96563231D01*
X106732371Y-96625731D01*
X106731161Y-97088231D01*
X105090964Y-97088231D01*
X105102122Y-97082267D01*
X105178074Y-97019936D01*
X105240405Y-96943984D01*
X105286722Y-96857332D01*
X105315243Y-96763309D01*
X105324874Y-96665528D01*
X105324874Y-96015526D01*
X105317261Y-95938231D01*
X106731161Y-95938231D01*
X106732371Y-96400731D01*
X106794871Y-96463231D01*
X107632371Y-96463231D01*
X107632371Y-95750731D01*
X107732371Y-95750731D01*
X107732371Y-96463231D01*
X108569871Y-96463231D01*
X108632371Y-96400731D01*
X108633581Y-95938231D01*
X108628754Y-95889222D01*
X108614459Y-95842097D01*
X108591244Y-95798666D01*
X108560003Y-95760599D01*
X108521936Y-95729358D01*
X108478505Y-95706143D01*
X108431380Y-95691848D01*
X108382371Y-95687021D01*
X107794871Y-95688231D01*
X107732371Y-95750731D01*
X107632371Y-95750731D01*
X107569871Y-95688231D01*
X106982371Y-95687021D01*
X106933362Y-95691848D01*
X106886237Y-95706143D01*
X106842806Y-95729358D01*
X106804739Y-95760599D01*
X106773498Y-95798666D01*
X106750283Y-95842097D01*
X106735988Y-95889222D01*
X106731161Y-95938231D01*
X105317261Y-95938231D01*
X105315243Y-95917745D01*
X105286722Y-95823722D01*
X105240405Y-95737070D01*
X105178074Y-95661118D01*
X105102122Y-95598787D01*
X105015470Y-95552470D01*
X104921447Y-95523949D01*
X104823666Y-95514318D01*
X104748665Y-95514318D01*
X104748665Y-94138230D01*
X106731162Y-94138230D01*
X106731162Y-94788232D01*
X106740793Y-94886013D01*
X106769314Y-94980036D01*
X106815631Y-95066688D01*
X106877962Y-95142640D01*
X106953914Y-95204971D01*
X107040566Y-95251288D01*
X107134589Y-95279809D01*
X107232370Y-95289440D01*
X108132372Y-95289440D01*
X108230153Y-95279809D01*
X108324176Y-95251288D01*
X108410828Y-95204971D01*
X108486780Y-95142640D01*
X108549111Y-95066688D01*
X108595428Y-94980036D01*
X108623949Y-94886013D01*
X108633580Y-94788232D01*
X108633580Y-94138230D01*
X108623949Y-94040449D01*
X108595428Y-93946426D01*
X108549111Y-93859774D01*
X108486780Y-93783822D01*
X108410828Y-93721491D01*
X108324176Y-93675174D01*
X108230153Y-93646653D01*
X108132372Y-93637022D01*
X108057371Y-93637022D01*
X108057371Y-88052958D01*
X110379563Y-85730767D01*
X110425981Y-85740000D01*
X110554019Y-85740000D01*
X110679598Y-85715021D01*
X110797890Y-85666022D01*
X110904351Y-85594888D01*
X110994888Y-85504351D01*
X111066022Y-85397890D01*
X111115021Y-85279598D01*
X111140000Y-85154019D01*
X111140000Y-85025981D01*
X111115021Y-84900402D01*
X111066022Y-84782110D01*
X110994888Y-84675649D01*
X110904351Y-84585112D01*
X110797890Y-84513978D01*
X110679598Y-84464979D01*
X110554019Y-84440000D01*
X110425981Y-84440000D01*
X110300402Y-84464979D01*
X110182110Y-84513978D01*
X110075649Y-84585112D01*
X109985112Y-84675649D01*
X109913978Y-84782110D01*
X109864979Y-84900402D01*
X109840000Y-85025981D01*
X109840000Y-85154019D01*
X109849233Y-85200437D01*
X107430233Y-87619438D01*
X107415924Y-87631181D01*
X107404182Y-87645489D01*
X107369062Y-87688283D01*
X107359824Y-87705567D01*
X107334241Y-87753429D01*
X107323348Y-87789340D01*
X107312798Y-87824117D01*
X107305557Y-87897629D01*
X107307372Y-87916055D01*
X107307371Y-93637022D01*
X107232370Y-93637022D01*
X107134589Y-93646653D01*
X107040566Y-93675174D01*
X106953914Y-93721491D01*
X106877962Y-93783822D01*
X106815631Y-93859774D01*
X106769314Y-93946426D01*
X106740793Y-94040449D01*
X106731162Y-94138230D01*
X104748665Y-94138230D01*
X104748665Y-81201664D01*
X105240329Y-80710000D01*
X106098790Y-80710000D01*
X106103617Y-80759009D01*
X106117912Y-80806134D01*
X106141127Y-80849565D01*
X106172368Y-80887632D01*
X106210435Y-80918873D01*
X106253866Y-80942088D01*
X106300991Y-80956383D01*
X106350000Y-80961210D01*
X106812500Y-80960000D01*
X106875000Y-80897500D01*
X106875000Y-80060000D01*
X106975000Y-80060000D01*
X106975000Y-80897500D01*
X107037500Y-80960000D01*
X107500000Y-80961210D01*
X107549009Y-80956383D01*
X107596134Y-80942088D01*
X107639565Y-80918873D01*
X107677632Y-80887632D01*
X107708873Y-80849565D01*
X107732088Y-80806134D01*
X107746383Y-80759009D01*
X107751210Y-80710000D01*
X107750000Y-80122500D01*
X107687500Y-80060000D01*
X106975000Y-80060000D01*
X106875000Y-80060000D01*
X106162500Y-80060000D01*
X106100000Y-80122500D01*
X106098790Y-80710000D01*
X105240329Y-80710000D01*
X105299563Y-80650767D01*
X105345981Y-80660000D01*
X105474019Y-80660000D01*
X105599598Y-80635021D01*
X105717890Y-80586022D01*
X105824351Y-80514888D01*
X105914888Y-80424351D01*
X105986022Y-80317890D01*
X106035021Y-80199598D01*
X106060000Y-80074019D01*
X106060000Y-79945981D01*
X106035021Y-79820402D01*
X105986022Y-79702110D01*
X105914888Y-79595649D01*
X105824351Y-79505112D01*
X105717890Y-79433978D01*
X105599598Y-79384979D01*
X105474019Y-79360000D01*
X105345981Y-79360000D01*
X105220402Y-79384979D01*
X105102110Y-79433978D01*
X104995649Y-79505112D01*
X104905112Y-79595649D01*
X104833978Y-79702110D01*
X104784979Y-79820402D01*
X104760000Y-79945981D01*
X104760000Y-80074019D01*
X104769233Y-80120437D01*
X104121527Y-80768144D01*
X104107218Y-80779887D01*
X104087639Y-80803744D01*
X104060356Y-80836989D01*
X104037249Y-80880220D01*
X104025535Y-80902135D01*
X104004092Y-80972822D01*
X104003722Y-80976578D01*
X103996851Y-81046335D01*
X103998666Y-81064761D01*
X103998665Y-95514318D01*
X103923664Y-95514318D01*
X103825883Y-95523949D01*
X103731860Y-95552470D01*
X103645208Y-95598787D01*
X103569256Y-95661118D01*
X103506925Y-95737070D01*
X103460608Y-95823722D01*
X103432087Y-95917745D01*
X103422456Y-96015526D01*
X101036942Y-96015526D01*
X101036942Y-88797903D01*
X101070192Y-88860109D01*
X101132523Y-88936061D01*
X101208475Y-88998392D01*
X101295127Y-89044709D01*
X101389150Y-89073230D01*
X101486931Y-89082861D01*
X102136933Y-89082861D01*
X102234714Y-89073230D01*
X102328737Y-89044709D01*
X102415389Y-88998392D01*
X102491341Y-88936061D01*
X102553672Y-88860109D01*
X102599989Y-88773457D01*
X102628510Y-88679434D01*
X102638141Y-88581653D01*
X102638141Y-87681651D01*
X102628510Y-87583870D01*
X102599989Y-87489847D01*
X102553672Y-87403195D01*
X102491341Y-87327243D01*
X102415389Y-87264912D01*
X102328737Y-87218595D01*
X102234714Y-87190074D01*
X102186932Y-87185368D01*
X102186932Y-79310000D01*
X106098790Y-79310000D01*
X106100000Y-79897500D01*
X106162500Y-79960000D01*
X106875000Y-79960000D01*
X106875000Y-79122500D01*
X106975000Y-79122500D01*
X106975000Y-79960000D01*
X107687500Y-79960000D01*
X107750000Y-79897500D01*
X107751210Y-79310000D01*
X107746383Y-79260991D01*
X107732088Y-79213866D01*
X107708873Y-79170435D01*
X107677632Y-79132368D01*
X107639565Y-79101127D01*
X107596134Y-79077912D01*
X107549009Y-79063617D01*
X107500000Y-79058790D01*
X107037500Y-79060000D01*
X106975000Y-79122500D01*
X106875000Y-79122500D01*
X106812500Y-79060000D01*
X106350000Y-79058790D01*
X106300991Y-79063617D01*
X106253866Y-79077912D01*
X106210435Y-79101127D01*
X106172368Y-79132368D01*
X106141127Y-79170435D01*
X106117912Y-79213866D01*
X106103617Y-79260991D01*
X106098790Y-79310000D01*
X102186932Y-79310000D01*
X102186932Y-74693396D01*
X103284347Y-73595981D01*
X104760000Y-73595981D01*
X104760000Y-73724019D01*
X104784979Y-73849598D01*
X104833978Y-73967890D01*
X104905112Y-74074351D01*
X104995649Y-74164888D01*
X105102110Y-74236022D01*
X105220402Y-74285021D01*
X105345981Y-74310000D01*
X105474019Y-74310000D01*
X105520438Y-74300767D01*
X108600001Y-77380331D01*
X108600000Y-79063716D01*
X108552218Y-79068422D01*
X108458195Y-79096943D01*
X108371543Y-79143260D01*
X108295591Y-79205591D01*
X108233260Y-79281543D01*
X108186943Y-79368195D01*
X108158422Y-79462218D01*
X108148791Y-79559999D01*
X108148791Y-80460001D01*
X108158422Y-80557782D01*
X108186943Y-80651805D01*
X108233260Y-80738457D01*
X108295591Y-80814409D01*
X108371543Y-80876740D01*
X108458195Y-80923057D01*
X108552218Y-80951578D01*
X108649999Y-80961209D01*
X109300001Y-80961209D01*
X109397782Y-80951578D01*
X109491805Y-80923057D01*
X109578457Y-80876740D01*
X109654409Y-80814409D01*
X109716740Y-80738457D01*
X109763057Y-80651805D01*
X109791578Y-80557782D01*
X109801209Y-80460001D01*
X109801209Y-79559999D01*
X109791578Y-79462218D01*
X109763057Y-79368195D01*
X109716740Y-79281543D01*
X109654409Y-79205591D01*
X109578457Y-79143260D01*
X109491805Y-79096943D01*
X109397782Y-79068422D01*
X109350000Y-79063716D01*
X109350000Y-77243415D01*
X109351814Y-77224999D01*
X109349996Y-77206539D01*
X109344574Y-77151487D01*
X109323131Y-77080800D01*
X109288309Y-77015653D01*
X109241448Y-76958552D01*
X109227139Y-76946809D01*
X106050767Y-73770438D01*
X106060000Y-73724019D01*
X106060000Y-73595981D01*
X106035021Y-73470402D01*
X105986022Y-73352110D01*
X105914888Y-73245649D01*
X105824351Y-73155112D01*
X105717890Y-73083978D01*
X105599598Y-73034979D01*
X105474019Y-73010000D01*
X105345981Y-73010000D01*
X105220402Y-73034979D01*
X105102110Y-73083978D01*
X104995649Y-73155112D01*
X104905112Y-73245649D01*
X104833978Y-73352110D01*
X104784979Y-73470402D01*
X104760000Y-73595981D01*
X103284347Y-73595981D01*
X105119562Y-71760767D01*
X105165980Y-71770000D01*
X105294018Y-71770000D01*
X105419597Y-71745021D01*
X105537889Y-71696022D01*
X105644350Y-71624888D01*
X105734887Y-71534351D01*
X105806021Y-71427890D01*
X105855020Y-71309598D01*
X105879999Y-71184019D01*
X105879999Y-71055981D01*
X105855020Y-70930402D01*
X105806021Y-70812110D01*
X105734887Y-70705649D01*
X105644350Y-70615112D01*
X105537889Y-70543978D01*
X105419597Y-70494979D01*
X105294018Y-70470000D01*
X105165980Y-70470000D01*
X105040401Y-70494979D01*
X104922109Y-70543978D01*
X104815648Y-70615112D01*
X104725111Y-70705649D01*
X104653977Y-70812110D01*
X104604978Y-70930402D01*
X104579999Y-71055981D01*
X104579999Y-71184019D01*
X104589232Y-71230437D01*
X101559794Y-74259876D01*
X101545485Y-74271619D01*
X101533743Y-74285927D01*
X101498623Y-74328721D01*
X101463802Y-74393867D01*
X101442359Y-74464555D01*
X101435118Y-74538067D01*
X101436933Y-74556493D01*
X101436932Y-87185368D01*
X101389150Y-87190074D01*
X101295127Y-87218595D01*
X101208475Y-87264912D01*
X101132523Y-87327243D01*
X101070192Y-87403195D01*
X101036942Y-87465401D01*
X101036942Y-79789216D01*
X101100736Y-79746591D01*
X101191273Y-79656054D01*
X101262407Y-79549593D01*
X101311406Y-79431301D01*
X101336385Y-79305722D01*
X101336385Y-79177684D01*
X101311406Y-79052105D01*
X101262407Y-78933813D01*
X101191273Y-78827352D01*
X101100736Y-78736815D01*
X100994275Y-78665681D01*
X100875983Y-78616682D01*
X100750404Y-78591703D01*
X100622366Y-78591703D01*
X100496787Y-78616682D01*
X100378495Y-78665681D01*
X100272034Y-78736815D01*
X100181497Y-78827352D01*
X100110363Y-78933813D01*
X100061364Y-79052105D01*
X100036385Y-79177684D01*
X100036385Y-79305722D01*
X100061364Y-79431301D01*
X100110363Y-79549593D01*
X100181497Y-79656054D01*
X100272034Y-79746591D01*
X100286943Y-79756553D01*
X100286943Y-87180573D01*
X99874432Y-87181652D01*
X99811932Y-87244152D01*
X99811932Y-88081652D01*
X99831932Y-88081652D01*
X99831932Y-88181652D01*
X99811932Y-88181652D01*
X99811932Y-89019152D01*
X99874432Y-89081652D01*
X100286942Y-89082731D01*
X100286942Y-96146756D01*
X100172424Y-96146756D01*
X100074643Y-96156387D01*
X99980620Y-96184908D01*
X99893968Y-96231225D01*
X99818016Y-96293556D01*
X99755685Y-96369508D01*
X99709368Y-96456160D01*
X99680847Y-96550183D01*
X99671216Y-96647964D01*
X97828503Y-96647964D01*
X97832315Y-96609264D01*
X97832315Y-95959262D01*
X97822684Y-95861481D01*
X97794163Y-95767458D01*
X97747846Y-95680806D01*
X97685515Y-95604854D01*
X97609563Y-95542523D01*
X97522911Y-95496206D01*
X97428888Y-95467685D01*
X97331107Y-95458054D01*
X97256106Y-95458054D01*
X97256106Y-88831652D01*
X98935722Y-88831652D01*
X98940549Y-88880661D01*
X98954844Y-88927786D01*
X98978059Y-88971217D01*
X99009300Y-89009284D01*
X99047367Y-89040525D01*
X99090798Y-89063740D01*
X99137923Y-89078035D01*
X99186932Y-89082862D01*
X99649432Y-89081652D01*
X99711932Y-89019152D01*
X99711932Y-88181652D01*
X98999432Y-88181652D01*
X98936932Y-88244152D01*
X98935722Y-88831652D01*
X97256106Y-88831652D01*
X97256106Y-87431652D01*
X98935722Y-87431652D01*
X98936932Y-88019152D01*
X98999432Y-88081652D01*
X99711932Y-88081652D01*
X99711932Y-87244152D01*
X99649432Y-87181652D01*
X99186932Y-87180442D01*
X99137923Y-87185269D01*
X99090798Y-87199564D01*
X99047367Y-87222779D01*
X99009300Y-87254020D01*
X98978059Y-87292087D01*
X98954844Y-87335518D01*
X98940549Y-87382643D01*
X98935722Y-87431652D01*
X97256106Y-87431652D01*
X97256106Y-82929521D01*
X97257920Y-82911105D01*
X97255914Y-82890737D01*
X97250680Y-82837593D01*
X97229237Y-82766906D01*
X97194415Y-82701759D01*
X97169969Y-82671971D01*
X97159295Y-82658964D01*
X97159292Y-82658961D01*
X97147554Y-82644658D01*
X97133251Y-82632920D01*
X95890767Y-81390437D01*
X95900000Y-81344019D01*
X95900000Y-81215981D01*
X95875021Y-81090402D01*
X95826022Y-80972110D01*
X95754888Y-80865649D01*
X95664351Y-80775112D01*
X95557890Y-80703978D01*
X95439598Y-80654979D01*
X95314019Y-80630000D01*
X95185981Y-80630000D01*
X95109934Y-80645127D01*
X95136429Y-80557782D01*
X95146060Y-80460001D01*
X95146060Y-79559999D01*
X95136429Y-79462218D01*
X95107908Y-79368195D01*
X95061591Y-79281543D01*
X94999260Y-79205591D01*
X94923308Y-79143260D01*
X94836656Y-79096943D01*
X94742633Y-79068422D01*
X94694851Y-79063716D01*
X94694851Y-76015478D01*
X98949563Y-71760767D01*
X98995981Y-71770000D01*
X99124019Y-71770000D01*
X99249598Y-71745021D01*
X99367890Y-71696022D01*
X99474351Y-71624888D01*
X99564888Y-71534351D01*
X99636022Y-71427890D01*
X99685021Y-71309598D01*
X99710000Y-71184019D01*
X99710000Y-71055981D01*
X99685021Y-70930402D01*
X99636022Y-70812110D01*
X99564888Y-70705649D01*
X99474351Y-70615112D01*
X99367890Y-70543978D01*
X99249598Y-70494979D01*
X99124019Y-70470000D01*
X98995981Y-70470000D01*
X98870402Y-70494979D01*
X98752110Y-70543978D01*
X98645649Y-70615112D01*
X98555112Y-70705649D01*
X98483978Y-70812110D01*
X98434979Y-70930402D01*
X98410000Y-71055981D01*
X98410000Y-71184019D01*
X98419233Y-71230437D01*
X94067713Y-75581958D01*
X94053404Y-75593701D01*
X94041662Y-75608009D01*
X94006542Y-75650803D01*
X93981022Y-75698548D01*
X93971721Y-75715949D01*
X93951929Y-75781196D01*
X93950278Y-75786637D01*
X93943037Y-75860149D01*
X93944852Y-75878575D01*
X93944851Y-78418567D01*
X93944852Y-78418577D01*
X93944852Y-79063716D01*
X93897069Y-79068422D01*
X93803046Y-79096943D01*
X93716394Y-79143260D01*
X93640442Y-79205591D01*
X93578111Y-79281543D01*
X93531794Y-79368195D01*
X93503273Y-79462218D01*
X93493642Y-79559999D01*
X93095546Y-79559999D01*
X93096061Y-79310000D01*
X93091234Y-79260991D01*
X93076939Y-79213866D01*
X93053724Y-79170435D01*
X93022483Y-79132368D01*
X92984416Y-79101127D01*
X92940985Y-79077912D01*
X92893860Y-79063617D01*
X92844851Y-79058790D01*
X92382351Y-79060000D01*
X92319851Y-79122500D01*
X92219851Y-79122500D01*
X92157351Y-79060000D01*
X91694851Y-79058790D01*
X91645842Y-79063617D01*
X91598717Y-79077912D01*
X91555286Y-79101127D01*
X91517219Y-79132368D01*
X91485978Y-79170435D01*
X91462763Y-79213866D01*
X91448468Y-79260991D01*
X91443641Y-79310000D01*
X84867825Y-79310000D01*
X84996738Y-79065160D01*
X85281874Y-78563855D01*
X85582633Y-78072822D01*
X85898658Y-77592433D01*
X86229615Y-77123014D01*
X86575179Y-76664889D01*
X86934986Y-76218422D01*
X87308731Y-75783910D01*
X87696021Y-75361754D01*
X88096569Y-74952231D01*
X88510016Y-74555698D01*
X88936023Y-74172495D01*
X89374256Y-73802952D01*
X89824370Y-73447410D01*
X90286001Y-73106224D01*
X90758864Y-72779690D01*
X91242563Y-72468183D01*
X91739579Y-72170348D01*
X91745709Y-72165806D01*
X91752325Y-72162034D01*
X91761348Y-72154221D01*
X91770943Y-72147112D01*
X91776068Y-72141473D01*
X91781832Y-72136482D01*
X91789168Y-72127061D01*
X91797197Y-72118227D01*
X91801132Y-72111696D01*
X91805813Y-72105684D01*
X91811177Y-72095022D01*
X91817340Y-72084793D01*
X91819931Y-72077624D01*
X91823356Y-72070816D01*
X91826547Y-72059315D01*
X91830606Y-72048083D01*
X91831756Y-72040542D01*
X91833792Y-72033203D01*
X91834687Y-72021313D01*
X91836489Y-72009496D01*
X91836152Y-72001869D01*
X91836723Y-71994281D01*
X91835292Y-71982441D01*
X91834764Y-71970501D01*
X91832954Y-71963096D01*
X91832040Y-71955530D01*
X91828331Y-71944178D01*
X91825498Y-71932584D01*
X91822286Y-71925675D01*
X91819918Y-71918426D01*
X91814075Y-71908012D01*
X91809044Y-71897188D01*
X91804550Y-71891032D01*
X91800820Y-71884384D01*
X91793066Y-71875303D01*
X91786028Y-71865663D01*
X91780424Y-71860497D01*
X91775473Y-71854699D01*
X91766108Y-71847301D01*
X91757328Y-71839208D01*
X91750821Y-71835225D01*
X91744844Y-71830504D01*
X91734225Y-71825068D01*
X91724035Y-71818831D01*
X91716884Y-71816190D01*
X91710099Y-71812717D01*
X91698615Y-71809444D01*
X91687419Y-71805310D01*
X91679893Y-71804109D01*
X91672560Y-71802019D01*
X91669810Y-71801539D01*
X87961697Y-71180517D01*
X87877005Y-71161861D01*
X87803446Y-71137609D01*
X87694780Y-71085937D01*
X87598196Y-71021007D01*
X87512474Y-70943205D01*
X87438871Y-70854145D01*
X87378650Y-70755537D01*
X87333023Y-70649145D01*
X87303104Y-70536675D01*
X87290156Y-70421541D01*
X94373846Y-70421541D01*
X94536585Y-70488979D01*
X94750003Y-70458109D01*
X94953297Y-70386198D01*
X95138656Y-70276008D01*
X95298955Y-70131773D01*
X95428037Y-69959037D01*
X95516215Y-69777233D01*
X95508441Y-69679116D01*
X95895313Y-69679116D01*
X95895313Y-69895798D01*
X95937586Y-70108315D01*
X96020506Y-70308502D01*
X96140888Y-70488666D01*
X96294104Y-70641882D01*
X96474268Y-70762264D01*
X96674455Y-70845184D01*
X96886972Y-70887457D01*
X97103654Y-70887457D01*
X97316171Y-70845184D01*
X97516358Y-70762264D01*
X97696522Y-70641882D01*
X97849738Y-70488666D01*
X97970120Y-70308502D01*
X98040938Y-70137532D01*
X108929465Y-70137532D01*
X108965423Y-70164752D01*
X109009731Y-70186243D01*
X109057381Y-70198677D01*
X110736451Y-70464616D01*
X110785612Y-70467515D01*
X110834393Y-70460768D01*
X110880920Y-70444634D01*
X110923406Y-70419732D01*
X110960218Y-70387021D01*
X110989940Y-70347756D01*
X111011431Y-70303448D01*
X111023865Y-70255798D01*
X111125547Y-69613801D01*
X111128446Y-69564641D01*
X111121699Y-69515859D01*
X111105565Y-69469332D01*
X111080663Y-69426846D01*
X111047952Y-69390035D01*
X111008687Y-69360312D01*
X110964379Y-69338821D01*
X110916729Y-69326387D01*
X109237659Y-69060448D01*
X109188498Y-69057549D01*
X109139717Y-69064296D01*
X109093190Y-69080430D01*
X109050704Y-69105332D01*
X109013892Y-69138043D01*
X108984170Y-69177308D01*
X108962679Y-69221616D01*
X108950245Y-69269266D01*
X108931514Y-69387532D01*
X98020289Y-69387532D01*
X97970120Y-69266412D01*
X97849738Y-69086248D01*
X97696522Y-68933032D01*
X97516358Y-68812650D01*
X97316171Y-68729730D01*
X97103654Y-68687457D01*
X96886972Y-68687457D01*
X96674455Y-68729730D01*
X96474268Y-68812650D01*
X96294104Y-68933032D01*
X96140888Y-69086248D01*
X96020506Y-69266412D01*
X95937586Y-69466599D01*
X95895313Y-69679116D01*
X95508441Y-69679116D01*
X95502299Y-69601610D01*
X94528148Y-69447319D01*
X94373846Y-70421541D01*
X87290156Y-70421541D01*
X87289656Y-70417103D01*
X87290693Y-70339671D01*
X87300650Y-70253511D01*
X87436878Y-69440113D01*
X93387723Y-69440113D01*
X93415404Y-69640267D01*
X93484789Y-69844437D01*
X93592672Y-70031148D01*
X93734908Y-70193224D01*
X93906031Y-70324437D01*
X94099464Y-70419745D01*
X94275077Y-70405898D01*
X94429379Y-69431676D01*
X93904545Y-69348550D01*
X94543791Y-69348550D01*
X95517942Y-69502841D01*
X95585447Y-69340113D01*
X95557766Y-69139959D01*
X95488381Y-68935789D01*
X95380498Y-68749078D01*
X95238262Y-68587002D01*
X95067139Y-68455789D01*
X94873706Y-68360481D01*
X94698093Y-68374328D01*
X94543791Y-69348550D01*
X93904545Y-69348550D01*
X93455228Y-69277385D01*
X93387723Y-69440113D01*
X87436878Y-69440113D01*
X87510087Y-69002993D01*
X93456955Y-69002993D01*
X93470871Y-69178616D01*
X94445022Y-69332907D01*
X94599324Y-68358685D01*
X94436585Y-68291247D01*
X94223167Y-68322117D01*
X94019873Y-68394028D01*
X93834514Y-68504218D01*
X93674215Y-68648453D01*
X93545133Y-68821189D01*
X93456955Y-69002993D01*
X87510087Y-69002993D01*
X87794718Y-67303521D01*
X87813376Y-67218816D01*
X87837627Y-67145261D01*
X87889298Y-67036597D01*
X87954230Y-66940009D01*
X88032029Y-66854292D01*
X88121091Y-66780687D01*
X88219699Y-66720466D01*
X88326091Y-66674839D01*
X88438561Y-66644920D01*
X88558132Y-66631472D01*
X88635565Y-66632509D01*
X88721729Y-66642466D01*
X91251500Y-67066147D01*
X91255195Y-67066399D01*
X91258808Y-67067233D01*
X91261579Y-67067572D01*
X91362905Y-67079280D01*
X91371675Y-67079432D01*
X91380393Y-67080528D01*
X91383185Y-67080584D01*
X91483351Y-67081925D01*
X91494450Y-67080986D01*
X91505603Y-67080983D01*
X91508380Y-67080690D01*
X91655164Y-67064182D01*
X91668259Y-67061394D01*
X91681523Y-67059413D01*
X91684226Y-67058714D01*
X91825078Y-67021246D01*
X91837362Y-67016654D01*
X91849918Y-67012860D01*
X91852492Y-67011777D01*
X91985420Y-66954770D01*
X91996724Y-66948553D01*
X92008441Y-66943086D01*
X92010833Y-66941647D01*
X92133847Y-66866521D01*
X92144094Y-66858796D01*
X92154851Y-66851764D01*
X92157015Y-66850000D01*
X92250133Y-66773044D01*
X93783928Y-66773044D01*
X93783928Y-66989726D01*
X93826201Y-67202243D01*
X93909121Y-67402430D01*
X94029503Y-67582594D01*
X94182719Y-67735810D01*
X94362883Y-67856192D01*
X94563070Y-67939112D01*
X94775587Y-67981385D01*
X94992269Y-67981385D01*
X95204786Y-67939112D01*
X95404973Y-67856192D01*
X95585137Y-67735810D01*
X95738353Y-67582594D01*
X95858735Y-67402430D01*
X95941655Y-67202243D01*
X95983928Y-66989726D01*
X95983928Y-66773044D01*
X95941655Y-66560527D01*
X95881161Y-66414481D01*
X96641157Y-65654486D01*
X96646975Y-65661034D01*
X96686240Y-65690757D01*
X96730548Y-65712248D01*
X96778198Y-65724682D01*
X98457268Y-65990620D01*
X98481733Y-65992063D01*
X98853641Y-66363971D01*
X98865384Y-66378280D01*
X98911388Y-66416034D01*
X98922485Y-66425141D01*
X98967676Y-66449296D01*
X98987632Y-66459963D01*
X99058319Y-66481406D01*
X99113413Y-66486832D01*
X99113415Y-66486832D01*
X99131831Y-66488646D01*
X99150247Y-66486832D01*
X101653415Y-66486832D01*
X101671831Y-66488646D01*
X101690247Y-66486832D01*
X102116683Y-66486832D01*
X102152641Y-66514052D01*
X102196949Y-66535543D01*
X102244599Y-66547977D01*
X103923669Y-66813916D01*
X103972830Y-66816815D01*
X104021611Y-66810068D01*
X104068138Y-66793934D01*
X104110624Y-66769032D01*
X104147436Y-66736321D01*
X104177158Y-66697056D01*
X104198649Y-66652748D01*
X104211083Y-66605098D01*
X104213331Y-66590903D01*
X104213331Y-67337647D01*
X104072801Y-67478177D01*
X104114094Y-67217465D01*
X104116993Y-67168305D01*
X104110246Y-67119523D01*
X104094112Y-67072996D01*
X104069210Y-67030510D01*
X104036499Y-66993699D01*
X103997234Y-66963976D01*
X103952926Y-66942485D01*
X103905276Y-66930051D01*
X102226206Y-66664112D01*
X102177045Y-66661213D01*
X102128264Y-66667960D01*
X102081737Y-66684094D01*
X102039251Y-66708996D01*
X102002439Y-66741707D01*
X101972717Y-66780972D01*
X101951226Y-66825280D01*
X101938792Y-66872930D01*
X101920061Y-66991196D01*
X100869676Y-66991196D01*
X100851260Y-66989382D01*
X100832844Y-66991196D01*
X98457012Y-66991196D01*
X98450383Y-66957870D01*
X98367463Y-66757683D01*
X98247081Y-66577519D01*
X98093865Y-66424303D01*
X97913701Y-66303921D01*
X97713514Y-66221001D01*
X97500997Y-66178728D01*
X97284315Y-66178728D01*
X97071798Y-66221001D01*
X96871611Y-66303921D01*
X96691447Y-66424303D01*
X96538231Y-66577519D01*
X96417849Y-66757683D01*
X96334929Y-66957870D01*
X96292656Y-67170387D01*
X96292656Y-67387069D01*
X96334929Y-67599586D01*
X96417849Y-67799773D01*
X96538231Y-67979937D01*
X96691447Y-68133153D01*
X96871611Y-68253535D01*
X97071798Y-68336455D01*
X97284315Y-68378728D01*
X97500997Y-68378728D01*
X97713514Y-68336455D01*
X97913701Y-68253535D01*
X98093865Y-68133153D01*
X98247081Y-67979937D01*
X98367463Y-67799773D01*
X98391726Y-67741196D01*
X99696359Y-67741196D01*
X99680000Y-67823437D01*
X99680000Y-67951475D01*
X99704979Y-68077054D01*
X99753978Y-68195346D01*
X99825112Y-68301807D01*
X99915649Y-68392344D01*
X100022110Y-68463478D01*
X100140402Y-68512477D01*
X100265981Y-68537456D01*
X100394019Y-68537456D01*
X100519598Y-68512477D01*
X100637890Y-68463478D01*
X100744351Y-68392344D01*
X100834888Y-68301807D01*
X100906022Y-68195346D01*
X100955021Y-68077054D01*
X100980000Y-67951475D01*
X100980000Y-67823437D01*
X100970767Y-67777019D01*
X101006590Y-67741196D01*
X101918012Y-67741196D01*
X101953970Y-67768416D01*
X101998278Y-67789907D01*
X102045928Y-67802341D01*
X103515829Y-68035151D01*
X103430420Y-68120560D01*
X103303440Y-68120560D01*
X102027534Y-67918476D01*
X101978373Y-67915577D01*
X101929592Y-67922324D01*
X101883065Y-67938458D01*
X101840579Y-67963360D01*
X101803767Y-67996071D01*
X101774045Y-68035336D01*
X101752554Y-68079644D01*
X101740120Y-68127294D01*
X101638438Y-68769291D01*
X101635539Y-68818451D01*
X101642286Y-68867233D01*
X101658420Y-68913760D01*
X101683322Y-68956246D01*
X101716033Y-68993057D01*
X101755298Y-69022780D01*
X101799606Y-69044271D01*
X101847256Y-69056705D01*
X103526326Y-69322644D01*
X103575487Y-69325543D01*
X103624268Y-69318796D01*
X103670795Y-69302662D01*
X103713281Y-69277760D01*
X103750093Y-69245049D01*
X103779815Y-69205784D01*
X103801306Y-69161476D01*
X103813740Y-69113826D01*
X103817770Y-69088382D01*
X103829792Y-69084735D01*
X103916654Y-69038306D01*
X103992789Y-68975824D01*
X104008454Y-68956736D01*
X105049518Y-67915674D01*
X105068595Y-67900018D01*
X105131077Y-67823883D01*
X105177506Y-67737021D01*
X105206096Y-67642771D01*
X105213331Y-67569314D01*
X105213331Y-67569305D01*
X105215749Y-67544755D01*
X105213331Y-67520205D01*
X105213331Y-65975981D01*
X106030000Y-65975981D01*
X106030000Y-66104019D01*
X106054979Y-66229598D01*
X106103978Y-66347890D01*
X106175112Y-66454351D01*
X106265649Y-66544888D01*
X106372110Y-66616022D01*
X106490402Y-66665021D01*
X106540570Y-66675000D01*
X106490402Y-66684979D01*
X106372110Y-66733978D01*
X106265649Y-66805112D01*
X106175112Y-66895649D01*
X106103978Y-67002110D01*
X106054979Y-67120402D01*
X106030000Y-67245981D01*
X106030000Y-67374019D01*
X106054979Y-67499598D01*
X106103978Y-67617890D01*
X106175112Y-67724351D01*
X106265649Y-67814888D01*
X106372110Y-67886022D01*
X106490402Y-67935021D01*
X106615981Y-67960000D01*
X106744019Y-67960000D01*
X106790438Y-67950767D01*
X107599977Y-68760307D01*
X107611720Y-68774616D01*
X107641934Y-68799411D01*
X107668820Y-68821477D01*
X107684590Y-68829906D01*
X107733968Y-68856299D01*
X107804655Y-68877742D01*
X107859749Y-68883168D01*
X107859751Y-68883168D01*
X107878167Y-68884982D01*
X107896583Y-68883168D01*
X109128137Y-68883168D01*
X109164095Y-68910388D01*
X109208403Y-68931879D01*
X109256053Y-68944313D01*
X110935123Y-69210252D01*
X110984284Y-69213151D01*
X111033065Y-69206404D01*
X111079592Y-69190270D01*
X111122078Y-69165368D01*
X111158890Y-69132657D01*
X111188612Y-69093392D01*
X111210103Y-69049084D01*
X111222537Y-69001434D01*
X111324219Y-68359437D01*
X111327118Y-68310277D01*
X111320371Y-68261495D01*
X111304237Y-68214968D01*
X111279335Y-68172482D01*
X111246624Y-68135671D01*
X111207359Y-68105948D01*
X111163051Y-68084457D01*
X111115401Y-68072023D01*
X109436331Y-67806084D01*
X109387170Y-67803185D01*
X109338389Y-67809932D01*
X109291862Y-67826066D01*
X109249376Y-67850968D01*
X109212564Y-67883679D01*
X109182842Y-67922944D01*
X109161351Y-67967252D01*
X109148917Y-68014902D01*
X109130186Y-68133168D01*
X108033498Y-68133168D01*
X107320767Y-67420438D01*
X107330000Y-67374019D01*
X107330000Y-67245981D01*
X107323631Y-67213961D01*
X107615613Y-67505943D01*
X107627356Y-67520252D01*
X107684457Y-67567113D01*
X107749604Y-67601935D01*
X107820291Y-67623378D01*
X107875385Y-67628804D01*
X107875387Y-67628804D01*
X107893803Y-67630618D01*
X107912219Y-67628804D01*
X109326808Y-67628804D01*
X109362766Y-67656024D01*
X109407074Y-67677515D01*
X109454724Y-67689949D01*
X111133794Y-67955888D01*
X111182955Y-67958787D01*
X111231736Y-67952040D01*
X111278263Y-67935906D01*
X111320749Y-67911004D01*
X111357561Y-67878293D01*
X111387283Y-67839028D01*
X111408774Y-67794720D01*
X111421208Y-67747070D01*
X111522890Y-67105073D01*
X111525789Y-67055913D01*
X111519042Y-67007131D01*
X111502908Y-66960604D01*
X111478006Y-66918118D01*
X111445295Y-66881307D01*
X111406030Y-66851584D01*
X111361722Y-66830093D01*
X111314072Y-66817659D01*
X109635002Y-66551720D01*
X109585841Y-66548821D01*
X109537060Y-66555568D01*
X109490533Y-66571702D01*
X109448047Y-66596604D01*
X109411235Y-66629315D01*
X109381513Y-66668580D01*
X109360022Y-66712888D01*
X109347588Y-66760538D01*
X109328857Y-66878804D01*
X108049134Y-66878804D01*
X107367662Y-66197332D01*
X109441677Y-66197332D01*
X109448424Y-66246113D01*
X109464560Y-66292641D01*
X109489461Y-66335127D01*
X109522172Y-66371938D01*
X109561437Y-66401661D01*
X109605745Y-66423152D01*
X109653396Y-66435587D01*
X110382005Y-66549762D01*
X110431982Y-66513452D01*
X110552282Y-66513452D01*
X110604235Y-66584960D01*
X111332466Y-66701525D01*
X111381627Y-66704424D01*
X111430408Y-66697677D01*
X111476936Y-66681542D01*
X111519421Y-66656641D01*
X111556233Y-66623930D01*
X111585956Y-66584665D01*
X111607447Y-66540356D01*
X111619881Y-66492706D01*
X111651928Y-66282633D01*
X111599975Y-66211125D01*
X110624633Y-66056646D01*
X110552282Y-66513452D01*
X110431982Y-66513452D01*
X110453513Y-66497809D01*
X110525864Y-66041003D01*
X110001028Y-65957877D01*
X110640276Y-65957877D01*
X111615618Y-66112356D01*
X111687126Y-66060403D01*
X111721563Y-65850708D01*
X111724463Y-65801548D01*
X111717716Y-65752767D01*
X111701580Y-65706239D01*
X111676679Y-65663753D01*
X111643968Y-65626942D01*
X111604703Y-65597219D01*
X111560395Y-65575728D01*
X111512744Y-65563293D01*
X110784135Y-65449118D01*
X110712627Y-65501071D01*
X110640276Y-65957877D01*
X110001028Y-65957877D01*
X109550522Y-65886524D01*
X109479014Y-65938477D01*
X109444577Y-66148172D01*
X109441677Y-66197332D01*
X107367662Y-66197332D01*
X107320767Y-66150438D01*
X107330000Y-66104019D01*
X107330000Y-65975981D01*
X107305021Y-65850402D01*
X107256022Y-65732110D01*
X107245423Y-65716247D01*
X109514212Y-65716247D01*
X109566165Y-65787755D01*
X110541507Y-65942234D01*
X110613858Y-65485428D01*
X110561905Y-65413920D01*
X109833674Y-65297355D01*
X109784513Y-65294456D01*
X109735732Y-65301203D01*
X109689204Y-65317338D01*
X109646719Y-65342239D01*
X109609907Y-65374950D01*
X109580184Y-65414215D01*
X109558693Y-65458524D01*
X109546259Y-65506174D01*
X109514212Y-65716247D01*
X107245423Y-65716247D01*
X107184888Y-65625649D01*
X107094351Y-65535112D01*
X106987890Y-65463978D01*
X106869598Y-65414979D01*
X106744019Y-65390000D01*
X106615981Y-65390000D01*
X106490402Y-65414979D01*
X106372110Y-65463978D01*
X106265649Y-65535112D01*
X106175112Y-65625649D01*
X106103978Y-65732110D01*
X106054979Y-65850402D01*
X106030000Y-65975981D01*
X105213331Y-65975981D01*
X105213331Y-64490864D01*
X105289207Y-64428595D01*
X105304872Y-64409507D01*
X106716657Y-62997723D01*
X107109817Y-63059994D01*
X107207900Y-63065779D01*
X107305228Y-63052317D01*
X107398059Y-63020126D01*
X107429599Y-63001640D01*
X108033940Y-63001640D01*
X108040687Y-63050421D01*
X108056822Y-63096949D01*
X108081723Y-63139434D01*
X108114434Y-63176246D01*
X108153699Y-63205969D01*
X108198008Y-63227460D01*
X108245658Y-63239894D01*
X108702653Y-63311050D01*
X108752630Y-63274740D01*
X108872930Y-63274740D01*
X108924883Y-63346248D01*
X109381500Y-63419794D01*
X109430660Y-63422693D01*
X109479442Y-63415946D01*
X109525969Y-63399811D01*
X109568455Y-63374909D01*
X109605266Y-63342198D01*
X109634990Y-63302934D01*
X109656481Y-63258625D01*
X109668915Y-63210975D01*
X109759625Y-62630518D01*
X109707672Y-62559011D01*
X109003944Y-62447551D01*
X108872930Y-63274740D01*
X108752630Y-63274740D01*
X108774161Y-63259097D01*
X108905175Y-62431908D01*
X108380341Y-62348782D01*
X109019587Y-62348782D01*
X109723315Y-62460242D01*
X109794823Y-62408288D01*
X109887923Y-61828211D01*
X109890822Y-61779050D01*
X109884075Y-61730269D01*
X109867940Y-61683741D01*
X109843039Y-61641256D01*
X109810328Y-61604444D01*
X109771063Y-61574721D01*
X109726754Y-61553230D01*
X109679104Y-61540796D01*
X109222109Y-61469640D01*
X109150601Y-61521593D01*
X109019587Y-62348782D01*
X108380341Y-62348782D01*
X108201447Y-62320448D01*
X108129939Y-62372402D01*
X108036839Y-62952479D01*
X108033940Y-63001640D01*
X107429599Y-63001640D01*
X107482826Y-62970443D01*
X107556271Y-62905177D01*
X107615573Y-62826837D01*
X107658452Y-62738434D01*
X107683260Y-62643363D01*
X107761373Y-62150172D01*
X108165137Y-62150172D01*
X108217090Y-62221679D01*
X108920818Y-62333139D01*
X109051832Y-61505950D01*
X108999879Y-61434442D01*
X108543262Y-61360896D01*
X108494102Y-61357997D01*
X108445320Y-61364744D01*
X108398793Y-61380879D01*
X108356307Y-61405781D01*
X108319496Y-61438492D01*
X108289772Y-61477756D01*
X108268281Y-61522065D01*
X108255847Y-61569715D01*
X108165137Y-62150172D01*
X107761373Y-62150172D01*
X107824051Y-61754442D01*
X107829836Y-61656359D01*
X107816374Y-61559032D01*
X107784183Y-61466201D01*
X107734500Y-61381434D01*
X107669235Y-61307988D01*
X107590895Y-61248686D01*
X107502491Y-61205807D01*
X107407420Y-61180999D01*
X106765421Y-61079316D01*
X106667338Y-61073531D01*
X106570010Y-61086993D01*
X106477179Y-61119184D01*
X106392412Y-61168867D01*
X106318967Y-61234133D01*
X106259665Y-61312473D01*
X106216786Y-61400876D01*
X106191978Y-61495947D01*
X106076760Y-62223408D01*
X104933943Y-63366225D01*
X104129017Y-62561300D01*
X104113352Y-62542212D01*
X104037217Y-62479730D01*
X103950355Y-62433301D01*
X103856105Y-62404711D01*
X103782648Y-62397476D01*
X103758088Y-62395057D01*
X103733528Y-62397476D01*
X95578920Y-62397476D01*
X95554370Y-62395058D01*
X95529820Y-62397476D01*
X95529811Y-62397476D01*
X95456354Y-62404711D01*
X95362104Y-62433301D01*
X95275242Y-62479730D01*
X95199107Y-62542212D01*
X95183446Y-62561295D01*
X94945095Y-62799646D01*
X94926008Y-62815311D01*
X94863526Y-62891446D01*
X94817097Y-62978309D01*
X94810020Y-63001640D01*
X94788507Y-63072558D01*
X94778853Y-63170575D01*
X94781272Y-63195135D01*
X94781272Y-63389132D01*
X94760227Y-63397849D01*
X94580063Y-63518231D01*
X94426847Y-63671447D01*
X94306465Y-63851611D01*
X94223545Y-64051798D01*
X94181272Y-64264315D01*
X94181272Y-64480997D01*
X94223545Y-64693514D01*
X94306465Y-64893701D01*
X94426847Y-65073865D01*
X94580063Y-65227081D01*
X94760227Y-65347463D01*
X94960414Y-65430383D01*
X95172931Y-65472656D01*
X95389613Y-65472656D01*
X95602130Y-65430383D01*
X95802317Y-65347463D01*
X95982481Y-65227081D01*
X96081273Y-65128289D01*
X96081273Y-65153710D01*
X95350832Y-65884152D01*
X95204786Y-65823658D01*
X94992269Y-65781385D01*
X94775587Y-65781385D01*
X94563070Y-65823658D01*
X94362883Y-65906578D01*
X94182719Y-66026960D01*
X94029503Y-66180176D01*
X93909121Y-66360340D01*
X93826201Y-66560527D01*
X93783928Y-66773044D01*
X92250133Y-66773044D01*
X92268123Y-66758177D01*
X92277228Y-66749018D01*
X92286921Y-66740480D01*
X92288811Y-66738425D01*
X92386017Y-66631325D01*
X92393834Y-66620810D01*
X92402327Y-66610799D01*
X92403900Y-66608492D01*
X92485214Y-66487536D01*
X92491563Y-66475750D01*
X92498637Y-66464355D01*
X92499853Y-66461842D01*
X92563283Y-66328451D01*
X92567064Y-66317966D01*
X92571714Y-66307833D01*
X92572607Y-66305187D01*
X92603973Y-66210052D01*
X92605894Y-66201491D01*
X92608728Y-66193178D01*
X92609347Y-66190455D01*
X92631290Y-66090847D01*
X92631730Y-66087172D01*
X92632746Y-66083606D01*
X92633226Y-66080855D01*
X93511470Y-60836886D01*
X99536932Y-60836886D01*
X99536932Y-61083114D01*
X99584969Y-61324611D01*
X99679197Y-61552097D01*
X99815994Y-61756828D01*
X99990104Y-61930938D01*
X100194835Y-62067735D01*
X100422321Y-62161963D01*
X100663818Y-62210000D01*
X100910046Y-62210000D01*
X101151543Y-62161963D01*
X101379029Y-62067735D01*
X101583760Y-61930938D01*
X101757870Y-61756828D01*
X101894667Y-61552097D01*
X101988895Y-61324611D01*
X102036932Y-61083114D01*
X102036932Y-60836886D01*
X101988895Y-60595389D01*
X101894667Y-60367903D01*
X101757870Y-60163172D01*
X101583760Y-59989062D01*
X101379029Y-59852265D01*
X101151543Y-59758037D01*
X100910046Y-59710000D01*
X100663818Y-59710000D01*
X100422321Y-59758037D01*
X100194835Y-59852265D01*
X99990104Y-59989062D01*
X99815994Y-60163172D01*
X99679197Y-60367903D01*
X99584969Y-60595389D01*
X99536932Y-60836886D01*
X93511470Y-60836886D01*
X93901989Y-58505116D01*
X93920648Y-58420408D01*
X93944899Y-58346853D01*
X93996570Y-58238189D01*
X94061499Y-58141605D01*
X94139305Y-58055880D01*
X94228362Y-57982279D01*
X94326970Y-57922058D01*
X94433363Y-57876430D01*
X94545833Y-57846512D01*
X94665404Y-57833064D01*
X94742836Y-57834101D01*
G37*
X94742836Y-57834101D02*
X94829001Y-57844058D01*
X113823955Y-61025278D01*
X113908672Y-61043939D01*
X113982216Y-61068186D01*
X114090883Y-61119858D01*
X114187470Y-61184788D01*
X114273187Y-61262584D01*
X114346796Y-61351649D01*
X114407014Y-61450252D01*
X114452639Y-61556639D01*
X114482558Y-61669116D01*
X114496007Y-61788689D01*
X114494970Y-61866128D01*
X114485015Y-61952282D01*
X113216229Y-69528028D01*
X113215977Y-69531720D01*
X113215145Y-69535325D01*
X113214805Y-69538096D01*
X113203092Y-69639419D01*
X113202940Y-69648192D01*
X113201843Y-69656911D01*
X113201787Y-69659703D01*
X113200443Y-69759867D01*
X113201381Y-69770968D01*
X113201384Y-69782120D01*
X113201677Y-69784897D01*
X113218181Y-69931678D01*
X113220970Y-69944782D01*
X113222950Y-69958038D01*
X113223650Y-69960741D01*
X113261115Y-70101593D01*
X113265705Y-70113873D01*
X113269500Y-70126434D01*
X113270583Y-70129008D01*
X113327589Y-70261938D01*
X113333809Y-70273246D01*
X113339273Y-70284958D01*
X113340712Y-70287351D01*
X113415837Y-70410365D01*
X113423562Y-70420612D01*
X113430595Y-70431371D01*
X113432359Y-70433536D01*
X113524183Y-70544644D01*
X113533338Y-70553744D01*
X113541878Y-70563440D01*
X113543933Y-70565331D01*
X113651035Y-70662540D01*
X113661551Y-70670358D01*
X113671562Y-70678851D01*
X113673869Y-70680424D01*
X113794828Y-70761740D01*
X113806621Y-70768093D01*
X113818010Y-70775163D01*
X113820523Y-70776380D01*
X113953918Y-70839811D01*
X113964405Y-70843593D01*
X113974535Y-70848241D01*
X113977181Y-70849134D01*
X114072318Y-70880501D01*
X114080885Y-70882423D01*
X114089195Y-70885256D01*
X114091918Y-70885875D01*
X114191531Y-70907818D01*
X114195203Y-70908257D01*
X114198770Y-70909274D01*
X114201521Y-70909754D01*
X116731311Y-71333434D01*
X116816031Y-71352096D01*
X116889575Y-71376343D01*
X116998242Y-71428015D01*
X117094832Y-71492947D01*
X117180552Y-71570747D01*
X117254152Y-71659802D01*
X117314372Y-71758407D01*
X117360000Y-71864801D01*
X117389918Y-71977269D01*
X117403366Y-72096843D01*
X117402329Y-72174284D01*
X117392374Y-72260442D01*
X116898325Y-75210418D01*
X116879668Y-75295116D01*
X116855419Y-75368666D01*
X116803749Y-75477331D01*
X116738813Y-75573926D01*
X116661021Y-75659639D01*
X116571959Y-75733246D01*
X116473355Y-75793465D01*
X116366960Y-75839093D01*
X116254493Y-75869011D01*
X116134918Y-75882459D01*
X116057478Y-75881422D01*
X115971320Y-75871467D01*
X114227563Y-75579431D01*
X114219268Y-75578864D01*
X114211098Y-75577372D01*
X114199849Y-75577538D01*
X114188620Y-75576771D01*
X114180382Y-75577825D01*
X114172070Y-75577948D01*
X114161059Y-75580298D01*
X114149903Y-75581726D01*
X114142025Y-75584361D01*
X114133896Y-75586096D01*
X114123552Y-75590540D01*
X114112886Y-75594107D01*
X114105672Y-75598220D01*
X114098033Y-75601502D01*
X114088752Y-75607868D01*
X114078977Y-75613442D01*
X114072692Y-75618885D01*
X114065844Y-75623582D01*
X114057988Y-75631618D01*
X114049470Y-75638994D01*
X114044357Y-75645560D01*
X114038557Y-75651493D01*
X114032409Y-75660905D01*
X114025489Y-75669792D01*
X114021753Y-75677217D01*
X114017211Y-75684171D01*
X114013004Y-75694608D01*
X114007947Y-75704660D01*
X114005726Y-75712663D01*
X114002618Y-75720375D01*
X114000517Y-75731439D01*
X113997511Y-75742273D01*
X113996887Y-75750553D01*
X113995336Y-75758722D01*
X113995424Y-75769979D01*
X113994579Y-75781196D01*
X113995576Y-75789445D01*
X113995641Y-75797755D01*
X113997913Y-75808774D01*
X113999263Y-75819946D01*
X114001845Y-75827849D01*
X114003522Y-75835984D01*
X114007889Y-75846350D01*
X114011385Y-75857050D01*
X114015451Y-75864298D01*
X114018677Y-75871955D01*
X114024976Y-75881276D01*
X114030482Y-75891092D01*
X114035880Y-75897413D01*
X114040531Y-75904297D01*
X114042328Y-75906434D01*
X114296037Y-76204041D01*
X114541997Y-76505553D01*
X114781410Y-76812394D01*
X115014284Y-77124610D01*
X115240420Y-77441969D01*
X115459749Y-77764423D01*
X115672154Y-78091848D01*
X115877539Y-78424161D01*
X116075799Y-78761255D01*
X116266812Y-79103005D01*
X116450492Y-79449341D01*
X116626704Y-79800104D01*
X116795370Y-80155248D01*
X116956365Y-80514628D01*
X117109594Y-80878167D01*
X117254935Y-81245723D01*
X117392309Y-81617261D01*
X117521592Y-81992636D01*
X117642667Y-82371710D01*
X117755455Y-82754461D01*
X117859811Y-83140656D01*
X117955676Y-83530377D01*
X118042913Y-83923388D01*
X118121411Y-84319575D01*
X118191084Y-84718921D01*
X118251814Y-85121283D01*
X118303488Y-85526510D01*
X118346013Y-85934588D01*
X118379277Y-86345396D01*
X118403167Y-86758782D01*
X118417580Y-87174657D01*
X118422394Y-87591611D01*
X118399193Y-88509139D01*
X118330451Y-89413153D01*
X118217250Y-90304001D01*
X118060723Y-91180505D01*
X117861979Y-92041618D01*
X117622142Y-92886209D01*
X117342321Y-93713194D01*
X117023626Y-94521475D01*
X116667194Y-95309885D01*
X116274114Y-96077363D01*
X115845527Y-96822748D01*
X115382528Y-97544957D01*
X114886238Y-98242861D01*
X114357795Y-98915311D01*
X113798298Y-99561216D01*
X113208884Y-100179434D01*
X112590666Y-100768848D01*
X111944761Y-101328345D01*
X111272298Y-101856798D01*
X110574398Y-102353084D01*
X109852198Y-102816077D01*
X109106805Y-103244669D01*
X108339318Y-103637752D01*
X107550925Y-103994176D01*
X106742644Y-104312871D01*
X105915660Y-104592692D01*
X105071068Y-104832529D01*
X104209958Y-105031272D01*
X103333451Y-105187800D01*
X102442605Y-105301001D01*
X101538589Y-105369743D01*
X100622424Y-105392909D01*
X99706258Y-105369743D01*
X98802244Y-105301001D01*
X97911396Y-105187800D01*
X97034892Y-105031273D01*
X96173779Y-104832529D01*
X95329188Y-104592692D01*
X94502203Y-104312871D01*
X93693922Y-103994176D01*
X92905512Y-103637744D01*
X92138034Y-103244664D01*
X91392649Y-102816077D01*
X90670440Y-102353078D01*
X89972536Y-101856788D01*
X89300086Y-101328345D01*
X88654181Y-100768848D01*
X88035964Y-100179434D01*
X87481586Y-99597965D01*
X99671215Y-99597965D01*
X99676042Y-99646974D01*
X99690337Y-99694099D01*
X99713552Y-99737530D01*
X99744793Y-99775597D01*
X99782860Y-99806838D01*
X99826291Y-99830053D01*
X99873416Y-99844348D01*
X99922425Y-99849175D01*
X100509925Y-99847965D01*
X100572425Y-99785465D01*
X100572425Y-99072965D01*
X100672425Y-99072965D01*
X100672425Y-99785465D01*
X100734925Y-99847965D01*
X101322425Y-99849175D01*
X101371434Y-99844348D01*
X101418559Y-99830053D01*
X101461990Y-99806838D01*
X101500057Y-99775597D01*
X101531298Y-99737530D01*
X101554513Y-99694099D01*
X101568808Y-99646974D01*
X101573635Y-99597965D01*
X101572425Y-99135465D01*
X101509925Y-99072965D01*
X100672425Y-99072965D01*
X100572425Y-99072965D01*
X99734925Y-99072965D01*
X99672425Y-99135465D01*
X99671215Y-99597965D01*
X87481586Y-99597965D01*
X87446549Y-99561216D01*
X86887052Y-98915311D01*
X86882300Y-98909263D01*
X95929896Y-98909263D01*
X95934723Y-98958272D01*
X95949018Y-99005397D01*
X95972233Y-99048828D01*
X96003474Y-99086895D01*
X96041541Y-99118136D01*
X96084972Y-99141351D01*
X96132097Y-99155646D01*
X96181106Y-99160473D01*
X96768606Y-99159263D01*
X96831106Y-99096763D01*
X96831106Y-98384263D01*
X96931106Y-98384263D01*
X96931106Y-99096763D01*
X96993606Y-99159263D01*
X97581106Y-99160473D01*
X97630115Y-99155646D01*
X97677240Y-99141351D01*
X97720671Y-99118136D01*
X97758738Y-99086895D01*
X97789979Y-99048828D01*
X97813194Y-99005397D01*
X97827489Y-98958272D01*
X97832316Y-98909263D01*
X97831110Y-98447965D01*
X99671215Y-98447965D01*
X99672425Y-98910465D01*
X99734925Y-98972965D01*
X100572425Y-98972965D01*
X100572425Y-98260465D01*
X100672425Y-98260465D01*
X100672425Y-98972965D01*
X101509925Y-98972965D01*
X101517363Y-98965527D01*
X103422455Y-98965527D01*
X103427282Y-99014536D01*
X103441577Y-99061661D01*
X103464792Y-99105092D01*
X103496033Y-99143159D01*
X103534100Y-99174400D01*
X103577531Y-99197615D01*
X103624656Y-99211910D01*
X103673665Y-99216737D01*
X104261165Y-99215527D01*
X104323665Y-99153027D01*
X104323665Y-98440527D01*
X104423665Y-98440527D01*
X104423665Y-99153027D01*
X104486165Y-99215527D01*
X105073665Y-99216737D01*
X105122674Y-99211910D01*
X105169799Y-99197615D01*
X105213230Y-99174400D01*
X105251297Y-99143159D01*
X105282538Y-99105092D01*
X105305753Y-99061661D01*
X105320048Y-99014536D01*
X105324875Y-98965527D01*
X105323665Y-98503027D01*
X105261165Y-98440527D01*
X104423665Y-98440527D01*
X104323665Y-98440527D01*
X103486165Y-98440527D01*
X103423665Y-98503027D01*
X103422455Y-98965527D01*
X101517363Y-98965527D01*
X101572425Y-98910465D01*
X101573635Y-98447965D01*
X101568808Y-98398956D01*
X101554513Y-98351831D01*
X101531298Y-98308400D01*
X101500057Y-98270333D01*
X101461990Y-98239092D01*
X101418559Y-98215877D01*
X101371434Y-98201582D01*
X101322425Y-98196755D01*
X100734925Y-98197965D01*
X100672425Y-98260465D01*
X100572425Y-98260465D01*
X100509925Y-98197965D01*
X99922425Y-98196755D01*
X99873416Y-98201582D01*
X99826291Y-98215877D01*
X99782860Y-98239092D01*
X99744793Y-98270333D01*
X99713552Y-98308400D01*
X99690337Y-98351831D01*
X99676042Y-98398956D01*
X99671215Y-98447965D01*
X97831110Y-98447965D01*
X97831106Y-98446763D01*
X97768606Y-98384263D01*
X96931106Y-98384263D01*
X96831106Y-98384263D01*
X95993606Y-98384263D01*
X95931106Y-98446763D01*
X95929896Y-98909263D01*
X86882300Y-98909263D01*
X86358599Y-98242848D01*
X86014716Y-97759263D01*
X95929896Y-97759263D01*
X95931106Y-98221763D01*
X95993606Y-98284263D01*
X96831106Y-98284263D01*
X96831106Y-97571763D01*
X96931106Y-97571763D01*
X96931106Y-98284263D01*
X97768606Y-98284263D01*
X97831106Y-98221763D01*
X97832168Y-97815527D01*
X103422455Y-97815527D01*
X103423665Y-98278027D01*
X103486165Y-98340527D01*
X104323665Y-98340527D01*
X104323665Y-97628027D01*
X104423665Y-97628027D01*
X104423665Y-98340527D01*
X105261165Y-98340527D01*
X105323665Y-98278027D01*
X105324875Y-97815527D01*
X105320048Y-97766518D01*
X105305753Y-97719393D01*
X105282538Y-97675962D01*
X105251297Y-97637895D01*
X105213230Y-97606654D01*
X105169799Y-97583439D01*
X105122674Y-97569144D01*
X105073665Y-97564317D01*
X104486165Y-97565527D01*
X104423665Y-97628027D01*
X104323665Y-97628027D01*
X104261165Y-97565527D01*
X103673665Y-97564317D01*
X103624656Y-97569144D01*
X103577531Y-97583439D01*
X103534100Y-97606654D01*
X103496033Y-97637895D01*
X103464792Y-97675962D01*
X103441577Y-97719393D01*
X103427282Y-97766518D01*
X103422455Y-97815527D01*
X97832168Y-97815527D01*
X97832316Y-97759263D01*
X97827489Y-97710254D01*
X97813194Y-97663129D01*
X97789979Y-97619698D01*
X97758738Y-97581631D01*
X97720671Y-97550390D01*
X97677240Y-97527175D01*
X97630115Y-97512880D01*
X97581106Y-97508053D01*
X96993606Y-97509263D01*
X96931106Y-97571763D01*
X96831106Y-97571763D01*
X96768606Y-97509263D01*
X96181106Y-97508053D01*
X96132097Y-97512880D01*
X96084972Y-97527175D01*
X96041541Y-97550390D01*
X96003474Y-97581631D01*
X95972233Y-97619698D01*
X95949018Y-97663129D01*
X95934723Y-97710254D01*
X95929896Y-97759263D01*
X86014716Y-97759263D01*
X85862313Y-97544948D01*
X85501727Y-96982487D01*
X92649756Y-96982487D01*
X92654583Y-97031496D01*
X92668878Y-97078621D01*
X92692093Y-97122052D01*
X92723334Y-97160119D01*
X92761401Y-97191360D01*
X92804832Y-97214575D01*
X92851957Y-97228870D01*
X92900966Y-97233697D01*
X93488466Y-97232487D01*
X93550966Y-97169987D01*
X93550966Y-96457487D01*
X93650966Y-96457487D01*
X93650966Y-97169987D01*
X93713466Y-97232487D01*
X94300966Y-97233697D01*
X94349975Y-97228870D01*
X94397100Y-97214575D01*
X94440531Y-97191360D01*
X94478598Y-97160119D01*
X94509839Y-97122052D01*
X94533054Y-97078621D01*
X94547349Y-97031496D01*
X94552176Y-96982487D01*
X94550966Y-96519987D01*
X94488466Y-96457487D01*
X93650966Y-96457487D01*
X93550966Y-96457487D01*
X92713466Y-96457487D01*
X92650966Y-96519987D01*
X92649756Y-96982487D01*
X85501727Y-96982487D01*
X85399320Y-96822748D01*
X84970728Y-96077355D01*
X84845315Y-95832487D01*
X92649756Y-95832487D01*
X92650966Y-96294987D01*
X92713466Y-96357487D01*
X93550966Y-96357487D01*
X93550966Y-95644987D01*
X93650966Y-95644987D01*
X93650966Y-96357487D01*
X94488466Y-96357487D01*
X94550966Y-96294987D01*
X94552176Y-95832487D01*
X94547349Y-95783478D01*
X94533054Y-95736353D01*
X94509839Y-95692922D01*
X94478598Y-95654855D01*
X94440531Y-95623614D01*
X94397100Y-95600399D01*
X94349975Y-95586104D01*
X94300966Y-95581277D01*
X93713466Y-95582487D01*
X93650966Y-95644987D01*
X93550966Y-95644987D01*
X93488466Y-95582487D01*
X92900966Y-95581277D01*
X92851957Y-95586104D01*
X92804832Y-95600399D01*
X92761401Y-95623614D01*
X92723334Y-95654855D01*
X92692093Y-95692922D01*
X92668878Y-95736353D01*
X92654583Y-95783478D01*
X92649756Y-95832487D01*
X84845315Y-95832487D01*
X84577645Y-95309868D01*
X84221221Y-94521475D01*
X83902526Y-93713194D01*
X83622705Y-92886210D01*
X83382868Y-92041618D01*
X83184125Y-91180508D01*
X83027597Y-90304001D01*
X82914396Y-89413155D01*
X82845654Y-88509139D01*
X82822468Y-87592142D01*
X82832909Y-86977257D01*
X82864048Y-86366864D01*
X82915529Y-85762119D01*
X82987015Y-85163328D01*
X83008144Y-85025981D01*
X90790000Y-85025981D01*
X90790000Y-85154019D01*
X90814979Y-85279598D01*
X90863978Y-85397890D01*
X90935112Y-85504351D01*
X91025649Y-85594888D01*
X91132110Y-85666022D01*
X91250402Y-85715021D01*
X91375981Y-85740000D01*
X91504019Y-85740000D01*
X91550438Y-85730767D01*
X93225967Y-87406297D01*
X93225966Y-93531278D01*
X93150965Y-93531278D01*
X93053184Y-93540909D01*
X92959161Y-93569430D01*
X92872509Y-93615747D01*
X92796557Y-93678078D01*
X92734226Y-93754030D01*
X92687909Y-93840682D01*
X92659388Y-93934705D01*
X92649757Y-94032486D01*
X92649757Y-94682488D01*
X92659388Y-94780269D01*
X92687909Y-94874292D01*
X92734226Y-94960944D01*
X92796557Y-95036896D01*
X92872509Y-95099227D01*
X92959161Y-95145544D01*
X93053184Y-95174065D01*
X93150965Y-95183696D01*
X94050967Y-95183696D01*
X94148748Y-95174065D01*
X94242771Y-95145544D01*
X94329423Y-95099227D01*
X94405375Y-95036896D01*
X94467706Y-94960944D01*
X94514023Y-94874292D01*
X94542544Y-94780269D01*
X94552175Y-94682488D01*
X94552175Y-94032486D01*
X94542544Y-93934705D01*
X94514023Y-93840682D01*
X94467706Y-93754030D01*
X94405375Y-93678078D01*
X94329423Y-93615747D01*
X94242771Y-93569430D01*
X94148748Y-93540909D01*
X94050967Y-93531278D01*
X93975966Y-93531278D01*
X93975966Y-87269381D01*
X93977780Y-87250965D01*
X93974304Y-87215672D01*
X93970540Y-87177453D01*
X93949097Y-87106766D01*
X93947607Y-87103979D01*
X93914275Y-87041618D01*
X93892209Y-87014732D01*
X93867414Y-86984518D01*
X93853105Y-86972775D01*
X92080767Y-85200438D01*
X92090000Y-85154019D01*
X92090000Y-85025981D01*
X92065021Y-84900402D01*
X92016022Y-84782110D01*
X91944888Y-84675649D01*
X91854351Y-84585112D01*
X91747890Y-84513978D01*
X91629598Y-84464979D01*
X91504019Y-84440000D01*
X91375981Y-84440000D01*
X91250402Y-84464979D01*
X91132110Y-84513978D01*
X91025649Y-84585112D01*
X90935112Y-84675649D01*
X90863978Y-84782110D01*
X90814979Y-84900402D01*
X90790000Y-85025981D01*
X83008144Y-85025981D01*
X83078168Y-84570807D01*
X83188635Y-83984973D01*
X83318093Y-83406073D01*
X83466199Y-82834458D01*
X83632618Y-82270456D01*
X83817014Y-81714390D01*
X84019026Y-81166667D01*
X84204799Y-80710000D01*
X91443641Y-80710000D01*
X91448468Y-80759009D01*
X91462763Y-80806134D01*
X91485978Y-80849565D01*
X91517219Y-80887632D01*
X91555286Y-80918873D01*
X91598717Y-80942088D01*
X91645842Y-80956383D01*
X91694851Y-80961210D01*
X92157351Y-80960000D01*
X92219851Y-80897500D01*
X92219851Y-80060000D01*
X92319851Y-80060000D01*
X92319851Y-80897500D01*
X92382351Y-80960000D01*
X92844851Y-80961210D01*
X92893860Y-80956383D01*
X92940985Y-80942088D01*
X92984416Y-80918873D01*
X93022483Y-80887632D01*
X93053724Y-80849565D01*
X93076939Y-80806134D01*
X93091234Y-80759009D01*
X93096061Y-80710000D01*
X93094851Y-80122500D01*
X93032351Y-80060000D01*
X92319851Y-80060000D01*
X92219851Y-80060000D01*
X91507351Y-80060000D01*
X91444851Y-80122500D01*
X91443641Y-80710000D01*
X84204799Y-80710000D01*
X84238351Y-80627523D01*
X84474644Y-80097318D01*
X84727547Y-79576429D01*
X84867825Y-79310000D01*
X91443641Y-79310000D01*
X91444851Y-79897500D01*
X91507351Y-79960000D01*
X92219851Y-79960000D01*
X92219851Y-79122500D01*
X92319851Y-79122500D01*
X92319851Y-79960000D01*
X93032351Y-79960000D01*
X93094851Y-79897500D01*
X93095546Y-79559999D01*
X93493642Y-79559999D01*
X93493642Y-80460001D01*
X93503273Y-80557782D01*
X93531794Y-80651805D01*
X93578111Y-80738457D01*
X93640442Y-80814409D01*
X93716394Y-80876740D01*
X93803046Y-80923057D01*
X93897069Y-80951578D01*
X93994850Y-80961209D01*
X94644852Y-80961209D01*
X94683827Y-80957370D01*
X94673978Y-80972110D01*
X94624979Y-81090402D01*
X94600000Y-81215981D01*
X94600000Y-81344019D01*
X94624979Y-81469598D01*
X94673978Y-81587890D01*
X94745112Y-81694351D01*
X94835649Y-81784888D01*
X94942110Y-81856022D01*
X95060402Y-81905021D01*
X95185981Y-81930000D01*
X95314019Y-81930000D01*
X95360437Y-81920767D01*
X96506107Y-83066438D01*
X96506106Y-95458054D01*
X96431105Y-95458054D01*
X96333324Y-95467685D01*
X96239301Y-95496206D01*
X96152649Y-95542523D01*
X96076697Y-95604854D01*
X96014366Y-95680806D01*
X95968049Y-95767458D01*
X95939528Y-95861481D01*
X95929897Y-95959262D01*
X95929897Y-96609264D01*
X95939528Y-96707045D01*
X95968049Y-96801068D01*
X96014366Y-96887720D01*
X96076697Y-96963672D01*
X96152649Y-97026003D01*
X96239301Y-97072320D01*
X96333324Y-97100841D01*
X96431105Y-97110472D01*
X97331107Y-97110472D01*
X97428888Y-97100841D01*
X97522911Y-97072320D01*
X97609563Y-97026003D01*
X97685515Y-96963672D01*
X97747846Y-96887720D01*
X97794163Y-96801068D01*
X97822684Y-96707045D01*
X97828503Y-96647964D01*
X99671216Y-96647964D01*
X99671216Y-97297966D01*
X99680847Y-97395747D01*
X99709368Y-97489770D01*
X99755685Y-97576422D01*
X99818016Y-97652374D01*
X99893968Y-97714705D01*
X99980620Y-97761022D01*
X100074643Y-97789543D01*
X100172424Y-97799174D01*
X101072426Y-97799174D01*
X101170207Y-97789543D01*
X101264230Y-97761022D01*
X101350882Y-97714705D01*
X101426834Y-97652374D01*
X101489165Y-97576422D01*
X101535482Y-97489770D01*
X101564003Y-97395747D01*
X101573634Y-97297966D01*
X101573634Y-96647964D01*
X101564003Y-96550183D01*
X101535482Y-96456160D01*
X101489165Y-96369508D01*
X101426834Y-96293556D01*
X101350882Y-96231225D01*
X101264230Y-96184908D01*
X101170207Y-96156387D01*
X101072426Y-96146756D01*
X101036942Y-96146756D01*
X101036942Y-96015526D01*
X103422456Y-96015526D01*
X103422456Y-96665528D01*
X103432087Y-96763309D01*
X103460608Y-96857332D01*
X103506925Y-96943984D01*
X103569256Y-97019936D01*
X103645208Y-97082267D01*
X103731860Y-97128584D01*
X103825883Y-97157105D01*
X103923664Y-97166736D01*
X104823666Y-97166736D01*
X104921447Y-97157105D01*
X105015470Y-97128584D01*
X105090964Y-97088231D01*
X106731161Y-97088231D01*
X106735988Y-97137240D01*
X106750283Y-97184365D01*
X106773498Y-97227796D01*
X106804739Y-97265863D01*
X106842806Y-97297104D01*
X106886237Y-97320319D01*
X106933362Y-97334614D01*
X106982371Y-97339441D01*
X107569871Y-97338231D01*
X107632371Y-97275731D01*
X107632371Y-96563231D01*
X107732371Y-96563231D01*
X107732371Y-97275731D01*
X107794871Y-97338231D01*
X108382371Y-97339441D01*
X108431380Y-97334614D01*
X108478505Y-97320319D01*
X108521936Y-97297104D01*
X108560003Y-97265863D01*
X108591244Y-97227796D01*
X108614459Y-97184365D01*
X108628754Y-97137240D01*
X108633581Y-97088231D01*
X108632371Y-96625731D01*
X108569871Y-96563231D01*
X107732371Y-96563231D01*
X107632371Y-96563231D01*
X106794871Y-96563231D01*
X106732371Y-96625731D01*
X106731161Y-97088231D01*
X105090964Y-97088231D01*
X105102122Y-97082267D01*
X105178074Y-97019936D01*
X105240405Y-96943984D01*
X105286722Y-96857332D01*
X105315243Y-96763309D01*
X105324874Y-96665528D01*
X105324874Y-96015526D01*
X105317261Y-95938231D01*
X106731161Y-95938231D01*
X106732371Y-96400731D01*
X106794871Y-96463231D01*
X107632371Y-96463231D01*
X107632371Y-95750731D01*
X107732371Y-95750731D01*
X107732371Y-96463231D01*
X108569871Y-96463231D01*
X108632371Y-96400731D01*
X108633581Y-95938231D01*
X108628754Y-95889222D01*
X108614459Y-95842097D01*
X108591244Y-95798666D01*
X108560003Y-95760599D01*
X108521936Y-95729358D01*
X108478505Y-95706143D01*
X108431380Y-95691848D01*
X108382371Y-95687021D01*
X107794871Y-95688231D01*
X107732371Y-95750731D01*
X107632371Y-95750731D01*
X107569871Y-95688231D01*
X106982371Y-95687021D01*
X106933362Y-95691848D01*
X106886237Y-95706143D01*
X106842806Y-95729358D01*
X106804739Y-95760599D01*
X106773498Y-95798666D01*
X106750283Y-95842097D01*
X106735988Y-95889222D01*
X106731161Y-95938231D01*
X105317261Y-95938231D01*
X105315243Y-95917745D01*
X105286722Y-95823722D01*
X105240405Y-95737070D01*
X105178074Y-95661118D01*
X105102122Y-95598787D01*
X105015470Y-95552470D01*
X104921447Y-95523949D01*
X104823666Y-95514318D01*
X104748665Y-95514318D01*
X104748665Y-94138230D01*
X106731162Y-94138230D01*
X106731162Y-94788232D01*
X106740793Y-94886013D01*
X106769314Y-94980036D01*
X106815631Y-95066688D01*
X106877962Y-95142640D01*
X106953914Y-95204971D01*
X107040566Y-95251288D01*
X107134589Y-95279809D01*
X107232370Y-95289440D01*
X108132372Y-95289440D01*
X108230153Y-95279809D01*
X108324176Y-95251288D01*
X108410828Y-95204971D01*
X108486780Y-95142640D01*
X108549111Y-95066688D01*
X108595428Y-94980036D01*
X108623949Y-94886013D01*
X108633580Y-94788232D01*
X108633580Y-94138230D01*
X108623949Y-94040449D01*
X108595428Y-93946426D01*
X108549111Y-93859774D01*
X108486780Y-93783822D01*
X108410828Y-93721491D01*
X108324176Y-93675174D01*
X108230153Y-93646653D01*
X108132372Y-93637022D01*
X108057371Y-93637022D01*
X108057371Y-88052958D01*
X110379563Y-85730767D01*
X110425981Y-85740000D01*
X110554019Y-85740000D01*
X110679598Y-85715021D01*
X110797890Y-85666022D01*
X110904351Y-85594888D01*
X110994888Y-85504351D01*
X111066022Y-85397890D01*
X111115021Y-85279598D01*
X111140000Y-85154019D01*
X111140000Y-85025981D01*
X111115021Y-84900402D01*
X111066022Y-84782110D01*
X110994888Y-84675649D01*
X110904351Y-84585112D01*
X110797890Y-84513978D01*
X110679598Y-84464979D01*
X110554019Y-84440000D01*
X110425981Y-84440000D01*
X110300402Y-84464979D01*
X110182110Y-84513978D01*
X110075649Y-84585112D01*
X109985112Y-84675649D01*
X109913978Y-84782110D01*
X109864979Y-84900402D01*
X109840000Y-85025981D01*
X109840000Y-85154019D01*
X109849233Y-85200437D01*
X107430233Y-87619438D01*
X107415924Y-87631181D01*
X107404182Y-87645489D01*
X107369062Y-87688283D01*
X107359824Y-87705567D01*
X107334241Y-87753429D01*
X107323348Y-87789340D01*
X107312798Y-87824117D01*
X107305557Y-87897629D01*
X107307372Y-87916055D01*
X107307371Y-93637022D01*
X107232370Y-93637022D01*
X107134589Y-93646653D01*
X107040566Y-93675174D01*
X106953914Y-93721491D01*
X106877962Y-93783822D01*
X106815631Y-93859774D01*
X106769314Y-93946426D01*
X106740793Y-94040449D01*
X106731162Y-94138230D01*
X104748665Y-94138230D01*
X104748665Y-81201664D01*
X105240329Y-80710000D01*
X106098790Y-80710000D01*
X106103617Y-80759009D01*
X106117912Y-80806134D01*
X106141127Y-80849565D01*
X106172368Y-80887632D01*
X106210435Y-80918873D01*
X106253866Y-80942088D01*
X106300991Y-80956383D01*
X106350000Y-80961210D01*
X106812500Y-80960000D01*
X106875000Y-80897500D01*
X106875000Y-80060000D01*
X106975000Y-80060000D01*
X106975000Y-80897500D01*
X107037500Y-80960000D01*
X107500000Y-80961210D01*
X107549009Y-80956383D01*
X107596134Y-80942088D01*
X107639565Y-80918873D01*
X107677632Y-80887632D01*
X107708873Y-80849565D01*
X107732088Y-80806134D01*
X107746383Y-80759009D01*
X107751210Y-80710000D01*
X107750000Y-80122500D01*
X107687500Y-80060000D01*
X106975000Y-80060000D01*
X106875000Y-80060000D01*
X106162500Y-80060000D01*
X106100000Y-80122500D01*
X106098790Y-80710000D01*
X105240329Y-80710000D01*
X105299563Y-80650767D01*
X105345981Y-80660000D01*
X105474019Y-80660000D01*
X105599598Y-80635021D01*
X105717890Y-80586022D01*
X105824351Y-80514888D01*
X105914888Y-80424351D01*
X105986022Y-80317890D01*
X106035021Y-80199598D01*
X106060000Y-80074019D01*
X106060000Y-79945981D01*
X106035021Y-79820402D01*
X105986022Y-79702110D01*
X105914888Y-79595649D01*
X105824351Y-79505112D01*
X105717890Y-79433978D01*
X105599598Y-79384979D01*
X105474019Y-79360000D01*
X105345981Y-79360000D01*
X105220402Y-79384979D01*
X105102110Y-79433978D01*
X104995649Y-79505112D01*
X104905112Y-79595649D01*
X104833978Y-79702110D01*
X104784979Y-79820402D01*
X104760000Y-79945981D01*
X104760000Y-80074019D01*
X104769233Y-80120437D01*
X104121527Y-80768144D01*
X104107218Y-80779887D01*
X104087639Y-80803744D01*
X104060356Y-80836989D01*
X104037249Y-80880220D01*
X104025535Y-80902135D01*
X104004092Y-80972822D01*
X104003722Y-80976578D01*
X103996851Y-81046335D01*
X103998666Y-81064761D01*
X103998665Y-95514318D01*
X103923664Y-95514318D01*
X103825883Y-95523949D01*
X103731860Y-95552470D01*
X103645208Y-95598787D01*
X103569256Y-95661118D01*
X103506925Y-95737070D01*
X103460608Y-95823722D01*
X103432087Y-95917745D01*
X103422456Y-96015526D01*
X101036942Y-96015526D01*
X101036942Y-88797903D01*
X101070192Y-88860109D01*
X101132523Y-88936061D01*
X101208475Y-88998392D01*
X101295127Y-89044709D01*
X101389150Y-89073230D01*
X101486931Y-89082861D01*
X102136933Y-89082861D01*
X102234714Y-89073230D01*
X102328737Y-89044709D01*
X102415389Y-88998392D01*
X102491341Y-88936061D01*
X102553672Y-88860109D01*
X102599989Y-88773457D01*
X102628510Y-88679434D01*
X102638141Y-88581653D01*
X102638141Y-87681651D01*
X102628510Y-87583870D01*
X102599989Y-87489847D01*
X102553672Y-87403195D01*
X102491341Y-87327243D01*
X102415389Y-87264912D01*
X102328737Y-87218595D01*
X102234714Y-87190074D01*
X102186932Y-87185368D01*
X102186932Y-79310000D01*
X106098790Y-79310000D01*
X106100000Y-79897500D01*
X106162500Y-79960000D01*
X106875000Y-79960000D01*
X106875000Y-79122500D01*
X106975000Y-79122500D01*
X106975000Y-79960000D01*
X107687500Y-79960000D01*
X107750000Y-79897500D01*
X107751210Y-79310000D01*
X107746383Y-79260991D01*
X107732088Y-79213866D01*
X107708873Y-79170435D01*
X107677632Y-79132368D01*
X107639565Y-79101127D01*
X107596134Y-79077912D01*
X107549009Y-79063617D01*
X107500000Y-79058790D01*
X107037500Y-79060000D01*
X106975000Y-79122500D01*
X106875000Y-79122500D01*
X106812500Y-79060000D01*
X106350000Y-79058790D01*
X106300991Y-79063617D01*
X106253866Y-79077912D01*
X106210435Y-79101127D01*
X106172368Y-79132368D01*
X106141127Y-79170435D01*
X106117912Y-79213866D01*
X106103617Y-79260991D01*
X106098790Y-79310000D01*
X102186932Y-79310000D01*
X102186932Y-74693396D01*
X103284347Y-73595981D01*
X104760000Y-73595981D01*
X104760000Y-73724019D01*
X104784979Y-73849598D01*
X104833978Y-73967890D01*
X104905112Y-74074351D01*
X104995649Y-74164888D01*
X105102110Y-74236022D01*
X105220402Y-74285021D01*
X105345981Y-74310000D01*
X105474019Y-74310000D01*
X105520438Y-74300767D01*
X108600001Y-77380331D01*
X108600000Y-79063716D01*
X108552218Y-79068422D01*
X108458195Y-79096943D01*
X108371543Y-79143260D01*
X108295591Y-79205591D01*
X108233260Y-79281543D01*
X108186943Y-79368195D01*
X108158422Y-79462218D01*
X108148791Y-79559999D01*
X108148791Y-80460001D01*
X108158422Y-80557782D01*
X108186943Y-80651805D01*
X108233260Y-80738457D01*
X108295591Y-80814409D01*
X108371543Y-80876740D01*
X108458195Y-80923057D01*
X108552218Y-80951578D01*
X108649999Y-80961209D01*
X109300001Y-80961209D01*
X109397782Y-80951578D01*
X109491805Y-80923057D01*
X109578457Y-80876740D01*
X109654409Y-80814409D01*
X109716740Y-80738457D01*
X109763057Y-80651805D01*
X109791578Y-80557782D01*
X109801209Y-80460001D01*
X109801209Y-79559999D01*
X109791578Y-79462218D01*
X109763057Y-79368195D01*
X109716740Y-79281543D01*
X109654409Y-79205591D01*
X109578457Y-79143260D01*
X109491805Y-79096943D01*
X109397782Y-79068422D01*
X109350000Y-79063716D01*
X109350000Y-77243415D01*
X109351814Y-77224999D01*
X109349996Y-77206539D01*
X109344574Y-77151487D01*
X109323131Y-77080800D01*
X109288309Y-77015653D01*
X109241448Y-76958552D01*
X109227139Y-76946809D01*
X106050767Y-73770438D01*
X106060000Y-73724019D01*
X106060000Y-73595981D01*
X106035021Y-73470402D01*
X105986022Y-73352110D01*
X105914888Y-73245649D01*
X105824351Y-73155112D01*
X105717890Y-73083978D01*
X105599598Y-73034979D01*
X105474019Y-73010000D01*
X105345981Y-73010000D01*
X105220402Y-73034979D01*
X105102110Y-73083978D01*
X104995649Y-73155112D01*
X104905112Y-73245649D01*
X104833978Y-73352110D01*
X104784979Y-73470402D01*
X104760000Y-73595981D01*
X103284347Y-73595981D01*
X105119562Y-71760767D01*
X105165980Y-71770000D01*
X105294018Y-71770000D01*
X105419597Y-71745021D01*
X105537889Y-71696022D01*
X105644350Y-71624888D01*
X105734887Y-71534351D01*
X105806021Y-71427890D01*
X105855020Y-71309598D01*
X105879999Y-71184019D01*
X105879999Y-71055981D01*
X105855020Y-70930402D01*
X105806021Y-70812110D01*
X105734887Y-70705649D01*
X105644350Y-70615112D01*
X105537889Y-70543978D01*
X105419597Y-70494979D01*
X105294018Y-70470000D01*
X105165980Y-70470000D01*
X105040401Y-70494979D01*
X104922109Y-70543978D01*
X104815648Y-70615112D01*
X104725111Y-70705649D01*
X104653977Y-70812110D01*
X104604978Y-70930402D01*
X104579999Y-71055981D01*
X104579999Y-71184019D01*
X104589232Y-71230437D01*
X101559794Y-74259876D01*
X101545485Y-74271619D01*
X101533743Y-74285927D01*
X101498623Y-74328721D01*
X101463802Y-74393867D01*
X101442359Y-74464555D01*
X101435118Y-74538067D01*
X101436933Y-74556493D01*
X101436932Y-87185368D01*
X101389150Y-87190074D01*
X101295127Y-87218595D01*
X101208475Y-87264912D01*
X101132523Y-87327243D01*
X101070192Y-87403195D01*
X101036942Y-87465401D01*
X101036942Y-79789216D01*
X101100736Y-79746591D01*
X101191273Y-79656054D01*
X101262407Y-79549593D01*
X101311406Y-79431301D01*
X101336385Y-79305722D01*
X101336385Y-79177684D01*
X101311406Y-79052105D01*
X101262407Y-78933813D01*
X101191273Y-78827352D01*
X101100736Y-78736815D01*
X100994275Y-78665681D01*
X100875983Y-78616682D01*
X100750404Y-78591703D01*
X100622366Y-78591703D01*
X100496787Y-78616682D01*
X100378495Y-78665681D01*
X100272034Y-78736815D01*
X100181497Y-78827352D01*
X100110363Y-78933813D01*
X100061364Y-79052105D01*
X100036385Y-79177684D01*
X100036385Y-79305722D01*
X100061364Y-79431301D01*
X100110363Y-79549593D01*
X100181497Y-79656054D01*
X100272034Y-79746591D01*
X100286943Y-79756553D01*
X100286943Y-87180573D01*
X99874432Y-87181652D01*
X99811932Y-87244152D01*
X99811932Y-88081652D01*
X99831932Y-88081652D01*
X99831932Y-88181652D01*
X99811932Y-88181652D01*
X99811932Y-89019152D01*
X99874432Y-89081652D01*
X100286942Y-89082731D01*
X100286942Y-96146756D01*
X100172424Y-96146756D01*
X100074643Y-96156387D01*
X99980620Y-96184908D01*
X99893968Y-96231225D01*
X99818016Y-96293556D01*
X99755685Y-96369508D01*
X99709368Y-96456160D01*
X99680847Y-96550183D01*
X99671216Y-96647964D01*
X97828503Y-96647964D01*
X97832315Y-96609264D01*
X97832315Y-95959262D01*
X97822684Y-95861481D01*
X97794163Y-95767458D01*
X97747846Y-95680806D01*
X97685515Y-95604854D01*
X97609563Y-95542523D01*
X97522911Y-95496206D01*
X97428888Y-95467685D01*
X97331107Y-95458054D01*
X97256106Y-95458054D01*
X97256106Y-88831652D01*
X98935722Y-88831652D01*
X98940549Y-88880661D01*
X98954844Y-88927786D01*
X98978059Y-88971217D01*
X99009300Y-89009284D01*
X99047367Y-89040525D01*
X99090798Y-89063740D01*
X99137923Y-89078035D01*
X99186932Y-89082862D01*
X99649432Y-89081652D01*
X99711932Y-89019152D01*
X99711932Y-88181652D01*
X98999432Y-88181652D01*
X98936932Y-88244152D01*
X98935722Y-88831652D01*
X97256106Y-88831652D01*
X97256106Y-87431652D01*
X98935722Y-87431652D01*
X98936932Y-88019152D01*
X98999432Y-88081652D01*
X99711932Y-88081652D01*
X99711932Y-87244152D01*
X99649432Y-87181652D01*
X99186932Y-87180442D01*
X99137923Y-87185269D01*
X99090798Y-87199564D01*
X99047367Y-87222779D01*
X99009300Y-87254020D01*
X98978059Y-87292087D01*
X98954844Y-87335518D01*
X98940549Y-87382643D01*
X98935722Y-87431652D01*
X97256106Y-87431652D01*
X97256106Y-82929521D01*
X97257920Y-82911105D01*
X97255914Y-82890737D01*
X97250680Y-82837593D01*
X97229237Y-82766906D01*
X97194415Y-82701759D01*
X97169969Y-82671971D01*
X97159295Y-82658964D01*
X97159292Y-82658961D01*
X97147554Y-82644658D01*
X97133251Y-82632920D01*
X95890767Y-81390437D01*
X95900000Y-81344019D01*
X95900000Y-81215981D01*
X95875021Y-81090402D01*
X95826022Y-80972110D01*
X95754888Y-80865649D01*
X95664351Y-80775112D01*
X95557890Y-80703978D01*
X95439598Y-80654979D01*
X95314019Y-80630000D01*
X95185981Y-80630000D01*
X95109934Y-80645127D01*
X95136429Y-80557782D01*
X95146060Y-80460001D01*
X95146060Y-79559999D01*
X95136429Y-79462218D01*
X95107908Y-79368195D01*
X95061591Y-79281543D01*
X94999260Y-79205591D01*
X94923308Y-79143260D01*
X94836656Y-79096943D01*
X94742633Y-79068422D01*
X94694851Y-79063716D01*
X94694851Y-76015478D01*
X98949563Y-71760767D01*
X98995981Y-71770000D01*
X99124019Y-71770000D01*
X99249598Y-71745021D01*
X99367890Y-71696022D01*
X99474351Y-71624888D01*
X99564888Y-71534351D01*
X99636022Y-71427890D01*
X99685021Y-71309598D01*
X99710000Y-71184019D01*
X99710000Y-71055981D01*
X99685021Y-70930402D01*
X99636022Y-70812110D01*
X99564888Y-70705649D01*
X99474351Y-70615112D01*
X99367890Y-70543978D01*
X99249598Y-70494979D01*
X99124019Y-70470000D01*
X98995981Y-70470000D01*
X98870402Y-70494979D01*
X98752110Y-70543978D01*
X98645649Y-70615112D01*
X98555112Y-70705649D01*
X98483978Y-70812110D01*
X98434979Y-70930402D01*
X98410000Y-71055981D01*
X98410000Y-71184019D01*
X98419233Y-71230437D01*
X94067713Y-75581958D01*
X94053404Y-75593701D01*
X94041662Y-75608009D01*
X94006542Y-75650803D01*
X93981022Y-75698548D01*
X93971721Y-75715949D01*
X93951929Y-75781196D01*
X93950278Y-75786637D01*
X93943037Y-75860149D01*
X93944852Y-75878575D01*
X93944851Y-78418567D01*
X93944852Y-78418577D01*
X93944852Y-79063716D01*
X93897069Y-79068422D01*
X93803046Y-79096943D01*
X93716394Y-79143260D01*
X93640442Y-79205591D01*
X93578111Y-79281543D01*
X93531794Y-79368195D01*
X93503273Y-79462218D01*
X93493642Y-79559999D01*
X93095546Y-79559999D01*
X93096061Y-79310000D01*
X93091234Y-79260991D01*
X93076939Y-79213866D01*
X93053724Y-79170435D01*
X93022483Y-79132368D01*
X92984416Y-79101127D01*
X92940985Y-79077912D01*
X92893860Y-79063617D01*
X92844851Y-79058790D01*
X92382351Y-79060000D01*
X92319851Y-79122500D01*
X92219851Y-79122500D01*
X92157351Y-79060000D01*
X91694851Y-79058790D01*
X91645842Y-79063617D01*
X91598717Y-79077912D01*
X91555286Y-79101127D01*
X91517219Y-79132368D01*
X91485978Y-79170435D01*
X91462763Y-79213866D01*
X91448468Y-79260991D01*
X91443641Y-79310000D01*
X84867825Y-79310000D01*
X84996738Y-79065160D01*
X85281874Y-78563855D01*
X85582633Y-78072822D01*
X85898658Y-77592433D01*
X86229615Y-77123014D01*
X86575179Y-76664889D01*
X86934986Y-76218422D01*
X87308731Y-75783910D01*
X87696021Y-75361754D01*
X88096569Y-74952231D01*
X88510016Y-74555698D01*
X88936023Y-74172495D01*
X89374256Y-73802952D01*
X89824370Y-73447410D01*
X90286001Y-73106224D01*
X90758864Y-72779690D01*
X91242563Y-72468183D01*
X91739579Y-72170348D01*
X91745709Y-72165806D01*
X91752325Y-72162034D01*
X91761348Y-72154221D01*
X91770943Y-72147112D01*
X91776068Y-72141473D01*
X91781832Y-72136482D01*
X91789168Y-72127061D01*
X91797197Y-72118227D01*
X91801132Y-72111696D01*
X91805813Y-72105684D01*
X91811177Y-72095022D01*
X91817340Y-72084793D01*
X91819931Y-72077624D01*
X91823356Y-72070816D01*
X91826547Y-72059315D01*
X91830606Y-72048083D01*
X91831756Y-72040542D01*
X91833792Y-72033203D01*
X91834687Y-72021313D01*
X91836489Y-72009496D01*
X91836152Y-72001869D01*
X91836723Y-71994281D01*
X91835292Y-71982441D01*
X91834764Y-71970501D01*
X91832954Y-71963096D01*
X91832040Y-71955530D01*
X91828331Y-71944178D01*
X91825498Y-71932584D01*
X91822286Y-71925675D01*
X91819918Y-71918426D01*
X91814075Y-71908012D01*
X91809044Y-71897188D01*
X91804550Y-71891032D01*
X91800820Y-71884384D01*
X91793066Y-71875303D01*
X91786028Y-71865663D01*
X91780424Y-71860497D01*
X91775473Y-71854699D01*
X91766108Y-71847301D01*
X91757328Y-71839208D01*
X91750821Y-71835225D01*
X91744844Y-71830504D01*
X91734225Y-71825068D01*
X91724035Y-71818831D01*
X91716884Y-71816190D01*
X91710099Y-71812717D01*
X91698615Y-71809444D01*
X91687419Y-71805310D01*
X91679893Y-71804109D01*
X91672560Y-71802019D01*
X91669810Y-71801539D01*
X87961697Y-71180517D01*
X87877005Y-71161861D01*
X87803446Y-71137609D01*
X87694780Y-71085937D01*
X87598196Y-71021007D01*
X87512474Y-70943205D01*
X87438871Y-70854145D01*
X87378650Y-70755537D01*
X87333023Y-70649145D01*
X87303104Y-70536675D01*
X87290156Y-70421541D01*
X94373846Y-70421541D01*
X94536585Y-70488979D01*
X94750003Y-70458109D01*
X94953297Y-70386198D01*
X95138656Y-70276008D01*
X95298955Y-70131773D01*
X95428037Y-69959037D01*
X95516215Y-69777233D01*
X95508441Y-69679116D01*
X95895313Y-69679116D01*
X95895313Y-69895798D01*
X95937586Y-70108315D01*
X96020506Y-70308502D01*
X96140888Y-70488666D01*
X96294104Y-70641882D01*
X96474268Y-70762264D01*
X96674455Y-70845184D01*
X96886972Y-70887457D01*
X97103654Y-70887457D01*
X97316171Y-70845184D01*
X97516358Y-70762264D01*
X97696522Y-70641882D01*
X97849738Y-70488666D01*
X97970120Y-70308502D01*
X98040938Y-70137532D01*
X108929465Y-70137532D01*
X108965423Y-70164752D01*
X109009731Y-70186243D01*
X109057381Y-70198677D01*
X110736451Y-70464616D01*
X110785612Y-70467515D01*
X110834393Y-70460768D01*
X110880920Y-70444634D01*
X110923406Y-70419732D01*
X110960218Y-70387021D01*
X110989940Y-70347756D01*
X111011431Y-70303448D01*
X111023865Y-70255798D01*
X111125547Y-69613801D01*
X111128446Y-69564641D01*
X111121699Y-69515859D01*
X111105565Y-69469332D01*
X111080663Y-69426846D01*
X111047952Y-69390035D01*
X111008687Y-69360312D01*
X110964379Y-69338821D01*
X110916729Y-69326387D01*
X109237659Y-69060448D01*
X109188498Y-69057549D01*
X109139717Y-69064296D01*
X109093190Y-69080430D01*
X109050704Y-69105332D01*
X109013892Y-69138043D01*
X108984170Y-69177308D01*
X108962679Y-69221616D01*
X108950245Y-69269266D01*
X108931514Y-69387532D01*
X98020289Y-69387532D01*
X97970120Y-69266412D01*
X97849738Y-69086248D01*
X97696522Y-68933032D01*
X97516358Y-68812650D01*
X97316171Y-68729730D01*
X97103654Y-68687457D01*
X96886972Y-68687457D01*
X96674455Y-68729730D01*
X96474268Y-68812650D01*
X96294104Y-68933032D01*
X96140888Y-69086248D01*
X96020506Y-69266412D01*
X95937586Y-69466599D01*
X95895313Y-69679116D01*
X95508441Y-69679116D01*
X95502299Y-69601610D01*
X94528148Y-69447319D01*
X94373846Y-70421541D01*
X87290156Y-70421541D01*
X87289656Y-70417103D01*
X87290693Y-70339671D01*
X87300650Y-70253511D01*
X87436878Y-69440113D01*
X93387723Y-69440113D01*
X93415404Y-69640267D01*
X93484789Y-69844437D01*
X93592672Y-70031148D01*
X93734908Y-70193224D01*
X93906031Y-70324437D01*
X94099464Y-70419745D01*
X94275077Y-70405898D01*
X94429379Y-69431676D01*
X93904545Y-69348550D01*
X94543791Y-69348550D01*
X95517942Y-69502841D01*
X95585447Y-69340113D01*
X95557766Y-69139959D01*
X95488381Y-68935789D01*
X95380498Y-68749078D01*
X95238262Y-68587002D01*
X95067139Y-68455789D01*
X94873706Y-68360481D01*
X94698093Y-68374328D01*
X94543791Y-69348550D01*
X93904545Y-69348550D01*
X93455228Y-69277385D01*
X93387723Y-69440113D01*
X87436878Y-69440113D01*
X87510087Y-69002993D01*
X93456955Y-69002993D01*
X93470871Y-69178616D01*
X94445022Y-69332907D01*
X94599324Y-68358685D01*
X94436585Y-68291247D01*
X94223167Y-68322117D01*
X94019873Y-68394028D01*
X93834514Y-68504218D01*
X93674215Y-68648453D01*
X93545133Y-68821189D01*
X93456955Y-69002993D01*
X87510087Y-69002993D01*
X87794718Y-67303521D01*
X87813376Y-67218816D01*
X87837627Y-67145261D01*
X87889298Y-67036597D01*
X87954230Y-66940009D01*
X88032029Y-66854292D01*
X88121091Y-66780687D01*
X88219699Y-66720466D01*
X88326091Y-66674839D01*
X88438561Y-66644920D01*
X88558132Y-66631472D01*
X88635565Y-66632509D01*
X88721729Y-66642466D01*
X91251500Y-67066147D01*
X91255195Y-67066399D01*
X91258808Y-67067233D01*
X91261579Y-67067572D01*
X91362905Y-67079280D01*
X91371675Y-67079432D01*
X91380393Y-67080528D01*
X91383185Y-67080584D01*
X91483351Y-67081925D01*
X91494450Y-67080986D01*
X91505603Y-67080983D01*
X91508380Y-67080690D01*
X91655164Y-67064182D01*
X91668259Y-67061394D01*
X91681523Y-67059413D01*
X91684226Y-67058714D01*
X91825078Y-67021246D01*
X91837362Y-67016654D01*
X91849918Y-67012860D01*
X91852492Y-67011777D01*
X91985420Y-66954770D01*
X91996724Y-66948553D01*
X92008441Y-66943086D01*
X92010833Y-66941647D01*
X92133847Y-66866521D01*
X92144094Y-66858796D01*
X92154851Y-66851764D01*
X92157015Y-66850000D01*
X92250133Y-66773044D01*
X93783928Y-66773044D01*
X93783928Y-66989726D01*
X93826201Y-67202243D01*
X93909121Y-67402430D01*
X94029503Y-67582594D01*
X94182719Y-67735810D01*
X94362883Y-67856192D01*
X94563070Y-67939112D01*
X94775587Y-67981385D01*
X94992269Y-67981385D01*
X95204786Y-67939112D01*
X95404973Y-67856192D01*
X95585137Y-67735810D01*
X95738353Y-67582594D01*
X95858735Y-67402430D01*
X95941655Y-67202243D01*
X95983928Y-66989726D01*
X95983928Y-66773044D01*
X95941655Y-66560527D01*
X95881161Y-66414481D01*
X96641157Y-65654486D01*
X96646975Y-65661034D01*
X96686240Y-65690757D01*
X96730548Y-65712248D01*
X96778198Y-65724682D01*
X98457268Y-65990620D01*
X98481733Y-65992063D01*
X98853641Y-66363971D01*
X98865384Y-66378280D01*
X98911388Y-66416034D01*
X98922485Y-66425141D01*
X98967676Y-66449296D01*
X98987632Y-66459963D01*
X99058319Y-66481406D01*
X99113413Y-66486832D01*
X99113415Y-66486832D01*
X99131831Y-66488646D01*
X99150247Y-66486832D01*
X101653415Y-66486832D01*
X101671831Y-66488646D01*
X101690247Y-66486832D01*
X102116683Y-66486832D01*
X102152641Y-66514052D01*
X102196949Y-66535543D01*
X102244599Y-66547977D01*
X103923669Y-66813916D01*
X103972830Y-66816815D01*
X104021611Y-66810068D01*
X104068138Y-66793934D01*
X104110624Y-66769032D01*
X104147436Y-66736321D01*
X104177158Y-66697056D01*
X104198649Y-66652748D01*
X104211083Y-66605098D01*
X104213331Y-66590903D01*
X104213331Y-67337647D01*
X104072801Y-67478177D01*
X104114094Y-67217465D01*
X104116993Y-67168305D01*
X104110246Y-67119523D01*
X104094112Y-67072996D01*
X104069210Y-67030510D01*
X104036499Y-66993699D01*
X103997234Y-66963976D01*
X103952926Y-66942485D01*
X103905276Y-66930051D01*
X102226206Y-66664112D01*
X102177045Y-66661213D01*
X102128264Y-66667960D01*
X102081737Y-66684094D01*
X102039251Y-66708996D01*
X102002439Y-66741707D01*
X101972717Y-66780972D01*
X101951226Y-66825280D01*
X101938792Y-66872930D01*
X101920061Y-66991196D01*
X100869676Y-66991196D01*
X100851260Y-66989382D01*
X100832844Y-66991196D01*
X98457012Y-66991196D01*
X98450383Y-66957870D01*
X98367463Y-66757683D01*
X98247081Y-66577519D01*
X98093865Y-66424303D01*
X97913701Y-66303921D01*
X97713514Y-66221001D01*
X97500997Y-66178728D01*
X97284315Y-66178728D01*
X97071798Y-66221001D01*
X96871611Y-66303921D01*
X96691447Y-66424303D01*
X96538231Y-66577519D01*
X96417849Y-66757683D01*
X96334929Y-66957870D01*
X96292656Y-67170387D01*
X96292656Y-67387069D01*
X96334929Y-67599586D01*
X96417849Y-67799773D01*
X96538231Y-67979937D01*
X96691447Y-68133153D01*
X96871611Y-68253535D01*
X97071798Y-68336455D01*
X97284315Y-68378728D01*
X97500997Y-68378728D01*
X97713514Y-68336455D01*
X97913701Y-68253535D01*
X98093865Y-68133153D01*
X98247081Y-67979937D01*
X98367463Y-67799773D01*
X98391726Y-67741196D01*
X99696359Y-67741196D01*
X99680000Y-67823437D01*
X99680000Y-67951475D01*
X99704979Y-68077054D01*
X99753978Y-68195346D01*
X99825112Y-68301807D01*
X99915649Y-68392344D01*
X100022110Y-68463478D01*
X100140402Y-68512477D01*
X100265981Y-68537456D01*
X100394019Y-68537456D01*
X100519598Y-68512477D01*
X100637890Y-68463478D01*
X100744351Y-68392344D01*
X100834888Y-68301807D01*
X100906022Y-68195346D01*
X100955021Y-68077054D01*
X100980000Y-67951475D01*
X100980000Y-67823437D01*
X100970767Y-67777019D01*
X101006590Y-67741196D01*
X101918012Y-67741196D01*
X101953970Y-67768416D01*
X101998278Y-67789907D01*
X102045928Y-67802341D01*
X103515829Y-68035151D01*
X103430420Y-68120560D01*
X103303440Y-68120560D01*
X102027534Y-67918476D01*
X101978373Y-67915577D01*
X101929592Y-67922324D01*
X101883065Y-67938458D01*
X101840579Y-67963360D01*
X101803767Y-67996071D01*
X101774045Y-68035336D01*
X101752554Y-68079644D01*
X101740120Y-68127294D01*
X101638438Y-68769291D01*
X101635539Y-68818451D01*
X101642286Y-68867233D01*
X101658420Y-68913760D01*
X101683322Y-68956246D01*
X101716033Y-68993057D01*
X101755298Y-69022780D01*
X101799606Y-69044271D01*
X101847256Y-69056705D01*
X103526326Y-69322644D01*
X103575487Y-69325543D01*
X103624268Y-69318796D01*
X103670795Y-69302662D01*
X103713281Y-69277760D01*
X103750093Y-69245049D01*
X103779815Y-69205784D01*
X103801306Y-69161476D01*
X103813740Y-69113826D01*
X103817770Y-69088382D01*
X103829792Y-69084735D01*
X103916654Y-69038306D01*
X103992789Y-68975824D01*
X104008454Y-68956736D01*
X105049518Y-67915674D01*
X105068595Y-67900018D01*
X105131077Y-67823883D01*
X105177506Y-67737021D01*
X105206096Y-67642771D01*
X105213331Y-67569314D01*
X105213331Y-67569305D01*
X105215749Y-67544755D01*
X105213331Y-67520205D01*
X105213331Y-65975981D01*
X106030000Y-65975981D01*
X106030000Y-66104019D01*
X106054979Y-66229598D01*
X106103978Y-66347890D01*
X106175112Y-66454351D01*
X106265649Y-66544888D01*
X106372110Y-66616022D01*
X106490402Y-66665021D01*
X106540570Y-66675000D01*
X106490402Y-66684979D01*
X106372110Y-66733978D01*
X106265649Y-66805112D01*
X106175112Y-66895649D01*
X106103978Y-67002110D01*
X106054979Y-67120402D01*
X106030000Y-67245981D01*
X106030000Y-67374019D01*
X106054979Y-67499598D01*
X106103978Y-67617890D01*
X106175112Y-67724351D01*
X106265649Y-67814888D01*
X106372110Y-67886022D01*
X106490402Y-67935021D01*
X106615981Y-67960000D01*
X106744019Y-67960000D01*
X106790438Y-67950767D01*
X107599977Y-68760307D01*
X107611720Y-68774616D01*
X107641934Y-68799411D01*
X107668820Y-68821477D01*
X107684590Y-68829906D01*
X107733968Y-68856299D01*
X107804655Y-68877742D01*
X107859749Y-68883168D01*
X107859751Y-68883168D01*
X107878167Y-68884982D01*
X107896583Y-68883168D01*
X109128137Y-68883168D01*
X109164095Y-68910388D01*
X109208403Y-68931879D01*
X109256053Y-68944313D01*
X110935123Y-69210252D01*
X110984284Y-69213151D01*
X111033065Y-69206404D01*
X111079592Y-69190270D01*
X111122078Y-69165368D01*
X111158890Y-69132657D01*
X111188612Y-69093392D01*
X111210103Y-69049084D01*
X111222537Y-69001434D01*
X111324219Y-68359437D01*
X111327118Y-68310277D01*
X111320371Y-68261495D01*
X111304237Y-68214968D01*
X111279335Y-68172482D01*
X111246624Y-68135671D01*
X111207359Y-68105948D01*
X111163051Y-68084457D01*
X111115401Y-68072023D01*
X109436331Y-67806084D01*
X109387170Y-67803185D01*
X109338389Y-67809932D01*
X109291862Y-67826066D01*
X109249376Y-67850968D01*
X109212564Y-67883679D01*
X109182842Y-67922944D01*
X109161351Y-67967252D01*
X109148917Y-68014902D01*
X109130186Y-68133168D01*
X108033498Y-68133168D01*
X107320767Y-67420438D01*
X107330000Y-67374019D01*
X107330000Y-67245981D01*
X107323631Y-67213961D01*
X107615613Y-67505943D01*
X107627356Y-67520252D01*
X107684457Y-67567113D01*
X107749604Y-67601935D01*
X107820291Y-67623378D01*
X107875385Y-67628804D01*
X107875387Y-67628804D01*
X107893803Y-67630618D01*
X107912219Y-67628804D01*
X109326808Y-67628804D01*
X109362766Y-67656024D01*
X109407074Y-67677515D01*
X109454724Y-67689949D01*
X111133794Y-67955888D01*
X111182955Y-67958787D01*
X111231736Y-67952040D01*
X111278263Y-67935906D01*
X111320749Y-67911004D01*
X111357561Y-67878293D01*
X111387283Y-67839028D01*
X111408774Y-67794720D01*
X111421208Y-67747070D01*
X111522890Y-67105073D01*
X111525789Y-67055913D01*
X111519042Y-67007131D01*
X111502908Y-66960604D01*
X111478006Y-66918118D01*
X111445295Y-66881307D01*
X111406030Y-66851584D01*
X111361722Y-66830093D01*
X111314072Y-66817659D01*
X109635002Y-66551720D01*
X109585841Y-66548821D01*
X109537060Y-66555568D01*
X109490533Y-66571702D01*
X109448047Y-66596604D01*
X109411235Y-66629315D01*
X109381513Y-66668580D01*
X109360022Y-66712888D01*
X109347588Y-66760538D01*
X109328857Y-66878804D01*
X108049134Y-66878804D01*
X107367662Y-66197332D01*
X109441677Y-66197332D01*
X109448424Y-66246113D01*
X109464560Y-66292641D01*
X109489461Y-66335127D01*
X109522172Y-66371938D01*
X109561437Y-66401661D01*
X109605745Y-66423152D01*
X109653396Y-66435587D01*
X110382005Y-66549762D01*
X110431982Y-66513452D01*
X110552282Y-66513452D01*
X110604235Y-66584960D01*
X111332466Y-66701525D01*
X111381627Y-66704424D01*
X111430408Y-66697677D01*
X111476936Y-66681542D01*
X111519421Y-66656641D01*
X111556233Y-66623930D01*
X111585956Y-66584665D01*
X111607447Y-66540356D01*
X111619881Y-66492706D01*
X111651928Y-66282633D01*
X111599975Y-66211125D01*
X110624633Y-66056646D01*
X110552282Y-66513452D01*
X110431982Y-66513452D01*
X110453513Y-66497809D01*
X110525864Y-66041003D01*
X110001028Y-65957877D01*
X110640276Y-65957877D01*
X111615618Y-66112356D01*
X111687126Y-66060403D01*
X111721563Y-65850708D01*
X111724463Y-65801548D01*
X111717716Y-65752767D01*
X111701580Y-65706239D01*
X111676679Y-65663753D01*
X111643968Y-65626942D01*
X111604703Y-65597219D01*
X111560395Y-65575728D01*
X111512744Y-65563293D01*
X110784135Y-65449118D01*
X110712627Y-65501071D01*
X110640276Y-65957877D01*
X110001028Y-65957877D01*
X109550522Y-65886524D01*
X109479014Y-65938477D01*
X109444577Y-66148172D01*
X109441677Y-66197332D01*
X107367662Y-66197332D01*
X107320767Y-66150438D01*
X107330000Y-66104019D01*
X107330000Y-65975981D01*
X107305021Y-65850402D01*
X107256022Y-65732110D01*
X107245423Y-65716247D01*
X109514212Y-65716247D01*
X109566165Y-65787755D01*
X110541507Y-65942234D01*
X110613858Y-65485428D01*
X110561905Y-65413920D01*
X109833674Y-65297355D01*
X109784513Y-65294456D01*
X109735732Y-65301203D01*
X109689204Y-65317338D01*
X109646719Y-65342239D01*
X109609907Y-65374950D01*
X109580184Y-65414215D01*
X109558693Y-65458524D01*
X109546259Y-65506174D01*
X109514212Y-65716247D01*
X107245423Y-65716247D01*
X107184888Y-65625649D01*
X107094351Y-65535112D01*
X106987890Y-65463978D01*
X106869598Y-65414979D01*
X106744019Y-65390000D01*
X106615981Y-65390000D01*
X106490402Y-65414979D01*
X106372110Y-65463978D01*
X106265649Y-65535112D01*
X106175112Y-65625649D01*
X106103978Y-65732110D01*
X106054979Y-65850402D01*
X106030000Y-65975981D01*
X105213331Y-65975981D01*
X105213331Y-64490864D01*
X105289207Y-64428595D01*
X105304872Y-64409507D01*
X106716657Y-62997723D01*
X107109817Y-63059994D01*
X107207900Y-63065779D01*
X107305228Y-63052317D01*
X107398059Y-63020126D01*
X107429599Y-63001640D01*
X108033940Y-63001640D01*
X108040687Y-63050421D01*
X108056822Y-63096949D01*
X108081723Y-63139434D01*
X108114434Y-63176246D01*
X108153699Y-63205969D01*
X108198008Y-63227460D01*
X108245658Y-63239894D01*
X108702653Y-63311050D01*
X108752630Y-63274740D01*
X108872930Y-63274740D01*
X108924883Y-63346248D01*
X109381500Y-63419794D01*
X109430660Y-63422693D01*
X109479442Y-63415946D01*
X109525969Y-63399811D01*
X109568455Y-63374909D01*
X109605266Y-63342198D01*
X109634990Y-63302934D01*
X109656481Y-63258625D01*
X109668915Y-63210975D01*
X109759625Y-62630518D01*
X109707672Y-62559011D01*
X109003944Y-62447551D01*
X108872930Y-63274740D01*
X108752630Y-63274740D01*
X108774161Y-63259097D01*
X108905175Y-62431908D01*
X108380341Y-62348782D01*
X109019587Y-62348782D01*
X109723315Y-62460242D01*
X109794823Y-62408288D01*
X109887923Y-61828211D01*
X109890822Y-61779050D01*
X109884075Y-61730269D01*
X109867940Y-61683741D01*
X109843039Y-61641256D01*
X109810328Y-61604444D01*
X109771063Y-61574721D01*
X109726754Y-61553230D01*
X109679104Y-61540796D01*
X109222109Y-61469640D01*
X109150601Y-61521593D01*
X109019587Y-62348782D01*
X108380341Y-62348782D01*
X108201447Y-62320448D01*
X108129939Y-62372402D01*
X108036839Y-62952479D01*
X108033940Y-63001640D01*
X107429599Y-63001640D01*
X107482826Y-62970443D01*
X107556271Y-62905177D01*
X107615573Y-62826837D01*
X107658452Y-62738434D01*
X107683260Y-62643363D01*
X107761373Y-62150172D01*
X108165137Y-62150172D01*
X108217090Y-62221679D01*
X108920818Y-62333139D01*
X109051832Y-61505950D01*
X108999879Y-61434442D01*
X108543262Y-61360896D01*
X108494102Y-61357997D01*
X108445320Y-61364744D01*
X108398793Y-61380879D01*
X108356307Y-61405781D01*
X108319496Y-61438492D01*
X108289772Y-61477756D01*
X108268281Y-61522065D01*
X108255847Y-61569715D01*
X108165137Y-62150172D01*
X107761373Y-62150172D01*
X107824051Y-61754442D01*
X107829836Y-61656359D01*
X107816374Y-61559032D01*
X107784183Y-61466201D01*
X107734500Y-61381434D01*
X107669235Y-61307988D01*
X107590895Y-61248686D01*
X107502491Y-61205807D01*
X107407420Y-61180999D01*
X106765421Y-61079316D01*
X106667338Y-61073531D01*
X106570010Y-61086993D01*
X106477179Y-61119184D01*
X106392412Y-61168867D01*
X106318967Y-61234133D01*
X106259665Y-61312473D01*
X106216786Y-61400876D01*
X106191978Y-61495947D01*
X106076760Y-62223408D01*
X104933943Y-63366225D01*
X104129017Y-62561300D01*
X104113352Y-62542212D01*
X104037217Y-62479730D01*
X103950355Y-62433301D01*
X103856105Y-62404711D01*
X103782648Y-62397476D01*
X103758088Y-62395057D01*
X103733528Y-62397476D01*
X95578920Y-62397476D01*
X95554370Y-62395058D01*
X95529820Y-62397476D01*
X95529811Y-62397476D01*
X95456354Y-62404711D01*
X95362104Y-62433301D01*
X95275242Y-62479730D01*
X95199107Y-62542212D01*
X95183446Y-62561295D01*
X94945095Y-62799646D01*
X94926008Y-62815311D01*
X94863526Y-62891446D01*
X94817097Y-62978309D01*
X94810020Y-63001640D01*
X94788507Y-63072558D01*
X94778853Y-63170575D01*
X94781272Y-63195135D01*
X94781272Y-63389132D01*
X94760227Y-63397849D01*
X94580063Y-63518231D01*
X94426847Y-63671447D01*
X94306465Y-63851611D01*
X94223545Y-64051798D01*
X94181272Y-64264315D01*
X94181272Y-64480997D01*
X94223545Y-64693514D01*
X94306465Y-64893701D01*
X94426847Y-65073865D01*
X94580063Y-65227081D01*
X94760227Y-65347463D01*
X94960414Y-65430383D01*
X95172931Y-65472656D01*
X95389613Y-65472656D01*
X95602130Y-65430383D01*
X95802317Y-65347463D01*
X95982481Y-65227081D01*
X96081273Y-65128289D01*
X96081273Y-65153710D01*
X95350832Y-65884152D01*
X95204786Y-65823658D01*
X94992269Y-65781385D01*
X94775587Y-65781385D01*
X94563070Y-65823658D01*
X94362883Y-65906578D01*
X94182719Y-66026960D01*
X94029503Y-66180176D01*
X93909121Y-66360340D01*
X93826201Y-66560527D01*
X93783928Y-66773044D01*
X92250133Y-66773044D01*
X92268123Y-66758177D01*
X92277228Y-66749018D01*
X92286921Y-66740480D01*
X92288811Y-66738425D01*
X92386017Y-66631325D01*
X92393834Y-66620810D01*
X92402327Y-66610799D01*
X92403900Y-66608492D01*
X92485214Y-66487536D01*
X92491563Y-66475750D01*
X92498637Y-66464355D01*
X92499853Y-66461842D01*
X92563283Y-66328451D01*
X92567064Y-66317966D01*
X92571714Y-66307833D01*
X92572607Y-66305187D01*
X92603973Y-66210052D01*
X92605894Y-66201491D01*
X92608728Y-66193178D01*
X92609347Y-66190455D01*
X92631290Y-66090847D01*
X92631730Y-66087172D01*
X92632746Y-66083606D01*
X92633226Y-66080855D01*
X93511470Y-60836886D01*
X99536932Y-60836886D01*
X99536932Y-61083114D01*
X99584969Y-61324611D01*
X99679197Y-61552097D01*
X99815994Y-61756828D01*
X99990104Y-61930938D01*
X100194835Y-62067735D01*
X100422321Y-62161963D01*
X100663818Y-62210000D01*
X100910046Y-62210000D01*
X101151543Y-62161963D01*
X101379029Y-62067735D01*
X101583760Y-61930938D01*
X101757870Y-61756828D01*
X101894667Y-61552097D01*
X101988895Y-61324611D01*
X102036932Y-61083114D01*
X102036932Y-60836886D01*
X101988895Y-60595389D01*
X101894667Y-60367903D01*
X101757870Y-60163172D01*
X101583760Y-59989062D01*
X101379029Y-59852265D01*
X101151543Y-59758037D01*
X100910046Y-59710000D01*
X100663818Y-59710000D01*
X100422321Y-59758037D01*
X100194835Y-59852265D01*
X99990104Y-59989062D01*
X99815994Y-60163172D01*
X99679197Y-60367903D01*
X99584969Y-60595389D01*
X99536932Y-60836886D01*
X93511470Y-60836886D01*
X93901989Y-58505116D01*
X93920648Y-58420408D01*
X93944899Y-58346853D01*
X93996570Y-58238189D01*
X94061499Y-58141605D01*
X94139305Y-58055880D01*
X94228362Y-57982279D01*
X94326970Y-57922058D01*
X94433363Y-57876430D01*
X94545833Y-57846512D01*
X94665404Y-57833064D01*
X94742836Y-57834101D01*
%TD*%
M02*
