%TF.GenerationSoftware,KiCad,Pcbnew,(5.1.6)-1*%
%TF.CreationDate,2021-01-16T18:50:24+01:00*%
%TF.ProjectId,Snowman_Earring,536e6f77-6d61-46e5-9f45-617272696e67,rev?*%
%TF.SameCoordinates,Original*%
%TF.FileFunction,Soldermask,Top*%
%TF.FilePolarity,Negative*%
%FSLAX46Y46*%
G04 Gerber Fmt 4.6, Leading zero omitted, Abs format (unit mm)*
G04 Created by KiCad (PCBNEW (5.1.6)-1) date 2021-01-16 18:50:24*
%MOMM*%
%LPD*%
G01*
G04 APERTURE LIST*
%ADD10C,2.100000*%
%ADD11C,0.100000*%
G04 APERTURE END LIST*
D10*
%TO.C,REF\u002A\u002A*%
X100786932Y-60960000D03*
%TD*%
%TO.C,C1*%
G36*
G01*
X108270259Y-62764947D02*
X108419893Y-61820200D01*
G75*
G02*
X108730794Y-61594317I268392J-42509D01*
G01*
X109428619Y-61704842D01*
G75*
G02*
X109654502Y-62015743I-42509J-268392D01*
G01*
X109504869Y-62960490D01*
G75*
G02*
X109193968Y-63186373I-268392J42509D01*
G01*
X108496143Y-63075848D01*
G75*
G02*
X108270260Y-62764947I42509J268392D01*
G01*
G37*
G36*
G01*
X106245497Y-62444257D02*
X106395131Y-61499510D01*
G75*
G02*
X106706032Y-61273627I268392J-42509D01*
G01*
X107403857Y-61384152D01*
G75*
G02*
X107629740Y-61695053I-42509J-268392D01*
G01*
X107480107Y-62639800D01*
G75*
G02*
X107169206Y-62865683I-268392J42509D01*
G01*
X106471381Y-62755158D01*
G75*
G02*
X106245498Y-62444257I42509J268392D01*
G01*
G37*
%TD*%
%TO.C,D8*%
G36*
G01*
X108160633Y-95088231D02*
X107204109Y-95088231D01*
G75*
G02*
X106932371Y-94816493I0J271738D01*
G01*
X106932371Y-94109969D01*
G75*
G02*
X107204109Y-93838231I271738J0D01*
G01*
X108160633Y-93838231D01*
G75*
G02*
X108432371Y-94109969I0J-271738D01*
G01*
X108432371Y-94816493D01*
G75*
G02*
X108160633Y-95088231I-271738J0D01*
G01*
G37*
G36*
G01*
X108160633Y-97138231D02*
X107204109Y-97138231D01*
G75*
G02*
X106932371Y-96866493I0J271738D01*
G01*
X106932371Y-96159969D01*
G75*
G02*
X107204109Y-95888231I271738J0D01*
G01*
X108160633Y-95888231D01*
G75*
G02*
X108432371Y-96159969I0J-271738D01*
G01*
X108432371Y-96866493D01*
G75*
G02*
X108160633Y-97138231I-271738J0D01*
G01*
G37*
%TD*%
%TO.C,D7*%
G36*
G01*
X104851927Y-96965527D02*
X103895403Y-96965527D01*
G75*
G02*
X103623665Y-96693789I0J271738D01*
G01*
X103623665Y-95987265D01*
G75*
G02*
X103895403Y-95715527I271738J0D01*
G01*
X104851927Y-95715527D01*
G75*
G02*
X105123665Y-95987265I0J-271738D01*
G01*
X105123665Y-96693789D01*
G75*
G02*
X104851927Y-96965527I-271738J0D01*
G01*
G37*
G36*
G01*
X104851927Y-99015527D02*
X103895403Y-99015527D01*
G75*
G02*
X103623665Y-98743789I0J271738D01*
G01*
X103623665Y-98037265D01*
G75*
G02*
X103895403Y-97765527I271738J0D01*
G01*
X104851927Y-97765527D01*
G75*
G02*
X105123665Y-98037265I0J-271738D01*
G01*
X105123665Y-98743789D01*
G75*
G02*
X104851927Y-99015527I-271738J0D01*
G01*
G37*
%TD*%
%TO.C,D6*%
G36*
G01*
X101100687Y-97597965D02*
X100144163Y-97597965D01*
G75*
G02*
X99872425Y-97326227I0J271738D01*
G01*
X99872425Y-96619703D01*
G75*
G02*
X100144163Y-96347965I271738J0D01*
G01*
X101100687Y-96347965D01*
G75*
G02*
X101372425Y-96619703I0J-271738D01*
G01*
X101372425Y-97326227D01*
G75*
G02*
X101100687Y-97597965I-271738J0D01*
G01*
G37*
G36*
G01*
X101100687Y-99647965D02*
X100144163Y-99647965D01*
G75*
G02*
X99872425Y-99376227I0J271738D01*
G01*
X99872425Y-98669703D01*
G75*
G02*
X100144163Y-98397965I271738J0D01*
G01*
X101100687Y-98397965D01*
G75*
G02*
X101372425Y-98669703I0J-271738D01*
G01*
X101372425Y-99376227D01*
G75*
G02*
X101100687Y-99647965I-271738J0D01*
G01*
G37*
%TD*%
%TO.C,D5*%
G36*
G01*
X97359368Y-96909263D02*
X96402844Y-96909263D01*
G75*
G02*
X96131106Y-96637525I0J271738D01*
G01*
X96131106Y-95931001D01*
G75*
G02*
X96402844Y-95659263I271738J0D01*
G01*
X97359368Y-95659263D01*
G75*
G02*
X97631106Y-95931001I0J-271738D01*
G01*
X97631106Y-96637525D01*
G75*
G02*
X97359368Y-96909263I-271738J0D01*
G01*
G37*
G36*
G01*
X97359368Y-98959263D02*
X96402844Y-98959263D01*
G75*
G02*
X96131106Y-98687525I0J271738D01*
G01*
X96131106Y-97981001D01*
G75*
G02*
X96402844Y-97709263I271738J0D01*
G01*
X97359368Y-97709263D01*
G75*
G02*
X97631106Y-97981001I0J-271738D01*
G01*
X97631106Y-98687525D01*
G75*
G02*
X97359368Y-98959263I-271738J0D01*
G01*
G37*
%TD*%
%TO.C,D4*%
G36*
G01*
X94079228Y-94982487D02*
X93122704Y-94982487D01*
G75*
G02*
X92850966Y-94710749I0J271738D01*
G01*
X92850966Y-94004225D01*
G75*
G02*
X93122704Y-93732487I271738J0D01*
G01*
X94079228Y-93732487D01*
G75*
G02*
X94350966Y-94004225I0J-271738D01*
G01*
X94350966Y-94710749D01*
G75*
G02*
X94079228Y-94982487I-271738J0D01*
G01*
G37*
G36*
G01*
X94079228Y-97032487D02*
X93122704Y-97032487D01*
G75*
G02*
X92850966Y-96760749I0J271738D01*
G01*
X92850966Y-96054225D01*
G75*
G02*
X93122704Y-95782487I271738J0D01*
G01*
X94079228Y-95782487D01*
G75*
G02*
X94350966Y-96054225I0J-271738D01*
G01*
X94350966Y-96760749D01*
G75*
G02*
X94079228Y-97032487I-271738J0D01*
G01*
G37*
%TD*%
%TO.C,D3*%
G36*
G01*
X108350000Y-80488262D02*
X108350000Y-79531738D01*
G75*
G02*
X108621738Y-79260000I271738J0D01*
G01*
X109328262Y-79260000D01*
G75*
G02*
X109600000Y-79531738I0J-271738D01*
G01*
X109600000Y-80488262D01*
G75*
G02*
X109328262Y-80760000I-271738J0D01*
G01*
X108621738Y-80760000D01*
G75*
G02*
X108350000Y-80488262I0J271738D01*
G01*
G37*
G36*
G01*
X106300000Y-80488262D02*
X106300000Y-79531738D01*
G75*
G02*
X106571738Y-79260000I271738J0D01*
G01*
X107278262Y-79260000D01*
G75*
G02*
X107550000Y-79531738I0J-271738D01*
G01*
X107550000Y-80488262D01*
G75*
G02*
X107278262Y-80760000I-271738J0D01*
G01*
X106571738Y-80760000D01*
G75*
G02*
X106300000Y-80488262I0J271738D01*
G01*
G37*
%TD*%
%TO.C,D2*%
G36*
G01*
X101186932Y-88609914D02*
X101186932Y-87653390D01*
G75*
G02*
X101458670Y-87381652I271738J0D01*
G01*
X102165194Y-87381652D01*
G75*
G02*
X102436932Y-87653390I0J-271738D01*
G01*
X102436932Y-88609914D01*
G75*
G02*
X102165194Y-88881652I-271738J0D01*
G01*
X101458670Y-88881652D01*
G75*
G02*
X101186932Y-88609914I0J271738D01*
G01*
G37*
G36*
G01*
X99136932Y-88609914D02*
X99136932Y-87653390D01*
G75*
G02*
X99408670Y-87381652I271738J0D01*
G01*
X100115194Y-87381652D01*
G75*
G02*
X100386932Y-87653390I0J-271738D01*
G01*
X100386932Y-88609914D01*
G75*
G02*
X100115194Y-88881652I-271738J0D01*
G01*
X99408670Y-88881652D01*
G75*
G02*
X99136932Y-88609914I0J271738D01*
G01*
G37*
%TD*%
%TO.C,D1*%
G36*
G01*
X93694851Y-80488262D02*
X93694851Y-79531738D01*
G75*
G02*
X93966589Y-79260000I271738J0D01*
G01*
X94673113Y-79260000D01*
G75*
G02*
X94944851Y-79531738I0J-271738D01*
G01*
X94944851Y-80488262D01*
G75*
G02*
X94673113Y-80760000I-271738J0D01*
G01*
X93966589Y-80760000D01*
G75*
G02*
X93694851Y-80488262I0J271738D01*
G01*
G37*
G36*
G01*
X91644851Y-80488262D02*
X91644851Y-79531738D01*
G75*
G02*
X91916589Y-79260000I271738J0D01*
G01*
X92623113Y-79260000D01*
G75*
G02*
X92894851Y-79531738I0J-271738D01*
G01*
X92894851Y-80488262D01*
G75*
G02*
X92623113Y-80760000I-271738J0D01*
G01*
X91916589Y-80760000D01*
G75*
G02*
X91644851Y-80488262I0J271738D01*
G01*
G37*
%TD*%
D11*
%TO.C,J1*%
G36*
X98819711Y-64021872D02*
G01*
X98538128Y-65799711D01*
X96760289Y-65518128D01*
X97041872Y-63740289D01*
X98819711Y-64021872D01*
G37*
G36*
G01*
X96170192Y-64513447D02*
X96170192Y-64513447D01*
G75*
G02*
X95140481Y-65261576I-888920J140791D01*
G01*
X95140481Y-65261576D01*
G75*
G02*
X94392352Y-64231865I140791J888920D01*
G01*
X94392352Y-64231865D01*
G75*
G02*
X95422063Y-63483736I888920J-140791D01*
G01*
X95422063Y-63483736D01*
G75*
G02*
X96170192Y-64513447I-140791J-888920D01*
G01*
G37*
G36*
G01*
X98281576Y-67419519D02*
X98281576Y-67419519D01*
G75*
G02*
X97251865Y-68167648I-888920J140791D01*
G01*
X97251865Y-68167648D01*
G75*
G02*
X96503736Y-67137937I140791J888920D01*
G01*
X96503736Y-67137937D01*
G75*
G02*
X97533447Y-66389808I888920J-140791D01*
G01*
X97533447Y-66389808D01*
G75*
G02*
X98281576Y-67419519I-140791J-888920D01*
G01*
G37*
G36*
G01*
X95772848Y-67022176D02*
X95772848Y-67022176D01*
G75*
G02*
X94743137Y-67770305I-888920J140791D01*
G01*
X94743137Y-67770305D01*
G75*
G02*
X93995008Y-66740594I140791J888920D01*
G01*
X93995008Y-66740594D01*
G75*
G02*
X95024719Y-65992465I888920J-140791D01*
G01*
X95024719Y-65992465D01*
G75*
G02*
X95772848Y-67022176I-140791J-888920D01*
G01*
G37*
G36*
G01*
X97884233Y-69928248D02*
X97884233Y-69928248D01*
G75*
G02*
X96854522Y-70676377I-888920J140791D01*
G01*
X96854522Y-70676377D01*
G75*
G02*
X96106393Y-69646666I140791J888920D01*
G01*
X96106393Y-69646666D01*
G75*
G02*
X97136104Y-68898537I888920J-140791D01*
G01*
X97136104Y-68898537D01*
G75*
G02*
X97884233Y-69928248I-140791J-888920D01*
G01*
G37*
G36*
G01*
X95375505Y-69530904D02*
X95375505Y-69530904D01*
G75*
G02*
X94345794Y-70279033I-888920J140791D01*
G01*
X94345794Y-70279033D01*
G75*
G02*
X93597665Y-69249322I140791J888920D01*
G01*
X93597665Y-69249322D01*
G75*
G02*
X94627376Y-68501193I888920J-140791D01*
G01*
X94627376Y-68501193D01*
G75*
G02*
X95375505Y-69530904I-140791J-888920D01*
G01*
G37*
%TD*%
%TO.C,U1*%
G36*
X110934637Y-69532940D02*
G01*
X110817312Y-70273706D01*
X109039473Y-69992124D01*
X109156798Y-69251358D01*
X110934637Y-69532940D01*
G37*
G36*
X111133309Y-68278576D02*
G01*
X111015984Y-69019342D01*
X109238145Y-68737760D01*
X109355470Y-67996994D01*
X111133309Y-68278576D01*
G37*
G36*
X111331980Y-67024212D02*
G01*
X111214655Y-67764978D01*
X109436816Y-67483396D01*
X109554141Y-66742630D01*
X111331980Y-67024212D01*
G37*
G36*
X111530652Y-65769848D02*
G01*
X111413327Y-66510614D01*
X109635488Y-66229032D01*
X109752813Y-65488266D01*
X111530652Y-65769848D01*
G37*
G36*
X104320527Y-64627876D02*
G01*
X104203202Y-65368642D01*
X102425363Y-65087060D01*
X102542688Y-64346294D01*
X104320527Y-64627876D01*
G37*
G36*
X104121855Y-65882240D02*
G01*
X104004530Y-66623006D01*
X102226691Y-66341424D01*
X102344016Y-65600658D01*
X104121855Y-65882240D01*
G37*
G36*
X103923184Y-67136604D02*
G01*
X103805859Y-67877370D01*
X102028020Y-67595788D01*
X102145345Y-66855022D01*
X103923184Y-67136604D01*
G37*
G36*
X103724512Y-68390968D02*
G01*
X103607187Y-69131734D01*
X101829348Y-68850152D01*
X101946673Y-68109386D01*
X103724512Y-68390968D01*
G37*
%TD*%
M02*
